<?xml version="1.0" encoding="UTF-8"?>
<svg viewBox="0 0 382.82 377.39" xmlns="http://www.w3.org/2000/svg" fill="#FFFFFF">
<path d="M87.3228,271.81c1.41-5.8552-.1772-11.3547-3.07-16.4888-4.5353-8.0487-9.1259-16.0662-13.705-24.09-.3042-.5327-.7092-1.0081-1.088-1.5393-.6236,1.4089-.797,2.9944-1.6149,3.4689Q50.8712,243.0035,33.71,252.52c-.6137.3421-1.697-.1341-2.5559-.2673-.4039-.0627-.7938-.2156-1.5641-.4332.3511.8035.5023,1.2569.7342,1.6647,4.5267,7.9592,9.0054,15.9469,13.6366,23.8452a27.0735,27.0735,0,0,0,4.3465,5.6c6.1522,6.0242,13.53,8.34,21.84,5.7633C78.6392,286.06,85.13,280.9151,87.3228,271.81Zm-12.6193-2.3553c-2.23,5.16-9.1874,8.4794-14.7171,7.5472-3.114-.5252-5.217-2.5517-6.9652-5.011-.519-.73-.98-1.5048-1.4257-2.2831-1.7023-2.97-3.3877-5.95-5.1739-9.0921,7.2451-4.1113,14.3931-8.1678,22.0007-12.485,2.4132,4.77,5.1123,9.2537,6.9185,14.0721C76.1194,264.28,75.6339,267.3023,74.7035,269.4548Z"/>
<path d="M63.79,217.6151c-.7085-1.3626-.9747-1.9376-1.2945-2.4807q-8.3676-14.2122-16.7425-28.42c-.5686-.9661-1.1573-1.4011-1.9855-.2736-2.2585,3.0749-4.4364,6.2133-6.7942,9.21-2.5105,3.1911-5.1921,6.2477-7.7928,9.3683a2.04,2.04,0,0,0-.3481.6,14.7877,14.7877,0,0,1-1.253,3.4242c-1.7878,2.592-3.7824,5.0413-5.7024,7.5415-.3361.4377-.7088.8475-1.0647,1.27.6089.3061,1.2285.8982,1.825.8757,8.5592-.3235,17.1127-.8065,25.6729-1.0868C53.2545,217.4825,58.2084,217.6151,63.79,217.6151ZM52.2832,205.3108c.97.2626,2.2941.2636,2.5135.7565a5.01,5.01,0,0,1,.1968,3.301c-.1387.4415-1.6094.4648-2.71.7356Zm-1.5163,4.499H46.9157a15.8641,15.8641,0,0,1,.4808-4.0226c.13-.3473,2.4586-.419,2.5788-.1254A19.1747,19.1747,0,0,1,50.7669,209.81ZM48.89,203.8636c-3.76.2631-1.7062-2.6014-2.5377-4.3279,1.9311-.1184,3.8139-1.2959,4.2807,1.3185C50.8683,202.1707,51.0673,203.7112,48.89,203.8636Zm-2.3145-10.1559.617-.4834c1.01,1.22,2.0208,2.4405,3.5277,4.2607H46.5757ZM44.79,188.3564l1.7367,2.6157-3.6155.8373q-.1947-.2654-.3893-.5312Zm-3.1965,5.3978c3.3928-.5147,3.7069-.1372,3.1161,3.5494C41.48,198.0027,41.1946,197.6941,41.5938,193.7542Zm3.5833,9.7552-.8317.706c-.9188-.3972-2.339-.5756-2.6319-1.2462a4.58,4.58,0,0,1,.3679-3.1854c.1315-.315,2.044-.371,2.1407-.1351A23.2774,23.2774,0,0,1,45.1771,203.5094Zm-2.9181,2.4145a2.7883,2.7883,0,0,1,2.64.0562c.5776.9862.5253,2.3414.7495,3.6683H41.0713C41.4968,208.1516,41.57,206.7944,42.259,205.9239Zm-4.4759-6.1618c.0924-.2224,1.6952-.1759,1.7492.003a34.5049,34.5049,0,0,1,.7771,4.0351H36.6577A31.2333,31.2333,0,0,1,37.7831,199.7621Zm2.4513,10.2488c-1.1457-.19-2.5357-.04-2.8758-.5674a3.5461,3.5461,0,0,1-.0933-2.96c.2437-.5317,1.557-.5727,2.6843-.9255C40.0594,207.2741,40.1305,208.3849,40.2344,210.0109Zm-4.8543-4.137v4.295c-.8171.0817-1.5946.1594-2.6813.2683-.1019-1.4756-.1932-2.7981-.3051-4.4176Zm-6.7715,6.4906c.6636-.295,2.0777,1.0981,3.1764,1.7407,1.4589-2.5377,2.63-2.7653,4.581-.5017,1.4892-2.1632,2.6639-2.2014,4.33-.1411,1.8178-2.3011,4.0494-2.3221,5.2755-.4727,1.2076-.4308,2.2662-1.1151,3.2926-1.07.7189.0317,1.394,1.06,2.3527,1.8644l1.1521-2.2757c1.1219.5727,2.2935,1.1711,3.6094,1.8429l.4683-1.4254c1.5543-.8759,2.735.1047,4.1763,3.8288H24.9018C26.1937,214.494,27.2052,212.9884,28.6086,212.3645Z"/>
<path d="m272.59 266.19c-6.7354-6.2737-13.473-12.549-20.312-18.919-17.022 16.899-37.218 25.81-61.046 25.798-23.917-0.0112-44.152-9.0313-61.056-25.89-6.85 6.39-13.542 12.634-20.364 18.999 44.849 48.118 121.86 45.211 162.78 0.0118zm-25.057-9.075c5.234-1.5438 9.9672 0.2461 12.54 4.9592a31.534 31.534 0 0 1 1.7516 4.9863c-0.3829 5.404-5.5524 11.19-11.679 12.804a10.084 10.084 0 0 1-11.885-5.0195 11.442 11.442 0 0 1-1.3576-4.6184c-0.3559-5.5488 4.3848-11.27 10.629-13.111zm-17.097 10.998 1.6083 4.6892-7.8911 2.5352c1.85 5.3059 3.6186 10.381 5.4571 15.655l-5.8514 2.0111c-1.7065-5.1692-3.4035-10.309-5.2023-15.757-2.7012 0.9854-5.1351 1.8734-7.7742 2.836-0.476-1.3277-1.1457-3.1958-1.6826-4.6931zm-48.689 8.5756h7.0081c3.1548 4.3217 6.9125 7.68 10.628 11.734v-12.049h5.81v21.214h-4.8358l-12.95-13.777c0 2.878-0.0388 5.1129 0.011 7.3461 0.0488 2.19 0.1877 4.3786 0.2953 6.7484h-5.966zm-32.785 4.567c0.9043-3.2992 2.0649-6.5278 3.0806-9.7973 0.2834-0.9125 0.4561-1.8589 0.7205-2.96 2.022 0.6606 4.2164 1.3777 6.4443 2.1058a9.5132 9.5132 0 0 0-1.1223 1.7694c-1.1141 3.2376-2.2449 6.4739-3.2047 9.7587-0.8433 2.8857 0.4419 4.7576 3.7036 5.7745 3.2457 1.0119 5.1883 0.3133 6.1851-2.4735 1.3664-3.82 2.5682-7.6994 3.8982-11.728l6.019 1.994a26.528 26.528 0 0 0-1.1848 2.5542c-1.0616 3.0839-1.99 6.2151-3.1053 9.2785-1.6527 4.539-4.749 6.5638-9.4949 5.7473a28.779 28.779 0 0 1-8.044-2.6979c-3.6706-1.8665-4.9917-5.3277-3.8958-9.3258zm-17.319-27.532c3.7645 2.8565 7.9725 5.8083 11.892 9.1033a6.324 6.324 0 0 1 1.0168 9.0188c-2.1327 2.8321-5.6535 3.5189-8.9673 1.4851-2.4272-1.49-4.6621-3.2925-7.2621-5.1559l-4.6566 6.31c-1.4919-1.1128-3.3095-2.4687-4.8241-3.5983 4.2554-5.7062 8.4454-11.323 12.801-17.163z"/>
<path d="m139.45 302.64c-2.4743 2.6059-4.0624 0.5539-5.762-0.6387q-15.369-10.783-30.712-21.604c-0.741-0.5212-1.5307-0.9729-2.2978-1.4566l-0.5694 0.2511c2.3512 2.7064 0.2024 4.3461-1.0821 6.167-6.1776 8.7573-12.333 17.531-18.585 26.235-1.4735 2.0512-2.2049 5.3278-6.2019 4.2864a10.267 10.267 0 0 0 2.0883 1.9258c10.229 7.2137 20.486 14.388 30.672 21.662a41.91 41.91 0 0 1 4.3956 4.2512c2.5571-3.6118 5.4124-7.6452 8.2676-11.678q-0.1455-0.3657-0.291-0.7318c-3.0187 2.6442-4.8156 0.1869-6.8133-1.204-5.7739-4.02-11.512-8.0907-17.259-12.15-0.6424-0.454-1.2466-0.9622-1.9959-1.5441 1.5226-2.1552 2.9291-4.146 4.4889-6.354 3.654 2.5683 7.0712 4.9491 10.465 7.3631 1.9228 1.368 4.3806 2.3214 4.047 5.5452l0.6494 0.0037c2.599-3.671 5.198-7.342 7.4674-10.548a49.842 49.842 0 0 1-5.61-2.3866c-2.0443-1.1868-3.9114-2.6791-5.8508-4.0458-1.8327-1.2912-3.66-2.59-5.5458-3.9249 1.4913-2.072 2.765-3.8414 4.1037-5.7013 6.5763 4.6277 13.014 9.1192 19.404 13.679 1.8864 1.3459 4.77 2.0994 3.4379 5.7233q0.3886 0.0187 0.7772 0.038 4.3626-6.161 8.7251-12.322-0.206-0.4201-0.4123-0.8401z"/>
<path d="M183.2684,314.7111c.2173,1.9056.49,3.371.5165,4.8406a18.6253,18.6253,0,0,1-.4562,3.1491q-1.321,8.4159-2.643,16.8319l-.6117.1934-17.0011-25.851,3.011-1.1973q-.02-.3249-.0409-.65L145.37,308.8491l-.7427.946c3.3626.53,2.5618,2.62,2.2853,4.433-1.6268,10.6659-3.1966,21.342-5.01,31.9764-.4669,2.7366.5608,6.3946-3.4887,7.9864,5.425.828,10.85,1.656,15.7858,2.41-.4384-1.8807-1.2179-3.4427-1.0662-4.9083.4538-4.3849,1.2616-8.7335,1.9515-13.0932.5786-3.656,1.186-7.3076,1.8612-11.4569,7.1034,10.6217,13.8856,20.7626,20.71,30.9675l-2.4513,1.08q.0184.3358.0368.6721c5.4371.74,10.8072,1.9933,16.48,1.9221-2.6275-1.1118-2.0144-3.0659-1.7241-4.9215,1.7434-11.1439,3.4648-22.2912,5.233-33.431.3693-2.3261-.23-5.2528,3.6426-5.6773l-.324-.7106C193.3123,316.2442,188.0757,315.4452,183.2684,314.7111Z"/>
<path d="m248.5 299.82c0.49 3.2224-1.504 3.6234-3.5111 4.2045-11.769 3.4075-23.511 6.9069-35.281 10.31-2.0819 0.6019-4.397 2.3679-6.1311-1.22q-0.28 0.3934-0.5594 0.7875 2.199 7.4142 4.398 14.828c1.0359-1.1338 1.2331-2.6349 1.866-2.8493 4.6784-1.5838 9.4436-2.911 14.301-4.3544 2.8269 9.5191 5.556 18.671 8.2565 27.831 0.61 2.068 1.979 4.2687-0.8555 6.1388a93.709 93.709 0 0 0 17.45-5.2438c-2.7367 9e-3 -3.1026-1.8389-3.6333-3.6943-1.6624-5.8108-3.4239-11.593-5.1337-17.391-1.102-3.7367-2.18-7.48-3.315-11.377 3.8474-1.1436 7.423-2.2574 11.03-3.258 2.04-0.5657 4.2722-2.1477 5.88 1.3032l0.5732-0.7621q-2.1639-7.3617-4.3278-14.723-0.5036-0.2657-1.0069-0.5309z"/>
<path d="m51.178 104.56q14.688 9.5873 29.407 19.127c1.716 1.1088 3.582 2.0006 2.4783 4.7749l0.81 0.1334q4.8971-7.454 9.7944-14.908-0.2762-0.4034-0.5522-0.8071c-1.918 2.2542-3.4316 1.0087-5.0989-0.0859q-14.662-9.6258-29.391-19.15c-1.7351-1.1271-3.9522-1.9189-2.4752-5.023l-0.9929-0.0585-9.781 15.042 0.4761 0.7373c2.0737-2.4713 3.649-0.8773 5.326 0.2173z"/>
<path d="m297.63 151.91a112.5 112.5 0 0 0-107.33-75.467c-48.696 0.5559-91.427 31.893-106.19 77.746-13.87 43.076 0.6786 86.284 24.472 110.26l5.2111-4.8461c-19.346-21.892-28.865-47.211-27.375-76.202s13.332-53.349 34.873-72.814c38.981-35.224 99.423-35.6 138.95-0.8827 20.412 17.926 32.464 40.475 35.365 67.483 3.3639 31.319-6.0454 58.756-26.911 82.496l5.1916 4.8846c25.001-25.432 38.682-69.764 23.735-112.65z"/>
<path d="m223.48 176.42h-7.898v23.959h5.8909v-14.805c3.314 4.3759 6.4833 8.5054 9.5654 12.699a5.2461 5.2461 0 0 1 0.4593 2.0238h5.8818v-23.77h-5.6716v13.02c-2.8639-3.9-5.4894-7.4026-8.0027-10.983-0.3549-0.5048-0.1617-1.3942-0.2251-2.1429z"/>
<path d="m77.2 70.61q9.8488 13.153 19.611 26.371c1.4059 1.9124 4.0429 3.57 1.6569 6.717 3.014-0.9357 14.232-9.5815 14.511-10.774-1.0866-0.2571-2.6012-0.1474-3.1515-0.8233-2.932-3.6006-5.6228-7.3975-8.4653-11.218 1.8455-1.3714 3.4728-2.7611 5.2829-3.8459a4.4084 4.4084 0 0 1 3.0661-0.544c4.0154 1.0849 7.9714 2.3914 11.941 3.6416 2.0417 0.6429 4.7971 0.7518 3.5845 4.4836l14.358-10.636-19.783-6.0708a68.969 68.969 0 0 0 3.3831-7.8587c1.7091-5.8445-0.9851-10.338-5.0739-14.171a11.097 11.097 0 0 0-12.721-2.2372 42.611 42.611 0 0 0-8.078 4.5435c-8.03 5.7753-15.927 11.736-23.867 17.636-0.5974 0.4437-1.1291 0.9759-1.6913 1.4671l-0.0146 0.7216c3.319-1.703 4.1708 0.8878 5.4508 2.5978zm26.802-14.753a4.2319 4.2319 0 0 1 5.8939 1.1121 4.3809 4.3809 0 0 1-0.7641 6.1573c-4.2873 3.51-8.7731 6.7774-13.347 10.274l-5.6968-7.6654c4.7538-3.4011 9.2393-6.7826 13.914-9.878z"/>
<path d="m284.17 280.77c-1.4618-0.7473-3.0006-1.3672-1.8492-3.7113q-0.3254-0.0735-0.6509-0.1467-8.5943 7.3962-17.189 14.793l0.24 0.839c2.3318-1.1775 2.6262 0.3978 3.13 1.7934 4.24 11.757 8.5279 23.496 12.729 35.267 0.7855 2.2007 1.2479 4.5168 1.9562 7.1377l11.455-9.8476q-0.2074-0.3159-0.4147-0.6316c-0.43 0.0822-1.1814 0.3356-1.2424 0.2209-1.1506-2.16-2.2935-4.3324-3.2533-6.5811a2.2657 2.2657 0 0 1 0.3231-2.056c4.8251-4.2677 9.7353-8.4392 14.598-12.615 1.85 0.9809 3.4664 1.96 5.1822 2.7124 1.6035 0.703 2.7977 1.4853 2.4091 3.8109q6.4824-5.56 12.968-11.124a49.889 49.889 0 0 1-5.4638-1.9931c-11.663-5.9169-23.284-11.916-34.928-17.868zm1.39 30.884c-2.5017-6.736-4.9107-13.222-7.5611-20.358l19.613 9.999c-4.0765 3.5041-7.8936 6.7847-12.052 10.359z"/>
<path d="m157.15 66.08c-0.0142-1.1233 0.4839-2.2481 0.5126-3.3784 0.0442-1.7475 0.9659-2.3086 2.5417-2.565 4.8345-0.7865 9.7036-1.4714 14.452-2.6329 2.8522-0.6976 4.4429 0.03 5.4715 2.6149 0.77 1.9354 3.6011 3.415 0.5067 6.4836 6.4184-1.1718 11.998-2.1907 17.492-3.1938-1.6151-2.0705-3.13-3.7233-4.3186-5.5844-6.6407-10.398-13.205-20.844-19.789-31.278-0.9723-1.5408-2.5761-3.0209-0.6794-5.28l-22.331 4.0269q-0.1047 0.2953-0.2093 0.5909c2.1911 0.6326 2.0911 1.9358 1.745 3.7-2.2781 11.615-4.3865 23.263-6.617 34.888-0.5346 2.7863-1.3212 5.5244-2.0936 8.7035 4.5653-0.82 9.5814-1.7209 13.94-2.504a38.696 38.696 0 0 1-0.6242-4.5911zm5.7387-34.299c4.0538 6.3719 7.7954 12.253 11.799 18.546l-15.654 2.8176c1.2835-7.1134 2.5103-13.91 3.8557-21.364z"/>
<path d="m100.22 200.3v-23.85h-6.4914v23.85z"/>
<path d="M273.1448,84.5155c-1.7278,1.9708-2.6968,5.477-6.8295,3.8l-.0015.6921,13.61,11.6307,1.1439-.2308c-2.7967-2.8541-.4273-4.19.9147-5.7633,7.0543-8.27,14.1045-16.5441,21.2437-24.74,1.6476-1.8916,2.6657-5.0824,6.5177-3.4944q.02-.3474.04-.6945L296.19,54.1215q-.5733.13-1.1465.2586c2.782,2.7394.508,4.06-.8014,5.5937C287.2377,68.1781,280.2563,76.4041,273.1448,84.5155Z"/>
<path d="M217.284,68.0739c-1.5173-2.7171-1.5131-2.7156-.5319-5.7038,1.7075-5.2,3.4006-10.4058,5.1164-15.6037,1.2908-3.91,2.6078-7.8113,3.913-11.7167q.2151.03.43.06c1.2507,11.8407,2.5014,23.6813,3.82,36.16,8.4984-9.1178,16.58-17.7883,24.6607-26.4586-2.3638,8.6336-5.0981,17.0053-7.9181,25.3483-.7933,2.3466-.5924,5.5532-4.7419,5.4122q.1437.3621.2875.7236l16.4834,5.4163.6176-.5779c-2.6413-1.6148-1.6729-3.5444-.9949-5.5742,3.5727-10.6946,7.0467-21.4224,10.6144-32.1187.6907-2.0708.668-4.88,4.3356-4.5061l-.1533-.7758c-7.4532-2.4515-14.9062-4.9033-22.1881-7.2983.1105,1.5426.745,3.22.1931,3.8382-4.1768,4.68-8.5863,9.1527-13.2372,14.0186-.2062-1.3485-.3756-2.2092-.4644-3.0782-.45-4.3939-.8676-8.791-1.3188-13.1848-.2251-2.1915-1.0221-4.603,2.588-5.3213a184.1962,184.1962,0,0,0-21.963-6.9341c2.1772,1.4461,1.6389,3.0394,1.0233,4.875-3.5848,10.6891-7.0277,21.4262-10.6265,32.11-.7769,2.3063-.6122,5.4814-4.5583,5.5521l.2224.6192Q210.0884,65.7148,217.284,68.0739Z"/>
<path d="M101.754,235.62a8.6031,8.6031,0,0,0-1.0326,2.5679c-.0278.2616,1.2018.74,1.9028.9792,1.5129.5162,3.0566.9417,5.1695,1.58,1.934-2.465,5.51-1.7859,8.8633-1.96,2.2876-.1187,4.58-.15,6.8671-.2746,12.39-.6729,24.7732-1.4956,37.17-2,8.1511-.3315,16.3222-.1426,24.4813-.323,4.0682-.09,8.1267-.5862,12.1954-.7093,2.8458-.086,5.7025.2516,8.5523.2188,5.454-.0624,10.907-.2381,16.3593-.4045,1.126-.0342,2.247-.3383,3.37-.3385,4.9339,0,9.869.1524,14.8014.0844,5.645-.0777,11.2865-.4152,16.9313-.4792,4.2278-.0477,8.4581.1782,12.688.2446,2.5164.04,5.0353.0547,7.5505-.0137,1.3345-.0365,2.6634-.2754,3.9947-.4228q.02-.4867.04-.9739a10.8206,10.8206,0,0,0-2.5649-1.0259c-2.6713-.34-5.363-.53-8.05-.7365-3.2333-.2486-6.4687-.6187-9.7054-.6431-5.8391-.0443-11.68.1489-17.52.2061-4.4472.0435-8.8964-.0337-13.3424.0559-8.4539.1707-16.9053.5312-25.3595.6019-5.5416.0463-11.0857-.3168-16.63-.4187-2.6019-.048-5.21.033-7.81.1521-4.7777.2187-9.5494.6139-14.3287.7414-5.609.15-11.2265-.0075-16.835.1531-5.5287.1584-11.05.5607-16.5761.8315-3.91.1916-7.8241.2913-11.73.5294-2.7177.1657-5.4252.4962-8.3058.7693,2.1519-3.4392,3.9728-6.5843,6.0269-9.569,2.2412-3.2568,4.796-6.2979,7.0307-9.559a6.9381,6.9381,0,0,1,7.13-3.2086c2.6438.3111,5.3332.8765,7.9465.6586,4.1182-.3433,4.801.13,4.4748,4.2627-.1527,1.9334-.0261,3.889-.0261,5.8345q.5389.0472,1.0781.0952a19.1788,19.1788,0,0,0,.5127-2.5782c.138-2.118.0754-4.2539.3153-6.3572a2.1368,2.1368,0,0,1,1.4288-1.4738c5.1474-.2721,10.3028-.39,15.4555-.5629,1.31-.0438,1.9123.4245,1.876,1.87-.0432,1.7245.1929,3.4557.308,5.1842q.3537.0063.7074.0132c.0792-1.2395.2612-2.4825.218-3.7175-.1142-3.268.14-3.6333,3.5007-3.7228,3.8269-.1017,7.6566-.0874,11.4846-.1516,1.8889-.0315,2.6363.9159,2.604,2.7311-.0189,1.0656.1246,2.134.195,3.2013q.3178-.045.6355-.0894c.1044-.885.1771-1.7747.3189-2.6534.5492-3.4037.65-3.434,3.9976-3.5314,3.6749-.107,7.3459-.3541,11.0207-.4652,2.4146-.0732,4.8333-.014,7.2612-.014.3254,2.5337.611,4.7556.8965,6.9778a6.3779,6.3779,0,0,0,.981-3.3762c.0948-3.3645.1969-3.6121,3.6347-3.6386,4.7454-.0367,9.4921.1374,14.2386.1651,1.6437.01,2.3362.76,2.4305,2.36.1411,2.3925.3962,4.7781.6027,7.1667q.5043.0345,1.0086.0687c.1094-1.3932.2679-2.7848.3156-4.18.0551-1.615.0128-3.2338.0128-4.886a21.0579,21.0579,0,0,1,3.5-.6806,104.76,104.76,0,0,1,10.959.1784,3.6549,3.6549,0,0,1,3.6076,3.8851,21.5137,21.5137,0,0,0,.7629,4.06l.7627-.1074c0-1.5906.0549-3.1831-.0112-4.7707-.1416-3.3972.8586-4.2914,4.3441-3.9311,2.4306.2513,4.9285.79,7.2953.4642,2.4946-.3428,3.341,1.0344,4.2857,2.66.4859.8357.888,1.7209,1.3153,2.59,1.7512,3.5621,3.4129,7.1722,5.2894,10.6671a22.2747,22.2747,0,0,0,2.857,3.4684l.7866-.4418a12.4938,12.4938,0,0,0-.6337-1.95c-2.71-5.2853-5.55-10.5069-8.1536-15.844-1.6444-3.37-2.1793-3.9129-5.775-3.9129q-47.6435-.0007-95.2869.03c-3.654.0062-7.3058.6106-10.9613.6431-3.4744.0312-6.9523-.3248-10.4288-.5072a7.1343,7.1343,0,0,0-1.1937-.018c-1.2828.1506-2.5566.4087-3.8426.4947a53.2521,53.2521,0,0,1-6.0892.2014c-1.8945-.091-3.7709-.6809-5.66-.71-1.1339-.017-2.7231.2613-3.34,1.0259-2.695,3.3405-5.0924,6.92-7.6335,10.3867a30.0586,30.0586,0,0,1-3.1254,3.9027c-4.4346,4.3032-5.6043,12.3786-13.967,12.1722A.5464.5464,0,0,0,101.754,235.62Z"/>
<path d="m163.83 176.42v24.267h19.916v-6.3626h-13.513v-17.905z"/>
<path d="m249.25 200.34h6.2986v-18.304l7.1049 0.3125v-6.3292h-20.682v6.3462c1.9484-0.0914 3.8254-0.1574 5.6991-0.2753 1.3655-0.0857 1.8843 0.4912 1.8619 1.8654-0.0585 3.5961 0.01 7.1942-0.0286 10.791-0.0197 1.8289-0.1618 3.6568-0.2537 5.5932z"/>
<path d="m210.1 200.34c-2.6461-7.9768-5.2585-15.852-7.92-23.876h-7.8291c-2.5174 8.1179-4.95 15.962-7.41 23.894h5.9649c-0.3729-4.2184 0.4334-5.1424 4.4214-5.1424a10.928 10.928 0 0 0 2.2-0.0225c2.7661-0.5806 3.5583 1.1219 3.9127 3.3086a9.0219 9.0219 0 0 1-0.0731 1.8384zm-15.299-8.9462c1.0118-3.3405 1.98-6.5361 3.1345-10.349 1.2451 3.7183 2.2927 6.8464 3.4654 10.349z"/>
<path d="m359 153.82q-0.3782-0.06-0.7561-0.12c-0.3693 1.8879-1.1467 2.86-3.2487 3.1562-11.087 1.56-22.123 3.48-33.204 5.0829-2.6 0.3758-5.6473 2.2789-7.75-1.4751l-0.4491 0.4325q1.3785 8.7873 2.7572 17.575l0.9 0.1687c0.04-2.9445 2.0832-2.9193 4.0208-3.2156 11.069-1.6925 22.123-3.4839 33.2-5.1254 2.3378-0.3466 5.0711-2.0338 6.78 1.6405l0.5279-0.5327q-1.3893-8.7935-2.7777-17.587z"/>
<path d="m191.27 0c-108.29 0-191.27 84.481-191.27 188.69s82.976 188.69 191.27 188.69 191.56-84.481 191.56-188.69-83.262-188.69-191.56-188.69zm-0.135 370.87c-100.79-0.0285-182.53-81.72-182.49-182.36 0.0481-100.5 82-182.05 182.89-181.99 100.7 0.0559 182.46 81.881 182.36 182.51-0.1032 100.41-81.969 181.86-182.76 181.83z"/>
<path d="M356.0324,217.61a10.1121,10.1121,0,0,0-.406-1.4436c-5.3762-9.2158-10.725-18.4477-16.1636-27.6265-1.957-3.303-1.9722-3.1783-4.2937-.1916-1.175,1.5116-2.9446,2.5752-4.05,4.1235-2.5937,3.6316-4.9127,7.458-7.4329,11.1441-.5048.7385-1.6438,1.07-2.0751,1.8264-.675,1.183-.77,2.7181-1.5123,3.8372-1.6591,2.5-3.5513,4.8466-5.3849,7.2276a11.73,11.73,0,0,1-1.3971,1.3178c.6944.305,1.4.8974,2.0816.8709,7.9891-.3083,15.9716-.803,23.9621-1.0533C344.7932,217.4725,350.236,217.61,356.0324,217.61ZM345.1053,205.77a2.6032,2.6032,0,0,1,1.6944-.2776,34.9488,34.9488,0,0,1,1.4772,3.7478q-.3611.3872-.7223.774c-.9054-.23-2.4336-.2571-2.5893-.7328A7.241,7.241,0,0,1,345.1053,205.77Zm-2.3062-2.3778c-.1807.4307-2.3439.6748-2.5937.31a14.8255,14.8255,0,0,1-1.3792-3.766l.6812-.8c1.1786.2418,2.8209.1094,3.4038.832C343.48,200.6721,343.231,202.3618,342.7991,203.3917Zm.2525,2.3933v3.9776H339.888C339.1433,205.4487,339.4524,205.0609,343.0516,205.785Zm-3.7585-12.2986c2.2706.3388,2.6154,2.2069,3.4933,3.9651h-3.4933Zm-1.8214-5.1619c.683,1.0963,1.1431,1.8349,1.7255,2.7693-1.371.2339-2.5661.4375-4.53.7723Zm.3156,15.5276c-1.8459-.1214-3.76.8933-3.5984-1.88.0746-1.2845-.18-2.8416,1.9114-2.4825C338.9454,199.978,337.1772,202.13,337.7873,203.8521ZM334.1022,193.74c2.1806-.5112,3.54-.4352,3.5738,2.0153.0217,1.5521-.573,2.0713-1.9989,1.8584C332.9064,197.2,334.6553,195.1476,334.1022,193.74Zm.7842,12.18a2.7839,2.7839,0,0,1,2.6206.072c.6115.9471.5921,2.3016.88,3.7285h-4.503C334.2354,208.19,334.2541,206.8451,334.8864,205.9194Zm-4.7864-5.97a3.1176,3.1176,0,0,1,1.9134-.19,30.6393,30.6393,0,0,1,1.1257,4.0771h-3.4256A26.658,26.658,0,0,1,330.1,199.949Zm2.4933,5.8565v3.9661c-.7546.06-1.5912.1264-2.74.2179v-4.0189C330.6924,205.92,331.5365,205.8692,332.5933,205.8055Zm-4.5175.23v4.1965c-.8664.06-1.5854.1095-2.2666.1567C324.1266,206.8838,324.661,205.7862,328.0758,206.0353Zm-6.8974,6.338c.6727-.3063,2.0954,1.0341,3.2942,1.6927.329-.3445.951-1.5363,1.8038-1.7344.8273-.1922,1.8917.6361,2.9678,1.0618,1.37-1.9513,2.4405-2.0275,4.08.0245,1.7811-2.2591,3.9574-2.2347,5.5527.0625,1.7334-2.5682,3.6378-2.4113,5.2172.6218l1.3922-2.7141c1.195.7241,2.3268,1.41,3.5262,2.137.086-.2511.3113-.9087.5421-1.5821,2.4972-.2506,3.18.39,3.879,3.9909H317.3907C318.81,214.5145,319.7939,213.0037,321.1784,212.3733Z"/>
<path d="m138.89 176.41v23.954h6.49v-8.7137c2.4028 0 4.6945 0.1139 6.9707-0.0255 3.8264-0.2339 6.3894-3.1754 6.5186-7.27 0.1337-4.2377-2.2739-7.6554-6.0985-7.8792-4.7175-0.2761-9.4626-0.0657-13.881-0.0657zm14.477 7.7893a3.6937 3.6937 0 0 1-2.1448 2.3241 33.715 33.715 0 0 1-6.0019 0.1092v-4.884c2.1535 0 4.17-0.0465 6.1841 0.015 1.5351 0.0469 2.3775 1.0858 1.9626 2.4357z"/>
<path d="m347.05 229.35q-0.3734 0.2486-0.7467 0.4972c3.0683 2.0688 1.1982 4.0484 0.407 6.0372-0.3015 0.7583-0.6759 1.4871-1.0094 2.2329-3.232 7.2276-6.4624 14.456-9.7437 21.797-0.9022-0.372-1.6507-0.66-2.3826-0.9856-8.0646-3.5856-16.119-7.1934-24.194-10.755-2.0275-0.8942-4.4454-1.3352-3.8351-4.6794-2.1385 1.9786-7.8 15.13-7.3094 16.946 1.3295-2.2262 2.9028-1.4876 4.6407-0.7046 10.356 4.6662 20.748 9.251 31.114 13.895 2.2148 0.9924 5.2117 1.211 5.0393 5.01a11.763 11.763 0 0 0 1.5784-2.6505q8.2023-18.354 16.391-36.713c0.7184-1.61 1.205-3.4624 3.776-3.0411l-0.0125-0.7848q-6.8559-3.0502-13.712-6.1009z"/>
<path d="m115.79 176.43h-8.027v23.937h5.2858v-17.049c2.0533 5.5217 4.0089 10.78 6.1994 16.672l6.2848-16.564v16.924h6.2067v-23.834h-9.0016c0.2677 3.9941-2.1089 6.8986-3.6843 10.21z"/>
<path d="m289.19 106.22c0.0467 1.0514-0.0574 1.4659 0.0948 1.7362 5.0116 8.8947 9.6431 18.037 15.182 26.592 7.1084 10.981 20.064 13.421 31.195 6.6123 11.36-6.9493 14.365-18.15 7.8946-30.225-4.4358-8.2791-9.1322-16.419-13.73-24.61a10.17 10.17 0 0 0-1.0759-1.3405l-0.6923-0.1219c1.2783 3.3035-1.1733 3.8634-2.9426 4.8531q-15.078 8.4354-30.19 16.808c-1.7493 0.9689-3.5034 2.7293-5.7347-0.3041zm38.576-2.8318c2.396 5 4.8579 9.75 6.9146 14.67a7.6251 7.6251 0 0 1-0.0833 4.9923c-1.9806 5.6873-6.5 8.3877-12.181 9.2477-5.04 0.763-8.4174-1.9054-10.85-5.9712-2.0462-3.42-3.9343-6.9351-5.99-10.581 7.3383-4.0866 14.516-8.0837 22.19-12.358z"/>
<path d="m140.04 268.44c0.4462-0.4257 0.26-2.3033-0.304-2.852a69.318 69.318 0 0 0-5.9162-4.7224c-1.08 1.43-1.9422 2.5714-2.9667 3.9279a58.282 58.282 0 0 0 6.1158 4.2849 3.3623 3.3623 0 0 0 3.0711-0.6384z"/>
<path d="m28.009 168.54q16.988 4.2285 34.006 8.34c2.0333 0.492 4.25 0.5942 4.1527 3.739l0.8293-0.1956c1.4025-5.74 2.8051-11.48 4.2545-17.412-1.5858 0.6721-2.7591 1.6675-3.7066 1.4856-4.3094-0.827-8.5553-1.9856-13.013-3.0707 0.178-0.9684 0.2867-1.7592 0.4716-2.532 1.14-4.7626 2.4366-9.4928 3.4222-14.287 2.4291-11.816-7.3672-21.332-18.325-17.786-6.0777 1.9671-8.9339 6.8361-10.407 12.656-2.3438 9.2567-4.591 18.538-6.86 27.814a23.569 23.569 0 0 0-0.3378 2.3441l0.547 0.3688c1.1902-2.5778 3.0343-1.9447 4.9659-1.4637zm11.888-27.383c0.8246-2.5665 2.66-3.2738 5.0062-2.7219 2.7659 0.6506 4.2346 2.068 3.8 4.7791-0.8459 5.2789-2.15 10.484-3.3191 15.98-3.4333-0.8528-6.4156-1.5936-9.8148-2.4381 1.4539-5.33 2.6977-10.527 4.3277-15.6z"/>
<path d="M177.4416,135.3443c-2.8916,4.27-5.7336,8.5758-8.6909,12.8-1.8033,2.5757-3.282,5.443-6.1588,7.1337a8.9065,8.9065,0,0,0-2.668,2.25c-.4745.6452-.1727,1.8367-.6119,2.5368-1.5922,2.5377-3.3545,4.9685-5.0441,7.4458-.4728.693-.9161,1.4061-1.4608,2.2456,2.2461.7111,3.7213.511,4.9749-1.3407,1.9273-2.8468,4.1057-5.5234,6.1776-8.2723l.688.0652c.1246,2.146.1991,4.2965.393,6.4362.1125,1.2435-1.276,3.3577,1.2673,3.3942,2.48.0357,1.3141-2.159,1.4192-3.3917a32.9146,32.9146,0,0,0-.081-5.3953c-.13-1.6248.4938-2.5774,2.0933-2.6584q6.5949-.3331,13.1972-.5124c1.5-.0423,1.8707.9861,1.8846,2.3.0275,2.619.0462,5.2419.2245,7.8526.0436.6376.6908,1.2337,1.06,1.8489.4655-.542,1.2975-1.06,1.335-1.63a62.82,62.82,0,0,0,.1674-8.8035c-.1457-1.9316.4722-2.2761,2.147-2.1412,1.7047.1372,3.4262.0787,5.14.0827,3.649.0088,7.2979.0028,11.08.0028v12.1039c2.2208.8708,3.2447.3511,3.2281-1.7034-.01-1.2228-.0686-2.4488-.1788-3.6666-.1892-2.09-.4358-4.1755-.6635-6.3112,6.1469-1.8132,12.1253-1.57,18.0543-1.0733a3.7108,3.7108,0,0,1,3.562,3.8894c.06,3.0441.5323,6.08.826,9.12l.6764.1829c.3159-.5914.8713-1.1708.9022-1.7767.0909-1.7832-.0915-3.5786-.0414-5.3655.04-1.4267.2639-2.8483.4063-4.2722l1.2211-.3488c2.2457,3.06,4.9013,5.9122,6.5964,9.2517,1.1766,2.3181,2.4448,2.7031,4.718,2.4063-2.4909-4.1488-4.8074-8.1-7.2163-11.9946-2.6576-4.2961-5.4454-8.5118-8.0917-12.8148-2.3539-3.8272-4.5972-7.7228-6.8779-11.595-.7838-1.3305-2.18-2.4211-1.4552-4.3461.1171-.3111-.7842-1.0544-1.2757-1.5356a22.1674,22.1674,0,0,1-2.8544-2.7254,50.0159,50.0159,0,0,1-3.3483-5.6638c-2.8533-5.4718-7.5666-9.8389-9.3825-15.9647-.2256-.7613-1.9988-1.0636-3.0549-1.5786-.3.7224-.622,1.4367-.8934,2.17a7.6768,7.6768,0,0,1-.5553,1.73c-2.8756,4.1145-5.6473,8.3168-8.7722,12.2359-1.9382,2.4308-4.4467,4.4046-6.6749,6.608a4.9345,4.9345,0,0,0-1.4749,1.8137c-.4359,1.5978-1.3137,2.0025-2.8665,1.8162a2.7211,2.7211,0,0,0-3.3969,2.5539c3.3387,1.0614,3.3348,1.0579,1.0536,3.6026A9.1223,9.1223,0,0,0,177.4416,135.3443Zm40.63-2.9633c1.9721,2.8433,3.9967,5.6636,5.7533,8.64,2.217,3.756,4.1954,7.6529,6.5958,12.0775-7.6362.8737-14.6966.23-21.7716.4215-.257-6.8649-.5448-13.4677-.677-20.0739-.0109-.5465.9879-1.5346,1.5922-1.5971a63.8086,63.8086,0,0,1,7.0966-.22A2.0016,2.0016,0,0,1,218.072,132.381Zm-14.3983-24.9965c4.1983,7.2042,7.91,13.5729,11.812,20.2684h-7.818c-.28-.5532-.6691-1.3212-1.4279-2.82.0269,3.6108-2.1632,3.4314-3.9991,3.3862-4.4908-.1107-8.9768-.416-13.9848-.6694ZM189.33,131.5328c2.29.0417,4.58.01,6.87.01l0,.2137c2.4541,0,4.9175-.119,7.3561.0752.698.0554,1.8524.9769,1.8976,1.57.3075,4.0341.3633,8.0872.5233,12.1332.0835,2.1075.3613,4.2218.2391,6.3148a2.5989,2.5989,0,0,1-1.6405,1.8928c-2.3955.2454-4.828.113-7.2458.1629a59.972,59.972,0,0,0-6.4431.2629c-2.0432.2646-3.02-.2521-3.1563-2.35-.3768-5.8193-.6652-11.6445-1.057-17.4625C186.5392,132.3558,187.3631,131.4971,189.33,131.5328Zm-5.6085,5.4657a13.4673,13.4673,0,0,1,.2132,1.64c.0495,4.3938-.0024,8.7907.146,13.1811.0588,1.7384-.542,2.1957-2.208,2.3048-4.0348.2644-8.0539.7693-12.04,1.1733C169.015,152.0935,180.391,137.2641,183.7217,136.9985Z"/>
<path d="m281.57 180.8a2.8121 2.8121 0 0 1-1.3635-0.0058c-2.437-1.0781-4.3973-0.6968-6.0958 1.3937a11.611 11.611 0 0 0-2.5156 8.4932c0.3756 4.8483 3.477 6.5225 7.7511 4.2624 2.0827 1.6745 4.4569 1.4586 6.738-0.6124 4.5512-4.1325 4.83-13.121 0.3305-17.318a10.7 10.7 0 0 0-4.8914-2.546c-5.6364-1.1626-10.395 1.4539-12.811 6.6975a18.174 18.174 0 0 0-1.2286 11.977 12.404 12.404 0 0 0 19.274 7.1172 26.4 26.4 0 0 0 3.5364-3.8522q-0.3862-0.5655-0.7726-1.1311a15.333 15.333 0 0 0-2.98 1.7472c-4.9382 4.6283-13.976 2.8978-16.293-3.2692a13.936 13.936 0 0 1 1.5188-12.903 8.9016 8.9016 0 0 1 10.201-3.4327c3.118 0.9087 5.1066 3.6733 5.3584 7.45 0.2422 3.6331-1.6614 7.11-4.5552 7.8635 0.6543-4.0708 1.2908-8.03 1.9944-12.407-1.3508 0.2048-2.2705 0.3655-3.1961 0.4762zm-2.5885 10.936a3.0465 3.0465 0 0 1-2.5364 1.2255c-0.609-0.0774-1.5014-1.3759-1.4987-2.1279a14.814 14.814 0 0 1 0.8441-5.457c0.418-1.0229 1.9162-1.6043 2.9293-2.3841 0.7456 1.0376 1.4911 2.0755 2.2131 3.08a38.579 38.579 0 0 1-1.9514 5.6635z"/>
<path d="m248.31 274.82c3.9 0.0375 7.4439-3.2657 7.4488-6.9443a5.973 5.973 0 0 0-5.9085-5.94c-3.7635 0.0513-7.487 3.6446-7.4025 7.144a5.9826 5.9826 0 0 0 5.8622 5.7403z"/>
</svg>
