<?xml version="1.0" encoding="UTF-8"?>
<svg viewBox="0 0 770 768" xmlns="http://www.w3.org/2000/svg">
<path d="m65.058 170.06c5.9342-5.9227 9.8072-13.395 14.982-19.906a406.94 406.94 0 0 1 53.571-56.307 387.12 387.12 0 0 1 62.327-43.907 394.62 394.62 0 0 1 88.149-36.169 386.81 386.81 0 0 1 59.253-11.254 325.37 325.37 0 0 1 58.102-1.9736c22.629 1.4508 45.116 4.1053 67.358 9.1086a390.96 390.96 0 0 1 101.07 37.996 373.81 373.81 0 0 1 62.196 42.368 377.94 377.94 0 0 1 70.235 77.266 23.353 23.353 0 0 0 2.6062 2.7659c0.31 1.9934 1.6617 3.4394 2.6973 5.0378 31.785 49.057 51.9 102.52 58.923 160.54q16.847 139.18-58.847 257.56c-1.0257 1.604-1.8494 3.3369-2.7674 5.01-7.693 9.6041-14.651 19.763-22.508 29.256a399.34 399.34 0 0 1-46.716 47.661 383.3 383.3 0 0 1-142.83 77.464 418.92 418.92 0 0 1-49.987 11.146c-10.393 1.6681-20.994 1.9957-31.458 3.2741-11.849 1.4473-23.723 0.9549-35.578 0.8134-18.565-0.2213-36.953-2.3807-55.295-5.3769a385.32 385.32 0 0 1-224.63-125.1 330.27 330.27 0 0 1-28.257-36.358 21.823 21.823 0 0 0-2.5908-2.78c-0.3043-2-1.6995-3.42-2.7319-5.0166-33.398-51.63-53.801-107.98-59.859-169.16q-13.364-134.98 60.189-249.32c0.9417-1.4643 2.2191-2.7756 2.4041-4.6403z" fill="#231f1e"/>
<path d="m384.82 751.39c-203.06 0.01-367.96-164.73-367.87-367.51 0.0912-202.42 165.13-366.98 367.99-366.92 203.24 0.0621 368.18 164.62 368.12 367.28-0.0605 202.72-164.96 367.14-368.24 367.15z" fill="#fefefe"/>
<path d="m384.79 741.89c-198.2-0.096-358.56-160.44-358.41-358.39 0.1436-197.46 161.16-357.26 359.79-357.09 197.5 0.1729 357.72 161.08 357.43 358.94-0.2891 196.79-161.14 356.62-358.81 356.53z" fill="#2f3938"/>
<path d="m417.76 185.46c5.5964 0.19 10.768 2.39 16.15 3.422 9.2015 1.7646 17.9 4.8666 26.536 8.2346 14.336 5.5911 27.523 13.214 40.277 21.881 14.992 10.189 27.578 22.864 39.523 36.174a166.3 166.3 0 0 1 22.098 32.066 227.07 227.07 0 0 1 12.85 27.962c2.7194 7.1988 4.3661 14.803 6.48 22.23 0.0862 0.3028 0.03 0.6434 0.0929 0.956 1.819 9.1081 1.82 9.114-7.46 9.1067q-41.194-0.0324-82.389-0.0734c-2.4512-0.548-3.65-2.5254-4.8369-4.4117-12.136-19.286-24.499-38.434-35.748-58.264-1.431-2.5227-3.0795-4.8937-4.5913-7.3569-1.5942-2.5973-3.3735-5.1513-3.4329-8.3618a3.5476 3.5476 0 0 0-2.6192-3.5936c-2.7633-0.999-4.1005-3.18-5.44-5.722-5.5459-10.523-12.174-20.406-18.703-30.333-2.2174-3.3713-4.5387-6.6353-5.6416-10.568-0.5948-2.1207-1.953-3.4512-4.1082-3.401-2.6128 0.061-1.43 2.3612-1.8073 3.714a6.0274 6.0274 0 0 1-0.9452 2.1927c-8.5419 10.816-14.941 23.235-24.843 33.042-3.5937 3.5591-8.4048 5.8255-10.752 10.771-0.8972 1.8908-3.4493 1.1821-5.35 1.2887-1.6484 0.0927-3.5373 0.5128-3.941 2.2-0.4094 1.7106 1.6593 1.5479 2.6905 2.0723 3.1278 1.5906 2.8075 3.4312 0.6436 5.6342-7.6977 7.8364-13.033 17.399-19.178 26.369-4.5223 6.6006-8.411 13.742-15.696 17.942-2.3171 1.3357-4.1277 3.0764-3.8654 6.1256 0.1209 1.4064-0.9193 2.3188-1.6588 3.3666-3.4977 4.9561-6.5206 10.22-10.116 14.826 1.2042 2.1221 3.9078 0.7149 4.5314 2.9182-4.6324 1.8644-9.132-0.4843-13.735-0.4644-36.914 0.16-73.83 5e-3 -110.74 0.1947-4.6787 0.024-6.5147-1.29-5.6663-5.8979 1.0148-1.81 0.9449-3.9731 1.8911-5.8054 1.3049-7.6542 4.1728-14.827 6.7109-22.112a173.3 173.3 0 0 1 24.126-45.641c9.2219-12.552 19.174-24.539 31.306-34.795 15.777-13.338 32.623-24.632 51.391-33.108a211.94 211.94 0 0 1 24.427-9.14c10.589-3.2907 21.42-5.2158 32.265-7.1528 3.2793-0.5856 6.7136-0.3035 10.077-0.4188 1.3761-1.1115 3.0239-0.9213 4.6141-0.926q10.833-0.0326 21.666 0c1.59 0.0047 3.2378-0.1845 4.6153 0.9236l8.6454 0.0446c3.1296 1.0902 6.5933 0.4767 9.6605 1.8894z" fill="#1b663d"/>
<path d="M367.5914,544.2018c-15.2721-.3532-29.54-4.9942-43.5608-10.4643a143.8848,143.8848,0,0,1-35.0429-19.6469c-6.9549-5.304-14.104-10.519-19.8022-17.2973-2.4431-2.9063-4.33-3.2238-7.39-.356-7.6881,7.2069-15.95,13.8007-23.1921,21.4939-2.03,2.1569-4.0112,2.6618-5.9535.0609-6.94-9.2932-14.6167-18.0521-20.5157-28.1a50.7571,50.7571,0,0,1-2.2283-4.9633c2.16-1.0648,4.448-.27,6.5541-.6808a13.6452,13.6452,0,0,0,8.598-1.5372c3.0065-1.5409,6.451-1.6425,9.8312-1.6329,6.8607.0195,13.7216.0022,20.5832-.0127a13.7494,13.7494,0,0,0,5.5619-.5916,53.62,53.62,0,0,1,9.1862-.3947c5.2684-.0327,10.5508.5473,15.7941-.3917a9.485,9.485,0,0,1,1.6158-.3324c2.9418-.309,5.9587.2463,8.8405-.7782,4.5239-.8,9.1453.2131,13.66-.7466a8.2358,8.2358,0,0,1,3.0954-.0892,9.887,9.887,0,0,0,6.5088-.085,8.2145,8.2145,0,0,1,1.5508-.2753c4.3421-.3787,8.7554.4812,13.0377-.8281,11.511.0625,22.9518-2.4087,34.5321-.5732,6.8554,1.0866,13.7045-1.0823,20.62-.9277,2.0632.0461,4.1276.2014,6.1933.2349,5.0026.0925,10.0052.03,15.0072.0382,1.7567.0061,3.5136.0113,5.27.0029q5.671.0284,11.3411-.0051c3.6734-.0534,7.3483-.1785,11.0179.011,3.83-.2765,7.76.831,11.4947-.8151a3.8344,3.8344,0,0,1,1.4643-.3924,4.0134,4.0134,0,0,1,1.4532.2807,18.7829,18.7829,0,0,0,12.44.2161,7.1591,7.1591,0,0,1,1.3753-.6651,12.2752,12.2752,0,0,1,3.9391-.5282c29.27-.0468,58.5335-.5466,88.6743-.3845-2.3207-2.4467-4.5669-2.5117-6.6674-2.5326-14.8938-.1478-29.7041-2.7191-44.6049-1.8746-8.9993.51-17.9341-.457-26.9-.2312a14.9862,14.9862,0,0,0-5.6116.5975c-7.0041.9827-14.1123-.7523-21.0956.8229-11.1918.8228-22.3326-.775-33.509-.7087a29.2919,29.2919,0,0,0-6.159.9921,12.2649,12.2649,0,0,1-2.4391.0843,11.5264,11.5264,0,0,1-2.3583-.3524,80.1218,80.1218,0,0,0-20.4855-.22,6.1052,6.1052,0,0,1-1.51.04c-8.2977-.9186-16.5923-1.5608-24.8546.3736-10.9469.18-21.8591,1.9214-32.8376.5654-3.181-.3929-6.3013.9931-9.5141.68-6.5543-.1618-13.115-.49-19.6239.6834a42.7219,42.7219,0,0,1-15.8984.9428c-1.99-.8323-4.4137-.3523-6.1337-1.9985-2.298-1.7311-4.9614-.8773-7.4576-.9349-5.6138-.13-11.2327-.04-16.85-.0394,6.3888.0106,12.7778-.0243,19.1662.0232,1.7243.0129,3.5676-.41,5.0717.9387a.9843.9843,0,0,1-.2547,1.4459c-5.56,1.7846-11.2716.5079-16.9.8588-2.0436.1273-4.1021.0248-6.1492.0317-2.4484.1886-4.9559-.3081-7.3452.61-4.6457,1.7-9.5068,1.3764-14.3024,1.3367-3.5283-.0292-4.3872-1.6892-2.1921-4.6,8.9733-11.898,15.884-25.2287,25.6713-36.5664,5.7128-6.6179,12.919-5.4689,20.0235-4.13a33.6105,33.6105,0,0,0,10.4568.7266c6.1264-.7434,8.9674,2.102,8.43,8.3881-.2316,2.7113-.8974,5.3971.18,8.13.4478-3.4541.1775-6.9552.4284-10.4212.3488-4.82,1.6784-6.1162,6.4348-6.6937a131.8588,131.8588,0,0,1,31.1722-.329c2.2864,1.2462,2.0226,3.32,1.7576,5.3906-.0825,2.2024-.6525,4.4348.3186,6.5489,1.5274-1.9621.5838-4.2062.8242-6.2887.2133-1.8471-.195-3.8194,1.2805-5.3659a5.5624,5.5624,0,0,1,2.8167-.8311c3.2389-.3726,6.5926.6813,9.7369-.8176a6.1719,6.1719,0,0,1,1.4078-.6946c5.49-.8995,10.9224,1.0879,16.4318.3247,1.0468-.145,1.9911.8439,2.7765,1.6361,2.4759,2.7367,1.5385,6.2341,2.0609,9.3292.1116-1.783.052-3.65.1117-5.5282.3435-4.5149,3.0326-6.2551,7.27-6.2427,2.5138.0073,5.0286.0052,7.5413-.0586,4.26.0187,8.551-.5987,12.7528.5645,3.6371,3.48,8.05.896,12.01,1.9006-3.4669-.9434-7.3575,1.5759-10.5394-1.6906,4.7457-3.0417,9.825-1.7633,14.7965-1.0072,1.534.2333,1.9523,1.9809,2.3416,3.3843a18.24,18.24,0,0,1,.6406,6.8755c.78-9.0141.78-9.0141,4.9429-8.9923,5.6623,1.43,11.2985,1.7922,16.8913-.2939a6.5706,6.5706,0,0,1,1.4743-.4871,109.0526,109.0526,0,0,1,12.4471-.1611c5.34.1093,6.6242,1.4841,6.8665,6.9834a38.0545,38.0545,0,0,0,.8664,8.7553c.3406-4.2867.0018-7.4975.3137-10.6624.1775-1.8018-.0622-4.0774,2.7775-4.1951,1.2193,1.0154,1.4486,3.7657,4.337,1.4736,1.6662-1.3223,4.6149-.3385,6.9841-.4479,2.183-.1007,4.4675.3008,6.3759-1.2383,2.7657-1.0055,5.7007-.8586,8.5414-.984,4.59-.2026,8.04,3.2391,8.4534,7.934a15.2607,15.2607,0,0,0,.8711,4.6519c1.1763-4.6589-1.9335-10.4947,3.9422-13.7674a28.39,28.39,0,0,1,10.5464-.2046,24.8711,24.8711,0,0,0,10.6341.3777c4.815.0938,7.59,3.01,9.1685,7.1136,3.5019,9.1053,9.6293,16.8647,13.1249,25.9635a9.3078,9.3078,0,0,0,2.33,2.9814c.323.2408.7665.779,1.0514.5249.5333-.4758-.13-.9627-.3273-1.4468-4.7361-9.7583-10.3432-19.0533-14.962-28.8482-1.4294-3.0316-3.4477-5.76-4.4882-8.9777a2.1793,2.1793,0,0,1,.1854-1.3714c1.8935-1.1307,3.9865-1.03,6.0787-1.0275,12.5259.0147,25.0569.2141,37.5751-.098,4.6412-.1157,6.574,1.2067,5.7126,5.8676-1.2591,1.7323-.3612,4.1659-1.8891,5.8109-.9555,8.0071-3.9445,15.4667-6.7,22.91a200.0065,200.0065,0,0,1-18.5144,37.21A241.1531,241.1531,0,0,1,536.7517,518.77c-1.5834,1.884-2.9874,1.9619-4.6375.0388-7.1211-8.298-16.4788-14.2011-23.8821-22.1785-2.7476-2.9607-4.6427-2.9276-7.3947.0142a160.5067,160.5067,0,0,1-76.4961,43.9751c-7.2783,1.6609-14.4117,3.8549-21.9822,3.5849a5.4275,5.4275,0,0,1-3.6535.9281q-13.7312.03-27.4621,0A5.4029,5.4029,0,0,1,367.5914,544.2018Z" fill="#1b663d"/>
<path d="m384.85 178.35c-98.093 0.148-182.43 68.117-201.85 164.49-13.279 65.893 2.9029 125.03 46.449 176.4 2.8643 3.3785 2.7483 4.9438-0.458 7.7226-6.9759 6.0457-6.9112 6.2885-12.842-0.9067-37.965-46.06-55.47-98.83-51.148-158.46 7.238-99.857 81.612-182.16 180.55-200.21 118.39-21.601 232.7 55.537 255.88 174.21 13.804 70.681-4.2179 133.85-51.145 188.65-1.9463 2.2727-3.0994 2.7741-5.5456 0.4519-7.4768-7.0978-7.5628-6.9566-1.0623-14.894q50.5-61.66 47.465-141.31c-3.6247-93.052-73.24-174.03-164.67-192.02a213.86 213.86 0 0 0-41.622-4.1194z" fill="#fefefe"/>
<path d="m384.91 605.03c-60.627-1.0143-112.83-22.3-156.32-64.809-3.1415-3.0706-2.8834-4.5418 0.2029-7.33 11.202-10.119 22.205-20.462 33.103-30.908 2.4862-2.3833 3.7263-2.6 6.3694 0.0216 24.819 24.619 54.528 40.406 89.021 45.718 54.886 8.4508 103.01-6.4135 143.48-44.778 3.1342-2.9716 4.7534-3.1247 7.844-0.1488 10.874 10.47 21.983 20.699 33.128 30.883 2.343 2.141 2.8471 3.4033 0.2789 5.9335-36.046 35.513-78.916 57.033-129.22 63.511a219.31 219.31 0 0 1-27.89 1.9067z" fill="#fefefe"/>
<path d="m517.57 174-32.27-10.653-0.6474-1.5525c7.8668 1.5 7.5346-4.36 8.8921-8.3852 5.4262-16.09 10.656-32.246 15.938-48.385 0.334-1.02 1.1957-1.9766 0.2314-3.8056-16.049 17.218-31.942 34.268-48.501 52.033l-7.5438-71.44-0.8738-0.1q-5.4615 16.483-10.923 32.967c-2.4684 7.4489-4.8455 14.93-7.4473 22.332-1.2352 3.5136-2.3086 6.7477 2.1794 9.2946-10.12-1.6753-19.269-5.4983-29.027-9.0073 7.103-0.04 7.0018-5.5291 8.4027-9.7662 7.09-21.442 14.109-42.908 21.283-64.323 1.2119-3.6178 2.6275-6.9435-2.0921-9.03 1.3081-1.8135 2.6082-0.881 3.6509-0.5423q18.052 5.8636 36.048 11.899c0.9534 0.32 2.6058 0.06 2.6562 1.5543 0.0661 1.9625-1.6353 0.82-2.5241 1.0963-1.567 0.4872-2.49 1.358-2.328 3.1217 1.1539 12.565 2.2964 25.132 3.5434 38.802 9.3941-9.7873 17.903-18.709 26.485-27.561 2.8706-2.9609 1.2321-5.07-1.3755-6.6132 1.0077-1.8646 1.9382-1.1225 2.7722-0.8487 12.783 4.1974 25.568 8.3857 38.328 12.653 1.0689 0.3574 3.0618 0.0242 2.8926 1.8155-0.1632 1.7289-1.7862 0.6937-2.772 0.7435-1.9669 0.0991-2.7109 1.4013-3.2449 3.0206-8.0249 24.336-15.989 48.693-24.17 72.976-1.1833 3.5125 1.4966 4.6691 3.1794 6.5942q-0.3707 0.5556-0.7413 1.1105z" fill="#fefefe"/>
<path d="m150.75 146.87c0.338-2.4762 1.936-2.88 3.0086-3.6791q23.368-17.414 46.808-34.733a63.545 63.545 0 0 1 16.302-9.1549c9.1366-3.26 17.431-1.9758 24.55 4.7469 7.7386 7.3077 12.686 15.779 10.061 26.995-1.2987 5.549-4.0252 10.432-7.7848 15.728 13.406 3.681 25.706 9.6561 40.496 11.512l-28.874 21.412c2.9951-6.5291-1.865-7.2052-5.5375-8.3919-8.3847-2.7094-16.857-5.1518-25.216-7.9348-2.5476-0.8482-4.2011-0.01-6.0287 1.4721-3.233 2.6214-8.7713 4.7525-9.2523 7.7465-0.4711 2.9324 4.1214 6.7129 6.5624 10.07 2.8329 3.8958 5.7764 7.7112 8.6043 11.611 1.2512 1.7253 2.5848 2.7941 4.8453 1.821 0.72-0.31 1.7095-1.3974 2.3548 0.09 0.4249 0.98-0.5018 1.3985-1.1066 1.8483q-12.369 9.1978-24.764 18.36c-0.5993 0.443-1.2542 1.27-2.0648 0.5765-1.1133-0.9517-0.1473-1.7022 0.492-2.3477 1.8088-1.8259 0.9666-3.3894-0.2905-5.0751-15.263-20.466-30.575-40.896-45.658-61.493-2.2577-3.0838-4.6672-1.4487-7.5074-1.1792z" fill="#fefefe"/>
<path d="m386.05 723.86c-11.239-0.22-21.755-2.2579-33.008-4.3755 7.9155-1.9908 3.8438-5.4592 1.8423-8.44-12.242-18.234-24.544-36.428-37.4-55.486-1.3412 8.3254-2.5823 15.922-3.7849 23.525-1.2284 7.7659-2.3839 15.543-3.64 23.304-0.6549 4.0452-2.0256 8.2422 3.9925 10.18q-0.4365 0.5678-0.8731 1.1355l-31.766-4.8054c7.9143-2.8942 5.93-10.162 6.87-15.634 3.53-20.556 6.5456-41.2 9.7034-61.82 0.5992-3.9124 2.452-8.3252-4.07-10.062l0.9864-1.1905 41.612 6.3948c-6.7341 3.2218-6.7895 3.2562-3.2973 8.8739 9.1525 14.723 18.789 29.128 28.69 43.357 0.5108 0.7341 0.7784 1.801 2.4143 1.9864q2.5869-16.472 5.1742-32.976c0.3957-2.5363 0.5324-5.132 1.1514-7.61 0.7518-3.0089 0.835-5.6333-2.3536-7.811 10.609 0.2454 20.67 2.3619 31.194 4.485-7.0531 1.1084-6.1183 6.5509-6.8146 10.994-3.4282 21.877-6.9059 43.746-10.148 65.65-0.525 3.5429-3.4687 8.3691 3.5248 10.324z" fill="#fefefe"/>
<path d="m654.02 180.63c2.2186 0.6695 2.43 2.0772 3.0229 3.1333q13.062 23.281 26.071 46.592c4.932 8.8526 8.1878 18.23 7.0275 28.502-1.96 17.355-15.808 32.252-34.374 37.458-17.491 4.9051-35.207-1.0786-46.719-15.83a48.877 48.877 0 0 1-4.1056-5.9345q-13.487-23.869-26.811-47.83c-0.4414-0.7935-1.9328-1.7283-0.55-2.8564 1.1617-0.9475 1.6444 0.3806 2.2063 0.9877 1.4878 1.608 2.9777 1.3984 4.736 0.4166 22.537-12.584 45.062-25.192 67.686-37.619 3.2137-1.765 1.4215-4.4351 1.8098-7.0199z" fill="#fefefe"/>
<path d="m68.819 507.69c3.5083 4.4025 6.6537 2.3371 10.097 0.3665q30.47-17.438 61.095-34.603c3.4254-1.9145 6.3236-3.6513 4.8-8.15 2.24-0.514 2.3719 1.2072 2.9241 2.1709q13.509 23.576 26.897 47.221c3.65 6.4721 6.3735 13.336 6.8735 20.839 1.3981 20.977-13.343 39.673-35.54 45.229-19.698 4.93-38.617-3.4831-50.044-22.768-9.151-15.444-17.84-31.162-26.717-46.768a24.18 24.18 0 0 1-1.0755-2.4771z" fill="#fefefe"/>
<path d="m205.35 561.94c3.5731-0.1658 4.73 1.3227 6.1081 2.29q29.945 21.002 59.841 42.074c3.571 2.5083 6.8038 6.801 12.081 1.8326q0.2511 0.6447 0.5021 1.2893-4.7323 6.6933-9.4647 13.387c-2.13 3.0121-4.2436 6.0357-6.4044 9.0254-0.4342 0.6007-0.86 1.5091-1.8625 1.0807-1.078-0.4607-0.64-1.3042-0.2868-2 1.0767-2.12 0.4021-3.5374-1.4859-4.858-14.584-10.2-29.122-20.465-43.897-30.866-2.687 3.8372-7.3028 7.5441-7.24 11.169 0.06 3.4624 6.2342 5.2224 9.6492 7.8223 3.4441 2.6217 7.016 5.085 10.622 7.4822 3.708 2.4649 6.8615 6.8394 12.666 2.8517q0.112 0.7617 0.2239 1.5235l-15.264 21.523-1.2167 0.1056c1.1066-6.0722-3.3977-7.8724-6.9161-10.38-6.14-4.3754-12.382-8.6093-18.46-13.067-2.1476-1.575-3.2826-2.0126-5.1639 0.651-7.1743 10.158-7.3029 10.067 2.9419 17.274 10.234 7.1994 20.506 14.345 30.679 21.629 3.3282 2.3833 6.3883 5.22 10.356 0.2536q0.4437 0.7156 0.8872 1.4316-8.3322 11.797-16.664 23.594c-0.3173-5.6865-4.9767-7.1141-8.3518-9.5032q-29.853-21.133-59.8-42.134c-1.2991-0.915-2.55-1.8978-3.8193-2.8457 0.2848-0.4327 0.5279-0.9275 0.606-0.9026 4.8013 1.5241 6.8624-1.5666 9.2236-4.9459 13.231-18.937 26.652-37.74 39.97-56.617 2.1334-3.0233 5.9321-5.9433-0.0603-10.171z" fill="#fefefe"/>
<path d="m149.14 334.22q-4.1352 16.828-8.27 33.657l-1.34 0.4952c0.4407-6.6846-4.2575-6.5925-8.3338-7.585-22.733-5.5349-45.436-11.191-68.167-16.732-2.1834-0.5323-4.6783-2.0048-6.5331 0.788-0.5676 0.8547-0.7606 2.4837-2.2921 1.5466-1.0333-0.6322-0.1521-1.7743 0.0488-2.5945 4.88-19.924 9.2926-39.982 14.883-59.706 5.6935-20.089 24.924-28.224 41.957-18.665 10.575 5.9347 15.857 18.176 13.08 31.561-2.0822 10.038-4.6745 19.974-7.2515 29.901-0.7555 2.91-0.344 4.1994 2.8439 4.8238 5.97 1.17 11.851 2.7963 17.769 4.2289 3.856 0.9334 7.969 3.2746 10.54-2.9191z" fill="#fefefe"/>
<path d="M306.1288,63.529l43.5694-7.8127c-4.0176,4.016-.8671,6.84.9407,9.7024q20.5529,32.5431,41.158,65.0533c1.7011,2.6871,3.39,5.3949,6.85,6.3133l-.0524,1.2245-32.7662,6.0038c4.17-4.28.5584-7.1883-1.2493-10.1813-5.2174-8.6383-5.2443-8.5418-15.127-6.6734-8.6653,1.6381-17.3578,3.1378-26.0555,4.5957-2.63.4409-4.2464,1.3139-4.43,4.4-.2083,3.5035-1.0675,6.966-1.5943,10.4538-.1625,1.0758-.53,2.2386.4743,3.1538.7344.6695,2.7271-.0947,2.3824,1.6164-.32,1.5867-2.0769,1.13-3.2681,1.3478-7.8859,1.4427-15.7785,2.8486-23.6643,4.2922-.7961.1456-1.7534.53-2.2426-.1847-.7528-1.1.2894-1.6433,1.0624-2.2144,1.702-1.257,1.99-3.15,2.3526-5.0749,4.9894-26.4687,9.9114-52.9513,15.1624-79.3682C310.353,66.545,308.4745,65.6107,306.1288,63.529Z" fill="#fefefe"/>
<path d="m528.88 586.43 34.746-29.921c-2.3411 6.461 1.5084 7.4463 4.7727 9.112q34.032 17.364 68 34.852c2.9509 1.5108 5.8342 3.4341 9.6145 1.9438q0.2348 0.6669 0.47 1.3336l-25.361 21.801c1.2707-4.7667-1.6568-5.9674-4.7569-7.5393-10.225-5.1847-10.171-5.2766-18.717 2.0824-6.5692 5.6571-13.104 11.356-19.761 16.908-1.7652 1.4724-2.2391 2.7363-1.2019 4.8819 1.25 2.5856 2.0953 5.3658 3.1327 8.0552 1.0872 2.8184 1.5581 6.4173 6.577 5.4526q-10.819 9.3027-21.639 18.605c-0.5313 0.4565-1.1731 0.6551-1.7046 0.15a1.3471 1.3471 0 0 1-0.0928-1.7312c1.14-2.2377 0.2742-4.3419-0.5009-6.4755q-13.532-37.247-26.996-74.518c-1.0524-2.9217-1.5872-6.143-6.5235-3.4673q-0.0292-0.7624-0.0585-1.5246z" fill="#fefefe"/>
<path d="M316.5139,347.871c-2.1762-.4061-5.384,1.0179-6.3665-.77-1.3554-2.4673,2.0046-3.8853,3.2837-5.7836,3.0151-4.4745,5.63-9.1967,8.9174-13.5248,1.0932-1.439-.3875-4.2728,1.9621-6.2648,1.558-1.3212,3.34-2.2247,4.9348-3.3707,6.5972-4.7417,9.539-12.1345,14.2007-18.277,6.0981-8.0355,10.5992-17.2657,18.046-24.2893.7786-.7344,2.0636-1.3419,1.82-2.6324-.1954-1.0356-1.3488-1.255-2.2734-1.429-1.7917-.3368-4.862-.0693-4.3944-2.2752.3945-1.861,2.9775-4.4181,5.3782-4.0519,4.7109.7185,6.4175-1.1148,8.3138-5.2766,1.33-2.92,5.7268-4.0068,8.353-6.7686,6.3593-6.6873,11.5038-14.1681,16.5048-21.8328,2.3443-3.5929,5.0585-6.9513,7.7183-10.3267.732-.9289,1.4243-1.6682,1.0305-2.9463-.5388-1.7486-1.019-4.04,1.33-4.2922,2.25-.2412,5.8957.344,6.2743,2.4942,1.7962,10.2,9.9226,16.6372,14.302,25.2708,3.4459,6.7933,8.8213,12.5469,11.4529,19.866.0535.1486.0747.3962.17.43,9.27,3.2688,8.031,13.5687,13.1193,19.8181,5.391,6.6213,8.8226,14.8137,13.3343,22.1826,4.0646,6.6389,8.801,12.8882,12.56,19.6859,3.536,6.3939,7.3328,12.5608,11.4323,18.5951,1.26,1.8552,2.9387,3.3536,4.0037,5.32l.0353-.0015c-2.1289,1.0723-4.3708.3547-6.5636.4146l-1.9838-1.3372a35.6881,35.6881,0,0,1-6.97-9.81c-1.5567-3.2214-4.2222-5.4769-6.3844-8.1669a2.63,2.63,0,0,0-3.4222-.6868,4.4615,4.4615,0,0,1-2.3842.6862,22.0833,22.0833,0,0,1-2.5911-1.5357,20.7363,20.7363,0,0,0-2.4888-1.61c-1.6531-.7974-3.4631-1.3-4.8451-2.5915a6.8571,6.8571,0,0,1-.551-1.0135c-6.99-.0575-13.9638-.0464-20.9264.1394-1.0587.0283-2.4825-2.0825-3.392.2111a3.2976,3.2976,0,0,1-2.5389,1.5222c-6.6712.9608-6.766,1.0758-6.0487,7.8548a81.741,81.741,0,0,1,.2142,10.4715c-.138,6.0993-.8409,6.5988-7.18,5.455l.034.0378c-1.7535-2.75-1.0646-5.8486-1.2331-8.818a118.5547,118.5547,0,0,0-1.1175-13.11c-2.6975-1.6341-5.645-.5211-8.4513-.815-2.4963-.2613-5.1425.5592-7.4447-1.0641-.081-3.009,2.33-2.3567,3.9485-2.4986,3.9245-.3439,7.8876.23,11.7884-.3651,1.2026-.788.3585-1.5416-.0693-2.3014a3.8945,3.8945,0,0,1-.6638-2.8944,7.2149,7.2149,0,0,1,2.1841-2.1757c1.3374-1.4471.5373-3.0893.4184-4.67a6.5488,6.5488,0,0,1,.0331-1.3435,13.4143,13.4143,0,0,0-.4252-6.8329,22.8136,22.8136,0,0,1-.0917-7.3147c.7294-3.2319,4.3178-6.593-.4452-9.5848a5.6225,5.6225,0,0,1-.0912-7.2941c.7385-.7864,2.7592-.7318,1.905-2.5668-.73-1.5689-2.0726-.9316-3.2686-.5572-8.9505.8108-17.9142.1967-26.8673.3773-6.3893.1288-7.32,1.0477-6.6121,7.4146.5873,5.2788-.6013,10.5157-.0376,15.8052.5078,4.7649,1.4154,9.4757,1.7567,14.26a6.4289,6.4289,0,0,0,2.1422,4.1828,12.6551,12.6551,0,0,1,2.4513,2.8032c.34.6348.57,1.32.86,1.9736,1.47,1.6334,3.51.7074,5.2258,1.184,1.2723.3534,3.4259-.0642,2.6395,2.5144-3.5009,1.5991-7.0852.9129-10.6566.4144-2.6137-.8158-3.4282,1.1279-4.3656,2.8788-1.1554,5.59-1.6326,11.1533.4125,16.6581a3.7547,3.7547,0,0,1-.5492,3.7867l-.031.0529c-1.8559.5877-3.6518.9314-4.8391-1.193.1114-6.1564.3324-12.3176-.7977-18.42a5.9957,5.9957,0,0,1-1.88-1.4494c-8.292-1.4172-16.62-.708-24.9255-.3906-2.9719.1136-4.5234,2.104-4.6261,5.1463-.1193,3.5311.011,7.0632-.09,10.5929-.1781,6.254-.8517,6.76-7.21,5.5438l.07.0488c-2.0126-2.1734-1.1808-4.7843-1.0663-7.2608.0656-1.4208.6306-2.8046.5411-4.2437-.0867-1.3951.1191-3.2038-1.4909-3.6986-1.7362-.5334-2.3088,1.2781-3.0816,2.4081-3.1248,4.57-6.1955,9.18-10.5058,12.7729Z" fill="#f8d727"/>
<path d="m506.22 633.13c-1.88-4.7244-5.0216-4.1905-8.67-2.9977-6.5447 2.14-13.153 4.1249-19.825 5.822-3.5187 0.895-4.5082 2.0283-3.32 5.8569 5.4122 17.44 10.51 34.98 15.557 52.531 1.0645 3.7025 1.8615 7.175 7.2534 6.2283q-0.0431 0.7848-0.0862 1.57l-33.574 9.9763-1.207-0.8007c6.867-3.4814 3.4683-8.14 2.2492-12.346-4.8613-16.771-10.04-33.451-14.763-50.259-1.031-3.6689-2.4036-3.9327-5.5711-2.8806-6.0764 2.0181-12.275 3.669-18.424 5.466-6.4519 1.8855-6.4527 1.8824-8.111 7.5819-1.8948-1.0022-1.7774-2.9313-2.24-4.4693q-3.3245-11.044-6.5176-22.126c-0.24-0.8262-1.1487-1.9026 0.1255-2.5055 1.2064-0.5708 1.59 0.6278 2.0141 1.4365 1.1928 2.2727 3.0455 1.8861 4.9877 1.3151q38.96-11.453 77.928-22.878c2.282-0.668 3.7074-1.7685 3.3409-4.4172a1.9663 1.9663 0 0 1 0.6537-1.6033c0.6285-0.4183 1.273 0.1265 1.4589 0.7593q4.0857 13.912 8.1065 27.842z" fill="#fefefe"/>
<path d="m593.63 523.85 14.217-31.853c-0.2115 7.2071 5.67 7.5858 9.794 9.4506 15.917 7.1963 31.935 14.17 47.831 21.411 2.899 1.3206 3.941 0.8048 5.1953-2.0761 6.9728-16.016 14.16-31.939 21.346-47.861 1.066-2.362 2.0128-4.4473-0.8992-6.1678-0.6268-0.37-1.3265-0.9958-0.5422-1.9287 0.582-0.6925 1.1133-0.2611 1.6774-0.01 8.4406 3.7541 16.882 7.5056 25.589 11.864-6.3491-0.0861-6.8828 4.9869-8.5788 8.7545-10.46 23.236-20.8 46.526-31.193 69.794a30.967 30.967 0 0 1-3.0822 5.46c0.7649-8.2255-5.9868-8.229-10.427-10.253-20.122-9.1734-40.385-18.036-60.572-27.066-3.3061-1.4788-6.4967-3.314-9.0486 1.6613z" fill="#fefefe"/>
<path d="m206.66 479.69c-7.4012-12.971-12.554-26.804-16.809-41.108-1.2621-4.2427-1.0888-8.723-3.128-12.85-1.6273-3.2936 0.0139-5.0707 4.129-5.0368 22.591 0.1864 45.185 0.1119 67.778 0.127 0.7567 1.4529 0.1133 2.7919-0.3252 4.1511-9.2933 13.798-18.974 27.319-29.337 40.343a15.301 15.301 0 0 0-2.1284 2.6027c-2.73 5.7594-6.8074 9.0609-13.579 8.3165-2.7836-0.3063-4.0854 2.8752-6.6008 3.4545z" fill="#1b663d"/>
<path d="M206.66,479.6893c1.5936-4.2094,5.1548-4.9534,8.9808-4.8138,4.3485.1587,6.7962-1.5362,9-5.537,2.8712-5.2123,6.8943-9.8592,10.8161-14.4094,8.2681-9.5928,14.0546-20.9577,22.2082-30.6136.9315-2.7791,3.0666-3.5854,5.6443-3.0266,8.0915,1.7542,16.2191.1878,24.3241.3952,2.4911.0637,5.0582,1.3605,7.5161-.1961a3.6745,3.6745,0,0,1,4.1409,1l3.5494.2948a55.3956,55.3956,0,0,0,14.8063-.0011l5.6127.0445c1.1337.666,2.091,1.5992,3.2958,2.1587,3.7262.7222,7.5456-.2362,11.2552.6544a8.3474,8.3474,0,0,1,2.8054,1.9793,4.9653,4.9653,0,0,1,1.2309,1.5736.8485.8485,0,0,1-.44,1.06l-2.6394.2337c-1.3157,3.8259-2.573.6294-3.8514-.032-10.913-.4308-21.8024.363-32.703.5755-3.2228.0629-3.711,2.0389-3.7867,4.3872-.1446,4.4882-.08,8.9828-.1576,13.4737-.0189,1.0919.0241,2.5406-1.4046,2.6884-1.5291.1582-1.4479-1.313-1.74-2.3745-.8687-3.1617-.5776-6.2879-.1842-9.4989,1.013-8.2689-2.0018-9.2111-7.102-7.7551-5.9037,1.6854-11.2684-1.3865-16.9775-1.6146-6.4418-.2574-10.9069,1.6818-14.4832,7.2086-4.0615,6.2764-9.6288,11.6347-13.28,18.104a129.4935,129.4935,0,0,1-12.8728,18.581l17.8317-1.4259c8.5927,1.5735,17.2741.8642,25.921.9761,6.2473.0808,12.4967.0261,18.7451.0085-10.9214.0046-21.8429.0349-32.7638-.0344-1.646-.01-3.6164.7-4.7813-1.29,7.8691-1.3932,15.794-.6506,23.7-.6184a8.6981,8.6981,0,0,1,5.9109-.0183,65.466,65.466,0,0,0,16.2045-1.0117c5.4037.0019,10.8292,1.0866,16.1965-.0564a4.3407,4.3407,0,0,1,3.5156.8481c.1947.1186.6264.5042.9056-.0244a1.4666,1.4666,0,0,1-.8623-1.0513c4.5862-1.7121,9.2405-1.053,14.0025-.93,9.6091.2484,19.2421-.4262,28.8652-.72a129.42,129.42,0,0,1,24.5167-.04l.2145-.1409.2119.1448a114.4581,114.4581,0,0,1,21.5763.0589l1.836.2083c.7077,3.6338-2.2052,2.9-3.9692,3.0336-5.4274.412-10.892-.2851-16.2743.3994.94,2.1024,3.2355.4275,4.4623,1.6407a1.5747,1.5747,0,0,1,.681,1.1138c-.1513.8261-.8506.9945-1.484,1.2419-5.2418-.6836-10.4032.6-15.6285.6221-15.26.0634-30.5186.3405-45.7778.5337-4.4758,1.1126-9.08-.1921-13.5662.7187q-.57.1354-1.14.2709a9.7293,9.7293,0,0,1-5.7367.0554l-2.6852.0012c-5.292,1.0815-10.7475-.564-16.01.9605-2.3475.8591-4.8762-.1831-7.226.6795l-1.0259.3282c-5.44.9611-10.9909-.4745-16.4188.7562a41.842,41.842,0,0,0-9.8361.4082c-1.5729.3151-3.2294-.2455-4.7655.4552-9.4017.3443-18.8493-.53-28.2022,1.0168-1.3932.2305-3.3461.3878-3.9826,1.3094-2.7322,3.9556-4.7864,2.4332-6.9249-.41-1.8246-1.3679-3.9712-.9207-5.9746-.9037C207.8665,483.3667,206.6891,482.2135,206.66,479.6893Z" fill="#f8d728"/>
<path d="m630.64 364.01q-2.67-17.201-5.3392-34.401l1.0166-0.92c3.0966 7.5268 8.5065 4.0413 13.087 3.3605 22.026-3.2742 44.009-6.8358 66.036-10.1 3.8916-0.5768 7.2459-1.0909 7.0875-6.4476l1.5262 0.3269q2.73 17.192 5.4591 34.383l-1.0058 1.1849c-2.4576-7.3323-7.4725-4.4243-11.641-3.8022-23.133 3.4526-46.234 7.1249-69.357 10.65-3.3693 0.5136-5.8212 1.6383-4.6672 6.5974z" fill="#fefefe"/>
<path d="m590.91 120.22 26.59 22.651q0.036 0.8334 0.0721 1.6668c-6.6367-4.1123-8.5858 1.1858-11.387 4.4336-15.309 17.752-30.516 35.592-45.816 53.352-1.72 1.9968-3.0708 3.7736-0.881 6.228 0.4025 0.4512 0.8125 1.0644 0.2033 1.691-0.8155 0.839-1.4552 0.1759-2.04-0.3239-8.3762-7.1557-16.741-14.325-25.152-22.116 7.5171 2.8006 9.475-3.5465 12.662-7.2011 14.561-16.7 28.862-33.626 43.35-50.391 2.4473-2.8318 4.8744-5.3542 0.6884-9.2005z" fill="#fefefe"/>
<path d="m98.798 217.1q9.5286-14.585 19.057-29.169c-1.1678 7.7513 5.4277 8.815 9.4934 11.507 18.859 12.486 37.874 24.736 56.814 37.1 2.23 1.4557 4.3322 3.0723 6.6012 0.1052 0.3727-0.4874 0.8742-0.8831 1.5851-0.3641a1.0139 1.0139 0 0 1 0.225 1.6123c-6.3706 9.1583-11.586 19.102-18.817 27.673-0.0574 0.0679-0.3065-0.026-0.9247-0.0972 2.3806-5.0969-1.4708-6.7649-4.7972-8.92q-29.08-18.838-58.075-37.804c-3.2972-2.1551-6.3729-5.2541-10.368-0.2906z" fill="#fefefe"/>
<path d="m250.93 360.14h16.573c-0.1581 15.58-0.6106 31.083 0.3719 46.778h-11.844v-33.78c-4.073 10.715-8.1033 21.318-12.414 32.658l-12.179-32.679c-0.7694 11.382-0.8969 22.568-0.732 33.845h-9.5149v-46.775c5.0717 0 10.825 0 16.579 0.0029-0.9792 7.6924 4.337 13.594 5.9423 20.721 2.8285-6.757 7.2449-12.884 7.218-20.771z" fill="#fefefe"/>
<path d="M444.1651,406.98H432.8216V360.07c4.3034,0,9.3323-.0074,14.361.0129a3.2093,3.2093,0,0,1,1.2529.281c-.5843,8.7388,7.6287,12.408,10.9351,18.9012,1.1811,2.32,3.1779,4.2237,5.084,6.68V360.2109H475.417v46.7763c.3163-.078-.0779.1154-.4637.1-4.9944-.2027-9.6369,1.44-13.1139-5.4967-4.346-8.6705-11.54-15.9131-17.6743-23.995Z" fill="#fdfefe"/>
<path d="m646.32 441.76c-5.9759 0.94-12.161-0.5931-18.067 1.7133-1.42 0.5547-3.3487-0.5944-3.8991-2.1-0.7213-1.9726 1.7579-1.1862 2.46-2.1363 5.173-7.0048 12.073-12.926 13.755-22.111a1.8422 1.8422 0 0 1 0.6741-1.1907c7.82-4.281 10.956-12.642 15.496-19.372 4.0094-5.9436 9.9423-10.243 13.01-16.814 1.264-2.7075 2.9012-1.8654 4.1821 0.2774 10.266 17.175 21.25 33.924 30.637 51.617 1.3885 2.6171 3.3407 5.086 3.1605 8.3259-4.7154 1.1663-9.507 0.4147-14.259 0.4992-8.1531 0.145-16.311 0.0413-24.462 0.04a125.99 125.99 0 0 0-17.134 0.6331c-1.7973 0.6693-3.7495-0.0239-5.5533 0.6185z" fill="#f7d628"/>
<path d="m538.14 385.86c0.3732 7.5659 2.6521 14.975 11.005 18.028 8.3789 3.0629 16.747 2.8833 23.671-4.085a5.7619 5.7619 0 0 1 2.1748-1.74c1.0235-0.2629 2.5244-0.3513 3.2306 0.2168 1.1508 0.9255-0.16 2.044-0.6825 2.8817-4.5514 7.3011-11.602 9.8984-19.734 9.7252-8.6264-0.1837-16.386-2.8712-20.407-11.191-5.7514-11.901-4.8931-23.786 2.4136-34.761 5.9819-8.9853 18.672-11.744 27.891-6.7231 8.9593 4.8795 12.818 17.929 8.48 28.895-2.0867 5.2754-5.26 9.5-11.062 11.195-3.0614 0.8943-5.2811-1.62-7.6075-1.7755-2.153-0.1435-4.6157 2.632-7.5493 1.8375a9.015 9.015 0 0 1-6.7222-7.4663c-1.3147-6.9182-0.11-13.453 4.2429-19.147 3.3575-4.3917 7.7884-5.42 12.164-2.6249 1.4614 0.9334 1.7871 0.7145 2.9415-0.3215 1.3479-1.21 3.61-1.0062 4.99-0.207 1.3529 0.7835 0.2488 2.6342 0.0176 4.0093q-1.357 8.0668-2.7332 16.13c-0.2084 1.2253-1.0449 2.78 0.3181 3.5234 1.5374 0.8384 2.6037-0.7069 3.5836-1.6675 6.5164-6.3882 6.5564-19.106 0.12-25.413-6.3056-6.1786-18.429-5.3958-24.692 1.7279-4.5864 5.2165-5.9199 11.593-6.055 18.953z" fill="#fdfdfe"/>
<path d="M282.2643,360.0927c8.0885,0,16.91-.2117,25.7167.0617,8.207.2549,13.4628,6.54,13.2764,15.2169-.1821,8.4755-5.4333,14.0835-13.572,14.4762a26.612,26.612,0,0,0-2.8842.0408c-3.5014.56-7.3693-1.4618-10.4892,1.0793-1.18.9613.2115,13.8989,1.3939,16.149H282.2643Z" fill="#fdfefd"/>
<path d="m388.3 407.01h-11.764c4.9228-15.449 10.163-30.673 14.438-46.715h15.745c4.1171 15.841 9.9461 31.04 15.188 46.602h-13.235c1.3816-3.07-0.3889-5.7065-1.2016-8.502-0.7487-2.575-2.9386-1.732-4.404-1.5177-4.5616 0.667-9.8793-2.3407-13.544 1.5614a8.1 8.1 0 0 0-1.2212 8.5716z" fill="#fefefe"/>
<path d="m413.9 347.42c6.0548 0.7226 6.1435 0.722 6.1069-5.3621a97.444 97.444 0 0 0-0.6135-10.971c-1.0126-8.463-1.0116-8.5439 8.0149-8.6493a131.72 131.72 0 0 0 27.033-0.1725c2.358-0.6191 3.1689 2.5276 5.4 2.2186 2.6761 4.0391 2.0545 8.8767 3.2316 13.281a22.074 22.074 0 0 1 0.4046 5.0023c-0.1178 1.957 0.286 4.0427-1.3609 5.6287a9.9828 9.9828 0 0 0-5.132-0.9139c-10.741 0.0229-21.484 0.12-32.222-0.0491-3.6241-0.0569-7.2627 3.0617-10.863-0.0122z" fill="#1b663d"/>
<path d="M119.1761,440.2154c-10.3306,1.3792-20.7321.4083-31.09.9235-2.8594.1422-5.7342-.0245-8.6018-.0494-2.2163.9113-4.5955-.0339-6.8361.6-6.2937,1.074-12.83-.5723-19.0494,1.8251-1.2338.4757-2.9775-.7179-3.586-1.9255-1.0009-1.9863,1.4735-1.4807,2.1856-2.3335,5.6234-6.7348,12.0505-12.9478,13.8707-22.0728.06-.3.1782-.752.3883-.8361,6.8233-2.7308,8.133-10.2425,12.78-14.9315,2.3313-2.3522,5.1532-5.174,5.4389-9.146a2.7082,2.7082,0,0,1,1.2425-1.9067c4.5982-2.2844,6.8857-6.59,9.3919-10.6557,1.4474-2.3481,2.8482-1.8881,3.95-.0851,7.18,11.7506,14.2505,23.5681,21.3569,35.3638-1.0372,1.1352-2.4957,1.6035-3.7614,2.3836a2.3949,2.3949,0,0,1-1.9027-.1705,2.6683,2.6683,0,0,1-.7661-1.693c.01-1.1691.1315-2.3642-.6682-3.3879-.4908-.94-.7568-1.9658-1.2328-2.8921a6.1578,6.1578,0,0,0-1.4861-1.6012,3.4362,3.4362,0,0,0-1.9763-.68c-.3976.0025-.7837-.0253-1.1769-.0566-1.6477.6141-3.9411-1.89-5.0623,1.0934-.0876,3.1352.5234,5.5207,4.5415,4.39a4.3939,4.3939,0,0,1,1.3527.0514,2.1257,2.1257,0,0,1,1.0685.8c.4316,2.2548-1.2,2.523-2.7545,2.8191-1.355.2582-2.7925.0292-4.0763.6963a6.5569,6.5569,0,0,1-1.1508.6325,3.5307,3.5307,0,0,1-1.2947.1454,3.1489,3.1489,0,0,1-1.1835-.5294,8.7119,8.7119,0,0,1-2.1437-2.4318,5.8953,5.8953,0,0,1-.3725-1.26c-1.1268-2.1343,2.0806-6.63-3.4576-6.318-1.9385,2.0195-.741,4.3827-.7462,6.61-.002.2341-.0134.4619-.02.6967a2.0291,2.0291,0,0,1-.7412,1.166,3.3881,3.3881,0,0,1-3.433-.0736,2.0345,2.0345,0,0,1-.6118-1.1918c-.1436-2.2724.8751-4.6379-.53-6.8062-2.3613-1.55-3.2505.4142-4.3673,1.8169a3.3883,3.3883,0,0,1-1.6351.89,9.1745,9.1745,0,0,1-1.1753.1982,2.8032,2.8032,0,0,0-1.9683.963c-.8135,1.21-.5609,2.7895-1.396,3.979-.6866.6586-1.7285.7939-2.3243,1.5779a8.4663,8.4663,0,0,0-.0716,1.6539,7.413,7.413,0,0,1-.1111,1.1817c-.201,1.7768-.62,3.56.344,5.2485a4.1285,4.1285,0,0,0,1.1.3988c1.0618.1609,2.1308.0956,3.1956.2062a7.2493,7.2493,0,0,1,1.4.2987,5.8363,5.8363,0,0,1,1.3394.6608c4.5221,1.4213,9.1618.3953,13.7337.6915,1.8983.123,3.8251-.1454,5.6918.4348a3.2769,3.2769,0,0,1,1.797,1.5108,1.5538,1.5538,0,0,1-.8786,1.9218,4.8228,4.8228,0,0,1-2.1719.3457c-2.7559-.3659-5.4265-.29-7.7709,1.5139-.7762.5972-1.751,1.2854-2.6131.6386-2.788-2.0911-5.2029-1.7819-7.6167.6182-.6581.6543-1.5382.09-2.1158-.4874-3.2665-3.267-5.2167-1.6876-6.6773,1.7776-2.02.9152-2.837-.64-3.7728-1.8765a3.2954,3.2954,0,0,0-4.9539-.8484c-1.0662.693-2.2568,1.614-2.0263,2.9638.3,1.7556,1.9892,1.1261,3.1322,1.1878,2.36.127,4.7513-.0333,6.9044,1.2623,4.119,1.1413,8.3117.493,12.4592.5406,9.6281.11,19.2586-.0028,28.8876.0634C115.3946,438.7238,117.6151,438.284,119.1761,440.2154Z" fill="#f6d628"/>
<path d="m484.6 372.44v-13h40.214v12.705c-4.1-2.34-8.6014-0.8445-12.96-1.1267-1.2635-0.0818-1.486 0.9453-1.4854 1.99 0.0066 10.274-0.0261 20.548 0.0745 30.82 0.0094 0.9568 0.8579 1.9054 1.4216 3.0754h-13.266c1.7659-6.4872 0.57-13.226 0.8831-19.894a42.998 42.998 0 0 0-0.0316-6.736c-0.34-3.0539 1.6775-7.919-1.1421-8.7895-4.1805-1.2909-9.3122-1.8146-13.708 0.956z" fill="#fefefe"/>
<path d="M344.5776,360.2159a7.5276,7.5276,0,0,0-1.7939,5.5774c.0618,8.66.1513,17.3242-.04,25.9807-.0712,3.2212.6822,4.5843,4.2054,4.4276,6.0823-.27,12.1858-.114,18.2794-.0459,1.8389.02,3.5087-.128,4.928-2.1126v13.5228c-13.1221-1.0979-26.4066-.0032-38.5762-.542.7007-15.6064.1831-31.134.3836-46.808Z" fill="#fdfdfd"/>
<path d="m377.3 326.16c0.1337-2.6965 1.1941-4.1866 4.16-3.1958 1.4678 1.4743 3.336 0.8584 5.0339 0.8746 9.0811 0.0867 18.172-0.4231 27.238 0.4956q0.1036 11.562 0.2074 23.124l-36.624 0.0466-0.0084-3.7881c-0.0461-0.2513-0.0921-0.5027-0.1412-0.7539a117.82 117.82 0 0 1-0.01-16.049c0.0466-0.2515 0.0955-0.5028 0.1444-0.7541z" fill="#1c663d"/>
<path d="M332.9119,347.39c6.0072.7855,6.02.7854,5.9706-4.87-.036-4.1526.1317-8.3271-.2469-12.45-.2837-3.09,1.1366-4.3969,3.7263-5.0292a19.7159,19.7159,0,0,1,4.2244-.6838c6.8639-.1365,13.7321-.2869,20.5934-.1529,1.5042.0293,4.19-1.1983,4.3525,2.0941-1.7939,2.28-.76,4.9508-1.0184,7.4409-.4746,4.5669,1,9.2715-.9684,13.7348-8.7758.0075-17.552.0548-26.3275.0027C339.783,347.4561,336.3166,350.397,332.9119,347.39Z" fill="#1b663d"/>
<path d="M325.1733,425.57a2.8781,2.8781,0,0,1-1.914-2.7435c2.4054-1.8676,4.9055-.5526,7.3764-.2193,1.3753-.651,2.8424-.3752,4.2679-.3753q98.8557-.0074,197.707.0017c2.7895,1.8929.7659,2.7456-.8721,3.256-1.4392.4485-3.14.0567-4.2968,1.4078-3.1689.0853-6.3436.4056-9.5006-.1848-3.7994-.1859-7.5938-.7758-11.4033-.14-9.8341-.125-19.6157.9225-29.4308,1.3251-3.8114.02-7.5944.1125-11.2627-1.3522-2.7093-1.0819-5.2377.8988-7.9238.9345-4.9237.0655-9.8477-.0326-14.7692.061-5.3715.8127-10.8046-.0824-16.1816.5729-.2553.0735-.5128.1409-.7695.2111-.2617.0458-.5243.0889-.7869.1319-3.05-.43-3.5122,1.4377-3.2868,3.7937a21.7954,21.7954,0,0,1-1.0136,9.5172l-1.52-.0081V431.7516c.084-3.7925-1.61-4.701-5.4776-4.8769C384.4771,425.5268,354.8139,426.35,325.1733,425.57Z" fill="#fbd61e"/>
<path d="m193.63 407v-46.826h12.578v46.826z" fill="#fcfcfc"/>
<path d="M72.6466,417.0456c.1507-2.8416,2.4857-1.7741,3.9745-2.221a2.0458,2.0458,0,0,1,1.7149-1.4468,4.9317,4.9317,0,0,1,1.1577.0047c-.1281-1.4741-.5633-2.9954.7711-4.1885l1.8562.0035c1.0071.6588,1.069,1.7589,1.3131,2.7752a6.4288,6.4288,0,0,0,.4052,1.1393c1.1477,1.0759,3.0276.5,4.0576,1.81l4.0235.0209a4.1335,4.1335,0,0,1,5.6365-.01,1.8017,1.8017,0,0,1,1.9534,2.0516c-2.1342,1.7709-4.6985,1.0779-7.1083,1.25-1.2332-.0085-2.4716-.0078-3.7021-.0388-1.6176.1068-3.3236-.5018-4.8207.5809a3.9632,3.9632,0,0,0-.3441,1.089,10.5733,10.5733,0,0,0,.2649,4.6487c1.6565,1.3922,3.5917.6666,5.4174.7273.668-.0876,1.3293-.21,2.0015-.254a6.3668,6.3668,0,0,1,1.3561.079c3.6862.6955,6.3328.1476,5.7867-4.58a4.3508,4.3508,0,0,1,1.1293-3.5207l2.2023.1066c1.24,1.4383.7057,3.258,1.0744,4.88.7,3.0808,2.1771,4.0638,4.64,1.3666.0768-.4106.1734-.811.2565-1.2161.6051-2.5047-.2049-3.93-2.94-4.0142a4.4038,4.4038,0,0,1-3.0367-1.0054c.0352-2.8351,2.2106-1.9015,3.72-2.0878,1.5678-.1936,3.6566.5428,3.6731-2.209a4.8716,4.8716,0,0,1-.0159-6.2169c1.5158-1.7744,1.8608-.5416,2.1493.8368,1.2613,1.2351.7989,2.9924,1.3582,4.4366.18.3294.3619.6578.5685.9707a24.7566,24.7566,0,0,1,1.83,2.1514l.006,1.8865a3.307,3.307,0,0,1-1.3312,1.1578,3.8807,3.8807,0,0,0-.9111.7579c.0571,2.74-2.4716,6.8537,3.4515,6.3942,2.5075-1.37,1.3712-3.3516.87-5.2212a5.3655,5.3655,0,0,1-.601-1.13,1.7774,1.7774,0,0,1,.43-1.7912c.234-2.5327,2.1771-1.9276,3.733-2.0336l6.0638,11.1352a3.9193,3.9193,0,0,1,.289,2.1087c-.9665,1.798-3.4919.8929-4.4944,2.6143-1.9551,4.6546-2.0252,4.7291-5.384,1.5678-1.5041-1.4156-2.4478-1.4176-3.9651.0348-3.5927,3.4394-4.0888,3.1993-5.3482-1.9264-1.6961-1.814-4.5-.2272-6.1982-2.0082-5.7328-.0149-11.4659.0034-17.1979-.0659-1.6247-.02-3.7085.6627-4.1345-1.9747-.3864-.4918-.9849-1.01-.9153-1.5959C79.9343,419.813,77.19,417.6769,72.6466,417.0456Z" fill="#fad720"/>
<path d="m465.86 327.23c1.0371-2.4187 3.0211-2.2043 4.1385-0.6583 2.4042 3.3266 5.9439 5.7353 7.4756 9.7878 1.39 3.6791 5.0591 6.1042 5.9389 10.14-5.748 2.1383-11.7 0.5176-17.54 0.948a5.8925 5.8925 0 0 1-1.24-4.016c-0.1464-2.5624-0.1208-5.1262-0.0323-7.6916 0.1245-2.8809-0.3949-5.8572 1.2598-8.5099z" fill="#1e673c"/>
<path d="m533.41 422.86c-15.571-0.0579-31.142-0.1537-46.713-0.1669q-78.029-0.0659-156.06-0.0835c2.3726-1.2849 4.9858-1.0909 7.5281-1.0919q96.107-0.0375 192.21-0.0076c1.2773 0 2.5546 0.1875 3.8316 0.2873a2.8823 2.8823 0 0 1 0.0644 0.893 0.5468 0.5468 0 0 1-0.8649 0.1696z" fill="#dcda65"/>
<path d="m317.38 347.42c3.7672-5.3159 7.5667-10.609 11.276-15.966 0.7849-1.1335 1.93-2.1884 2.9888-1.991 1.3138 0.245 1.3277 2.0354 1.6173 3.2356 1.1888 4.9271-0.7622 9.8145-0.2785 14.743z" fill="#20683c"/>
<path d="m119.18 440.22c-14.582-0.0617-29.164-0.0878-43.745-0.2335-1.6823-0.0168-4.047 1.1179-4.7749-1.7627a3.4215 3.4215 0 0 1 2.3242-1.2907c5.0834-0.3356 10.176-0.0759 15.266-0.1842 13.16 0.08 26.319-0.1123 39.478 0.09a4.6789 4.6789 0 0 1 2.5658 0.8759 1.725 1.725 0 0 1 0.0413 2.4483c-3.7128 1.1215-7.4368 0.0599-11.155 0.0569z" fill="#f3d219"/>
<path d="m295.34 421.77c-0.5387 2.269-2.22 1.8532-3.8074 1.601a43.053 43.053 0 0 0-16.589 0.1588 14.018 14.018 0 0 1-9.4765-1.5417c-2.9213-1.4492-5.751-0.33-7.7967 2.3238q0.483-1.748 0.9655-3.4952 18.332 7e-4 36.664 0 0.5149 0.2964 0.3613 0.6213c-0.104 0.2212-0.2105 0.332-0.3209 0.332z" fill="#346739"/>
<path d="m369.55 347.47c0-5.7016-0.0426-11.404 0.0284-17.104 0.02-1.5838-0.7437-3.71 1.9583-4.0716q0.0552 0.8248 0.1109 1.6494c-0.0492 5.2846-0.0784 10.569-0.1619 15.853-0.0239 1.5127 0.4951 3.3941-1.9357 3.6736z" fill="#1a6846"/>
<path d="M668.4986,440.193q19.6128-.1094,39.2258-.2192c-3.4513,1.5907-7.0819.6883-10.6356.7261-9.5344.1017-19.07.1221-28.6047.1748-.344-.1589-.4558-.3124-.3376-.462A.47.47,0,0,1,668.4986,440.193Z" fill="#cbc47c"/>
<path d="m367.59 544.2 34.767 0.0022q-0.0275 0.4691-0.0411 0.9385a255.99 255.99 0 0 1-34.687-0.0043q-0.0106-0.4687-0.0392-0.9364z" fill="#2a5b41"/>
<path d="m367.63 545.14q17.344 0.0021 34.687 0.0043c-0.7843 1.04-1.9261 0.96-3.0365 0.9606q-14.308 0.0034-28.617 0c-1.1101-9e-4 -2.2526 0.0802-3.0336-0.9649z" fill="#1b4c33"/>
<path d="m368.6 182.59c-0.3159-0.5826 0.0155-0.94 0.5165-0.9413q14.898-0.0369 29.796-0.0123c0.1413 0 0.3763 0.0678 0.4059 0.1574a4.0564 4.0564 0 0 1 0.1122 0.7962 204.78 204.78 0 0 1-30.83 0z" fill="#1d4331"/>
<path d="m368.6 182.59h30.83q0.0111 0.4677 0.0318 0.9348-15.448 0.0012-30.895 0.0025 0.0195-0.4687 0.0336-0.9373z" fill="#2e5542"/>
<path d="m465.8 343.58q0.037 1.9325 0.0739 3.8648c-1.3688-0.1466-2.0226 2.5153-3.7513 0.9544q0.0659-2.8767 0.1319-5.7524c1.4225-0.6031 2.5308-0.0128 3.5455 0.9332z" fill="#dcc82d"/>
<path d="m126.55 428.58q0.0672-1.23 0.1334-2.4613a11.767 11.767 0 0 1 3.5848 7.17 2.4627 2.4627 0 0 1-2.3093 1.2563c-1.6979-0.8367-2.1976-2.3442-2.2885-4.0837a3.0123 3.0123 0 0 1 0.8796-1.8813z" fill="#e9cd33"/>
<path d="m668.5 440.19a2.9334 2.9334 0 0 0-0.0151 0.6817l-11.198 0.1827c-2.1078 0.5526-4.21 0.8436-6.2835-0.1391 5.7722-1.69 11.663-0.5237 17.497-0.7253z" fill="#e3d470"/>
<path d="m130.33 440.16 0.0549-2.0733c-0.6632-1.9338-0.1327-2.6639 1.8974-1.8818 0.294 1.3049 2.5077 1.9153 1.6656 3.4439-0.7441 1.3505-2.2564 1.3802-3.6179 0.5112z" fill="#f5d325"/>
<path d="m317.65 422.78a28.444 28.444 0 0 1-14.806 1e-3z" fill="#4f7939"/>
<path d="m417.76 185.46c-3.3712 0.141-6.6673-0.1017-9.6612-1.89 3.2868 0.2932 6.8978-1.0763 9.6612 1.89z" fill="#254d39"/>
<path d="m132.28 436.2a1.7261 1.7261 0 0 0-1.8969 1.8821q-0.96-0.0216-1.92-0.0424a0.9179 0.9179 0 0 1-0.3854-0.8626 4.4257 4.4257 0 0 0-0.1606-1.5087 1.3644 1.3644 0 0 1 0.5573-1.3817 1.8625 1.8625 0 0 1 1.7882-0.9985c0.5201 1.0764 2.1243 1.4014 2.0174 2.9118z" fill="#ddc438"/>
<path d="m651 440.92q3.1375 0.07 6.2794 0.14c-3.6032 1-7.2846 0.85-10.965 0.7062 1.3817-1.2823 3.1305-0.5286 4.6859-0.8462z" fill="#e0c112"/>
<path d="m581.69 432.35c-0.126-2.1828 0.0528-4.2663 1.8894-5.8109-0.5973 1.9477 1.5269 4.78-1.8894 5.8109z" fill="#24513a"/>
<path d="m485.39 347.83 6.5635-0.4146c-2.0324 2.599-4.35 0.6826-6.5635 0.4146z" fill="#1b663d"/>
<path d="m188.26 335.9c0.1164 2.1784-0.0582 4.2621-1.8914 5.8053-0.126-2.1814 0.0491-4.2648 1.8914-5.8053z" fill="#254f39"/>
<path d="m72.648 441.69c2.1814-1.3015 4.5517-0.4534 6.8353-0.6-2.2073 1.0055-4.5251 0.7592-6.8353 0.6z" fill="#f3d219"/>
<path d="m372.44 346.37c1.2738 1.7741 3.0429 1.5384 4.8392 1.1929-1.9732 1.0631-3.9322 2.0685-4.8392-1.1929z" fill="#1a6846"/>
<path d="m295.34 421.77a6.3234 6.3234 0 0 1-0.04-0.9539c1.546 0.0425 3.42-0.7022 3.9951 1.6686-1.2861-0.4146-2.5322-1.0539-3.9551-0.7147z" fill="#4f7939"/>
<path d="M480.3028,467.4638c3.4812-1.321,7.03-.2282,10.4984-.0684,8.6041.3963,17.316.4832,25.786.0228,11.7522-.6388,23.1449,2.3694,34.7764,1.5825a18.0112,18.0112,0,0,1,8.9155,1.6466c1.0164.4743,2.2178.89,1.9358,2.3514-.2639,1.3681-1.4943,1.58-2.6007,1.6814a15.2831,15.2831,0,0,1-4.3205.0666c-5.93-1.1962-11.8416.2731-17.7169.0141-21.329-.9406-42.634.2865-63.9491.25a30.5076,30.5076,0,0,1-3.8075-.4722c-.9475-1.69.3187-2.2084,1.4908-2.6327,1.2931-.4682,2.7448-.4815,3.898-1.3617a3.1934,3.1934,0,0,1,2.0075-.1906c.5512-.1163.9955,1.065,1.581.1783.349-.5286-.0727.3464-.375-.2561-6.2025.0025-12.3584.1231-18.5131.0193-1.9976-.0338-4.1862.4344-5.7326-1.4659,6.9527-2.4406,14.1082-.3129,21.1415-.939C476.9352,467.2274,478.6512,467.7213,480.3028,467.4638Z" fill="#f7d627"/>
<path d="M325.1733,425.57c1.4347-1.543,3.3148-.9238,5.0044-.9267,22.3018-.0387,44.6262-.584,66.8913.3207,6.6461.27,13.4365,1.3056,20.2067,1.6186,3.7374.1728,2.0632,3.197,2.3173,5.1659-.3946-3.3815-1.925-5.1447-5.6456-4.2985-3.5818.8145-7.3774-.79-10.9178.8384q-.2624.71-.6468.0581l-13.564-.0116c-2.86-1.5372-5.9943-1-8.9218-.7436-11.4349,1.0024-22.8727-.544-34.2988.282-2.3662.1711-4.8115.1807-6.9066-1.3284C334.1975,426.053,329.5548,427.6223,325.1733,425.57Z" fill="#f4d831"/>
<path d="m533.41 422.86q0.4356-0.0687 0.865-0.17c5.553 6.7362 7.6034 15.392 12.476 22.571 3.3347 4.9129 5.3958 10.69 8.0263 16.081a3.84 3.84 0 0 1-1.99 1.9358c-5.6665-3.5437-5.4135-10.59-9.1171-15.392-3.75-4.8631-5.9192-10.738-8.4386-16.347a8.0686 8.0686 0 0 0-6.5672-4.7791 0.6326 0.6326 0 0 1-1.0092-0.3546c0.2775-1.9174 1.7435-1.78 3.1118-1.787 1.2757-6e-3 2.4826-0.088 2.6427-1.7585z" fill="#f3d527"/>
<path d="M475.603,470.9051c-.1687,1.9645-1.6133,1.9265-3.0273,1.92-1.2833-.0063-2.5061.0659-2.7553,1.7139l-3.8224.3907c-.2134-.0549-.4267-.11-.6409-.16a23.8012,23.8012,0,0,0-11.6076-.2227,3.9386,3.9386,0,0,1-1.1893.4746l-1.0916-.4021c-7.5352-1.0912-15.1112.014-22.6627-.4134-11.8014-.17-23.6072.3887-35.3978-.4109-1.576-.1069-3.22.1755-4.5763-.9563.325-2.3445,2.1462-1.913,3.6649-1.9216,5.2289-.03,10.4584.0149,15.687-.0309,1.4853-.0131,3.337.5412,3.7876-1.7731l1.9361-.02c3.6155,1.1043,7.3038.2491,10.9468.3051,15.3919.2363,30.7824.7117,46.18.5629C472.5967,469.9458,474.2859,469.607,475.603,470.9051Z" fill="#f2d832"/>
<path d="M475.603,470.9051c-18.98-.0008-37.9595.0256-56.9389-.0493-1.6792-.0067-4.0261,1.0872-4.7568-1.7629,6.8549-2.7819,13.9407-.6906,20.9081-.8794,6.4432-.1745,12.9062.382,19.3609.6161,7.6732.05,15.3464.065,23.0182.1782,1.5949.0235,3.73-.78,4.1961,1.8949a2.7873,2.7873,0,0,1-3.85,0Q476.572,470.9041,475.603,470.9051Z" fill="#f7d41e"/>
<path d="M442.7963,426.5949c3.8154-.0211,7.6312-.0142,11.446-.0735,2.33-.0362,4.5846.2222,6.8-1.3831a5.5175,5.5175,0,0,1,5.0039-.307c3.6941,2.3376,7.6476,1.3906,11.4969,1.74a.94.94,0,0,1-.1815,1.3276c-2.0156,1.2862-4.4423.5921-6.5671,1.368a3.6141,3.6141,0,0,1-2.8944-.59c-2.1389-.1919-1.691,1.3754-1.7011,2.564-.0343,3.9962-.006,7.993-.0511,11.989-.0164,1.4506-.0858,3.2464-1.9638,3.2625-1.893.0163-1.2593-1.8708-1.366-2.9743a88.4456,88.4456,0,0,1-.6544-10.0379c.0675-3.7979-1.189-5.5679-5.2655-5.2768-4.2964.3067-8.6278.1231-12.9439.1537a3.085,3.085,0,0,1-1.42-.8071A.7841.7841,0,0,1,442.7963,426.5949Z" fill="#e9cf29"/>
<path d="m338.69 426.55c15.104 8e-4 30.209-0.034 45.312 0.0522 1.6879 0.01 4.05-1.12 4.8149 1.7377a45.194 45.194 0 0 1-7.0962 0.1562c-4.6145-0.5957-6.395 1.613-6.5788 5.822-0.39 0.62-0.16 1.75-1.101 1.8605-1.115 0.13-1.0521-0.8786-1.0922-1.6306-0.0813-1.524 0.351-3.2128-1.4222-4.154-4.9978-2.7811-10.59-0.0556-15.734-1.6829a11.938 11.938 0 0 0-3.32-0.0857 17.962 17.962 0 0 1-11.695-0.0768c-1.2549-0.082-2.0427-0.6521-2.0876-1.9986z" fill="#fad61f"/>
<path d="M477.5317,427.2369q.0084-.3333.0113-.6663c2.8994-.393,6.0282.7835,8.6616-1.58.8476-.7608,2.0335-.0813,3.0228.6366a6.0878,6.0878,0,0,0,6.7693.3776c3.9-2.5906,7.1252-1.2294,10.541.5682a6.1433,6.1433,0,0,0-2.145,5.471c.2269,3.78.6883,7.6033-.2738,12a12.6375,12.6375,0,0,1-3.2137-8.346c-.3136-5.4408-3.0571-7.98-8.4481-7.6488-2.3936.1471-4.7911.2283-7.1868.3394a12.6647,12.6647,0,0,1-6.7017-.0969A1.9243,1.9243,0,0,1,477.5317,427.2369Z" fill="#eed22b"/>
<path d="m255.18 472.46c13.146 0.8508 26.307 0.1152 39.458 0.3943 1.6223 0.0345 3.41-0.4958 5.2924 0.9212-1.6756 1.4117-3.3121 0.9523-4.7737 0.956-14.139 0.0359-28.278 0.0547-42.416-0.0228-1.6954-0.0092-4.0843 1.0509-4.6816-1.909 2.3193-1.2583 4.7282-0.6308 7.1212-0.3397z" fill="#f5d321"/>
<path d="M320.7483,470.5314c1.7742,1.0859,4.129-.524,5.9539,1.3061-.4133.3367-.8212.8923-1.0545.8267-5.336-1.5006-10.9645,1.6746-16.2052-1.0135-1.3791-.7073-1.8876.8586-2.9439,1.0562-2.2311.4174-4.0986-.0125-5.506-1.8913A51.259,51.259,0,0,1,320.7483,470.5314Z" fill="#f5d321"/>
<path d="M429.3213,472.848q8.8043-.0112,17.6087-.027c1.7628-.0057,3.5556-.1409,4.5386,1.7979l-1.076.4606a4.8531,4.8531,0,0,1-1.2144.5337,58.3217,58.3217,0,0,1-9.7053-.1395c-.6358-.0873-1.0056-.1111-.3679-.037.0757.0088.1226.2662.1892.4152a.55.55,0,0,1-.5754.6749l-11.2585.0253a.6564.6564,0,0,1-.3292-.8619c.3756-.5776.8763-1.0667,1.2184-1.672A5.056,5.056,0,0,1,429.3213,472.848Z" fill="#f9d41c"/>
<path d="m279.01 471h-30.431c0.3528-2.3571 1.5331-1.9975 2.3561-2.0017 8.1355-0.042 16.271-0.0284 24.407-0.0285 1.5984 0 3.318-0.21 3.6732 2.0367z" fill="#176744"/>
<path d="m478.23 427.94c2.3624-0.1158 4.8016-1.4383 7.0362 0.4484-0.2122 1.9906-1.655 2.03-3.1585 2.0158-1.9117-0.0181-3.8329 0.1172-5.7337-0.027-3.8923-0.2955-7.43-0.247-6.7863 6.44-2.5015-3.2831-1.3478-5.8474-1.6918-8.14l2.7216-0.2717c2.4928-0.8866 5.087-0.1145 7.6125-0.4655z" fill="#1b6742"/>
<path d="m334.92 430.45c1.2847-0.0516 2.5522 2.0506 3.852 0.0315-0.065 3.5239 0.0359 7.0622-0.2816 10.563-0.1141 1.2579 0.6019 4.2724-2.7226 2.8032-1.137-2.9212 0.2282-6.0694-0.8167-8.9989 0.2066-1.4677 0.955-2.9391-0.0311-4.3984z" fill="#cacb48"/>
<path d="m442.81 428.69a1.8186 1.8186 0 0 1-1.9289 1.6685c-4.405 0.0123-8.81 0.0077-13.215 0.0211a2.06 2.06 0 0 1-2.2478-1.9247l-0.0547-0.0826c5.8387-1.1679 11.667-1.7917 17.446 0.3177z" fill="#13674b"/>
<path d="m388.13 468.84-24.517 0.04c3.2982-3.0048 7.4251-0.9864 10.974-1.1966 4.35-0.2575 9.1923-0.8786 13.543 1.1566z" fill="#edd125"/>
<path d="m402.38 428.35a0.4918 0.4918 0 0 1 0.6464-0.0575q7.0306-9e-4 14.061-6e-4c-3.9358 3.0605-12.643 2.5625-14.707 0.0581z" fill="#13674c"/>
<path d="M371.5285,430.3891c2.55.4522,1.7672,2.4857,1.951,4.075.0609.5263.1141.52,1.6646-.1519.0949,2.3665.3727,4.7508-.77,7.36C370.0986,438.56,373.8853,433.6592,371.5285,430.3891Z" fill="#bfc13f"/>
<path d="m410.14 468.9q-10.787-0.0291-21.575-0.0586c7.1963-1.9283 14.386-1.0783 21.575 0.0586z" fill="#edd125"/>
<path d="M442.8055,428.692q-8.7229-.1587-17.4461-.3176a3.237,3.237,0,0,1,.2793-.664,46.4763,46.4763,0,0,1,17.046-.0363q.6342.3417,1.2691.6831Z" fill="#4d6200"/>
<path d="m294.22 479.47c5.4808-1.6683 11.081-0.6009 16.629-0.7264-4.6443 1.1584-9.3753 0.88-14.091 0.8515-0.8678 0.3989-1.7284 0.6527-2.5382-0.1251z" fill="#c8de74"/>
<path d="m270.17 481.47c5.4243-1.3089 10.94-0.6288 16.419-0.7563-5.4053 1.7208-10.948 0.447-16.419 0.7563z" fill="#226d44"/>
<path d="m395.39 476.54 1.3714-0.6645c3.2226-2.6933 7.0462-1.0181 10.579-1.4643a6.7148 6.7148 0 0 1 3.2478 0.71 1.3164 1.3164 0 0 1 0.6575 1.4z" fill="#4d6603"/>
<path d="m465.88 475.59c-4.51 1.4784-9.0006 2.5036-13.316-0.5668l-0.0585-0.3938a2.8113 2.8113 0 0 1 1.5467-0.3848c3.9086 0.741 8.0931-0.9276 11.828 1.3454z" fill="#4c6a0d"/>
<path d="m320.41 478.42c4.4466-1.656 9.0448-0.45 13.566-0.7188-4.4573 1.4502-9.0562 0.2387-13.566 0.7188z" fill="#eed122"/>
<path d="m465.88 475.59c-4.2145-0.0193-8.4928 0.9435-12.594-0.8177 4.1877-1.72 8.4072-1.25 12.636-0.1833l0.0811 0.3426a2.4094 2.4094 0 0 1-0.1225 0.6584z" fill="#bed66e"/>
<path d="m438.72 476.53q0.2235-0.3755 0.4835-0.7268c3.5-1.4313 7.2769 0.2591 10.795-0.9613l0.3977 0.24c-1.5359 3.2095-4.3713 1.1134-6.5691 1.5249a24.551 24.551 0 0 1-5.1073-0.0768z" fill="#4b6608"/>
<path d="m427.09 475.86q0.18 0.3484 0.3748 0.6879-5.9636-7e-3 -11.925-0.0133a1.4477 1.4477 0 0 1 0.757-1.4428c3.6659-0.7233 7.3566-1.7597 10.793 0.7682z" fill="#586b03"/>
<path d="M340.7794,428.5437l11.6938.0768a4.8854,4.8854,0,0,1-.3342.69c-3.4257,1.1242-6.8771.6977-10.33.1714Z" fill="#cddf71"/>
<path d="m552.79 463.28c0.0163-1.31 0.6264-2.01 1.99-1.9374 0.8394 1.097 1.254 2.4794 0.1022 3.3139-0.7994 0.5786-1.7175-0.3828-2.0922-1.3765z" fill="#fed405"/>
<path d="m341.81 429.48 10.33-0.1714c-3.408 2.2469-7.1544 0.6369-10.732 0.9421a4.563 4.563 0 0 1 0.4025-0.7707z" fill="#596c04"/>
<path d="m527.66 426.4q0.5055 0.1766 1.01 0.3537a20.58 20.58 0 0 1-10.727-0.0449q4.8594-0.154 9.7171-0.3088z" fill="#abcf74"/>
<path d="m294.22 479.47q1.267 0.0627 2.536 0.1253c-2.962 1.2388-6.0677 0.838-9.1431 0.7887 2.0258-1.5811 4.4287-0.4363 6.6071-0.914z" fill="#eed122"/>
<path d="M415.8568,475.7227q-.1732.4024-.3194.8161-2.1486-.0075-4.2947-.0159-.1612-.3651-.3346-.7244c1.0219-2.22,2.7315-2.2305,4.6851-1.46A.9884.9884,0,0,1,415.8568,475.7227Z" fill="#f2d832"/>
<path d="m334.95 434.85c2.1153 2.8326 0.3608 6.0166 0.8169 8.9993-1.8576-2.8562-0.5233-6.0017-0.8169-8.9993z" fill="#425f05"/>
<path d="m313.54 478.74q2.87-0.0282 5.7388-0.0559c-1.9016 1.3362-3.8185 0.8699-5.7388 0.0559z" fill="#c8de74"/>
<path d="m284.79 471.83q-2.9555 0.0091-5.9109 0.0183 0.0571-0.4226 0.1321-0.8417l0.0049 0.0067c1.8894 0.5237 3.9942-0.4797 5.7739 0.8167z" fill="#f5d321"/>
<path d="m255.57 482.33a6.9561 6.9561 0 0 1 4.7687-0.4555c-1.5011 1.0969-3.1636 0.4741-4.7687 0.4555z" fill="#226d44"/>
<path d="m480.3 467.46c-1.5908 0.9639-3.311 0.4171-4.9841 0.4265 1.5461-1.486 3.3184-0.3331 4.9841-0.4265z" fill="#f7d41e"/>
<path d="M365.9507,556.566c-1.0694.291-.9151.215-.7593.2115,4.8165-.1045,9.7423-.87,14.4183-.107,4.4049.7193,4.4025,6.4483,7.8206,9.0444,4.8936,3.7165,9.0658,8.3831,13.1166,12.2355V556.0471H411.93c-.1837,13.8593-.0569,27.828.6679,42.45,1.1445-.627,1.0269-.5065.9084-.5057-6.0036.0417-11.402,1.3832-16.2952-5.454-5.2832-7.382-13.6551-12.5533-19.7907-17.9124.3022,6.3882-.2049,15.2,1.32,24.1582H366.9845C366.69,584.8342,367.0409,570.8394,365.9507,556.566Z" fill="#2f3938"/>
<path d="m522.97 538.17c-0.0549 10.368-9.974 21.634-22.041 25.033-9.5058 2.6778-18.323-0.7887-23.616-9.2434a19.606 19.606 0 0 1-2.8679-13.77c1.9222-12.836 17.986-24.78 30.778-22.826a21.234 21.234 0 0 1 17.747 20.806z" fill="#2f3938"/>
<path d="m306.98 539.76 15.67 5.1964c0.2822 1.4914-1.1358 0.7752-1.3332 1.2573-3.4265 8.3711-7.4205 16.648-7.8133 25.841-0.157 3.6732 4.9035 6.7246 10.638 7.4212 3.9748 0.483 7.2205-0.919 8.41-4.801 2.3158-7.5581 6.0862-14.701 6.7019-22.754 0.1512-1.9766 1.5933-0.9583 2.2064-0.7738 3.9806 1.1978 7.9073 2.5749 12.412 4.0806-2.3145 0.9539-3.0074 2.6817-3.6053 4.5673q-2.7577 8.6966-5.7159 17.329c-3.5625 10.375-9.8846 14.158-20.644 12.484a40.588 40.588 0 0 1-14.399-5.1284c-7.1323-4.1856-9.9374-10.856-7.7038-18.856 1.85-6.6241 4.0969-13.139 6.2408-19.678 0.5824-1.7766 1.5158-3.4644-1.0641-6.1859z" fill="#2f3938"/>
<path d="m241.3 544.61c4.4755-1.9771 24.973-29.84 25.087-34.158 8.2423 6.186 16.482 12.035 24.332 18.367 6.3061 5.0872 7.1956 12.498 2.8949 18.424-4.4285 6.1013-11.751 7.2838-18.792 2.7643a119.14 119.14 0 0 1-10.87-7.9681c-1.8474-1.5063-2.873-1.3746-4.1408 0.5411-1.5042 2.2728-3.6914 4.2-4.7475 6.6386-1.7 3.9256-3.3562 3.7557-6.1558 1.1267a86.183 86.183 0 0 0-7.6079-5.7357z" fill="#2f3938"/>
<path d="M446.1534,590.0222c2.1359-2.2857,1.7954-3.91,1.2131-5.589-2.6768-7.718-5.4232-15.4142-7.9293-23.1877-.7945-2.4641-1.7685-3.0248-4.1047-1.896-3.8278,1.85-8.6693,1.6965-11.76,5.6634l-3.8051-10.857c14.1159-4.8522,28.2806-8.9215,42.0678-14.92-.3412-.3141-.1683-.2315-.1274-.1061,1.0857,3.3359,3.453,6.9924,2.7442,9.8967-.4222,1.73-5.61,2.6354-8.7835,3.276-4.9242.994-6.0137,3.0789-4.0473,7.8275,2.6919,6.5009,4.6222,13.3147,6.9614,19.9654.6051,1.7206.73,3.9788,3.4466,4.4018Z" fill="#2f3938"/>
<path d="m218.18 121.81c3.636 0.2364 6.3429 1.7591 7.9513 4.8335a8.2784 8.2784 0 0 1-0.4339 9.0807 20.887 20.887 0 0 1-4.3228 4.4437c-7.13 5.4181-14.401 10.651-21.523 16.08-1.7856 1.361-2.8032 1.4417-4.146-0.5356-2.4238-3.5691-5.0177-7.0337-7.72-10.398-1.3709-1.7073-1.5715-2.6813 0.4441-4.1182 7.5514-5.3835 14.945-10.988 22.443-16.447a13.952 13.952 0 0 1 7.3068-2.9384z" fill="#2f3938"/>
<path d="m667.49 248.89c-0.0267 11.617-9.9392 21.787-22.37 24.42-8.5025 1.8016-15.594-0.4114-21.034-7.1825-5.7528-7.1612-9.2548-15.703-14.004-23.484-1.002-1.6416-0.069-2.2919 1.1307-2.9579q19.526-10.841 39.046-21.691c1.2094-0.6736 2.23-1.2956 3.1158 0.4459 4.415 8.68 10.444 16.543 13.247 26.035a35.837 35.837 0 0 1 0.8681 4.4147z" fill="#2f3938"/>
<path d="m130.08 557.91c-6.7018 0.1442-12.079-3.54-15.851-9.28-4.57-6.9555-8.4683-14.35-12.797-21.469-1.1613-1.91-0.1175-2.4339 1.2235-3.1923 12.836-7.2593 25.691-14.487 38.454-21.875 2.1747-1.2589 2.9133-0.5469 3.9188 1.2831 3.01 5.4787 6.2441 10.834 9.2676 16.306 4.3758 7.9191 6.7562 16.007 1.5247 24.554-4.931 8.0559-15.633 13.896-25.74 13.673z" fill="#2f3938"/>
<path d="m105.57 295.44c-1.5013 9.8-4.3813 19.302-6.6308 28.947-0.3882 1.6648-1.1164 1.9311-2.7012 1.5086-4.789-1.277-9.6152-2.4179-14.441-3.55-1.6672-0.3912-2.414-0.9124-1.8657-2.94 2.4191-8.9491 4.3078-18.054 7.0288-26.905 2.1753-7.0764 6.7136-9.0455 12.885-6.6186 4.3493 1.7095 5.9997 5.0212 5.7252 9.5582z" fill="#2f3938"/>
<path d="m321.44 118.32c2.6223-14.368 5.0895-27.885 7.6131-41.712 1.94 0.9422 2.4356 2.6932 3.3076 4.0513 6.2255 9.6952 12.358 19.45 18.595 29.138 1.3678 2.1246 1.6207 3.0429-1.4954 3.5279-9.1332 1.4217-18.208 3.2165-28.02 4.9944z" fill="#2f3938"/>
<path d="m554.96 585.21 39.088 19.93c-7.7594 6.66-15.087 12.934-22.392 19.235-1.1169 0.9637-1.8788 1.0614-2.4553-0.5079-4.6015-12.525-9.2224-25.043-14.241-38.657z" fill="#2f3938"/>
<path d="M381.14,316.7653c-4.53-1.6842-3.239-5.8724-3.9144-9.187-1.9046-9.3458-.9-18.8483-1.4446-28.2689-.3669-6.3508.389-7.2507,6.8232-7.2066,9.7523.067,19.5033.3141,29.255.4846,2.0685.607,2.1968,1.9572,1.402,3.661-1.7943,2.488-1.6133,4.9728.0115,7.4555,1.4728,2.9433.1647,6.0314.4705,9.0355q.1836,4.254.3673,8.508a15.2249,15.2249,0,0,1-.1166,6.6661l.086,1.0518a10.17,10.17,0,0,1-.1274,5.7333l-2.8421,1.379a4.4474,4.4474,0,0,1-4.6571,1.6488c-4.7612-.8611-9.7449.2087-14.3679-1.6942-2.09.0144-4.2087-.3947-6.2488.4093a8.7756,8.7756,0,0,1-1.9556.7553A6.362,6.362,0,0,1,381.14,316.7653Z" fill="#1b663d"/>
<path d="M417.9306,287.4989c-.0744-3.5271.0776-7.0778-.2866-10.5748-.3623-3.4776,1.1626-4.6435,4.3174-4.6417,2.2444.0013,4.4924-.0763,6.7327-.2163,4.9414-.309,8.139.654,11.492,5.6763,4.4379,6.6469,8.5719,13.5922,13.182,20.17,2.8212,4.0256,4.5966,9.0427,6.7692,13.6486.5288,1.1213,1.0043,2.6519-.9941,2.9856-2.6751.4465-5.5218,1.4392-8.0414.9338-6.3283-1.2692-12.6336-.3823-18.9337-.538-4.1624-.103-8.3324.0842-12.4863-.3845a2.0288,2.0288,0,0,1-.3664-2.087c1.6151-2.8331.94-5.9441.9544-8.9371.0282-5.9158.2308-11.8358-.12-17.6888-.6434.504-.66,1.3534-1.1909,1.8727A.655.655,0,0,1,417.9306,287.4989Z" fill="#1b663d"/>
<path d="m413.99 259.67c1.0351 7.4139-5.082 5.8956-7.6519 5.5937-8.8456-1.0391-17.745 0.1379-26.851-1.2468 3.6824-5.1353 6.8855-10.466 10.942-15.039 4.9958-5.6327 9.1016-11.865 13.57-17.855a36.607 36.607 0 0 1 2.4582-2.9183c1.9712-2.1356 3.0569-2.5853 5.0686 0.6345 5.1117 8.1811 9.8475 16.52 14.334 25.058 1.77 3.368 4.37 6.4355 6.8607 10.749-5.2675 0-9.7906 0.09-14.308-0.0339-2.739-0.0754-1.7301-3.5171-4.4225-4.9422z" fill="#1b663d"/>
<path d="m369.67 294.6c-0.9515 5.9736 1.8185 11.631 1.4331 17.615-0.188 2.9181-1.4646 4.0054-3.9076 4.2241-7.4042 0.6633-14.827 1.1288-22.226 1.8418-3.0258 0.2916-3.5368-1.07-2.3633-3.2839 1.0142-1.913 2.6616-3.4781 3.8719-5.3012 5.58-8.4053 10.398-17.341 17.867-24.411 1.0157-0.9613 2.1724-1.5843 3.1616-2.4844 2.0662-0.8648 2.5388 0.3426 2.4838 2.0082-0.1078 3.2634 0.409 6.5485-0.3209 9.7908z" fill="#1c663c"/>
<path d="m454.44 322.27c-0.1834 1.6016-1.1916 2.0705-2.6682 2.0657q-11.034-0.0362-22.068-0.0092a1.99 1.99 0 0 1-2.2974-1.884l2.4037-0.9355a109.04 109.04 0 0 1 24.072 0.0088q0.2913 0.3678 0.5574 0.7542z" fill="#1a6843"/>
<path d="M381.14,316.7653l3.044-.2093c2.14-1.5567,4.6732-.4275,6.9466-1.0328a1.5892,1.5892,0,0,1,.7624-.6649,100.2413,100.2413,0,0,0,19.2175,1.2191q.4287,1.2378.8576,2.4751a3.39,3.39,0,0,1-2.5189,1.1988c-7.95.2626-15.9018.2842-23.8515-.0109a4.2061,4.2061,0,0,1-2.551-1.1945Z" fill="#f3d322"/>
<path d="m413.9 320.48c-0.4769 2.665-2.6027 1.7436-4.1892 1.8777-4.72 0.3992-9.51-0.7011-14.188 0.657-0.9308 1.1906-1.8576 1.2078-2.78-0.01-1.9124-1.1461-4.0187-0.4449-6.0318-0.6282-1.489-0.1355-3.3421 0.4661-3.665-1.9025 1.3644-1.1364 3.0137-0.94 4.6019-0.9452q10.826-0.0337 21.653 0c1.588 0.0055 3.2375-0.1906 4.5994 0.9512z" fill="#fed618"/>
<path d="m413.9 320.48q-15.427-0.0027-30.854-0.0054 1e-3 -0.9634 0.0023-1.927l28.921 0.0065a1.7631 1.7631 0 0 1 1.9307 1.9259z" fill="#f1d833"/>
<path d="m465.8 343.58a5.06 5.06 0 0 1-3.5454-0.9331l-0.2055-4.6473c-0.0759-3.9-1.7653-7.8139 0.1038-11.696a1.71 1.71 0 0 1 1.8864 1.9034c2.0752 2.2384-0.0919 5.4712 1.8163 7.7487a22.474 22.474 0 0 1-0.0556 7.6248z" fill="#fed616"/>
<path d="m417.81 314.68c-1.0185-0.1511-1.8932-0.5485-1.8969-1.7233-0.0189-6.03-0.0239-12.061 0.0487-18.091 0.0105-0.8761 0.8836-1.2268 1.7-1.3954 2.5338 7.0524 2.0581 14.126 0.1482 21.209z" fill="#f4d523"/>
<path d="M377.303,343.72c-.97-.2581-1.8787-.6522-1.8865-1.8261q-.0457-6.9486-.0019-13.8975c.0073-1.1732.9118-1.5716,1.8815-1.833l.0884-.01a93.5031,93.5031,0,0,1,.0119,17.5783Z" fill="#fed618"/>
<path d="m392.74 323a3.3184 3.3184 0 0 0 2.7809 0.0093 87.161 87.161 0 0 0 14.079 0.309c1.3809-0.0712 3.1769-0.9872 4.1277 1.0152-9.4345-0.0061-18.869 0.0384-28.302-0.074-1.3409-0.0159-3.3193 1.1049-3.9754-1.2981q5.6505 0.0208 11.29 0.0386z" fill="#4a6402"/>
<path d="M418.5951,287.9017c.283-1.3532-.3421-2.9455,1.0547-4.0054,1.2055,1.1394.9689,2.6469.9767,4.0585.038,6.88.0277,13.7593.0083,20.6389-.004,1.4335.0993,2.9008-.8555,4.1431q-.0484.9107-.0972,1.8214l-1.0875.1512A213.6379,213.6379,0,0,1,418.5951,287.9017Z" fill="#486000"/>
<path d="m413.74 292.74c-1.9617-2.9175-0.6111-6.0073-0.47-9.0348 0.8036-0.4923 2.01-2.8611 2.3654-0.1672 0.4086 3.0997 1.2964 6.6834-1.8954 9.202z" fill="#f4d523"/>
<path d="m453.89 321.51q-12.039-0.0045-24.076-0.0088c-0.2648-0.3265-1.8322-0.7215-0.8325-0.7592 8.5787-0.3234 17.18-0.3184 25.759 3e-3 0.974 0.0364-0.58 0.4345-0.851 0.765z" fill="#ccd964"/>
<path d="m418.6 287.9q0 13.404 0 26.808l-0.3948 0.0058-0.3923-0.04q-0.0732-10.605-0.1476-21.209 0.1341-2.9839 0.27-5.9674a4.6486 4.6486 0 0 1 0.6647 0.403z" fill="#c7dd72"/>
<path d="m413.26 276.25a4.6861 4.6861 0 0 0-1.402-3.6612c0.2816-1.6315 0.7218-2.4242 2.3843-0.9195 1.8382 1.6639 2.193 3.7132 1.0948 5.5584-0.7489 1.258-1.3518-0.6212-2.0771-0.9777z" fill="#f4d523"/>
<path d="m462.15 326.3q-0.0519 5.8474-0.1038 11.696c-1.7328-4.3407-1.1941-9.0525-2.2017-13.512q1.1526 0.9084 2.3055 1.8164z" fill="#dcc82d"/>
<path d="m465.85 335.96c-3.5858-1.8844-1.1137-5.1888-1.8162-7.7489q0.911-0.4891 1.822-0.9788-0.0028 4.3639-0.0058 8.7277z" fill="#dcc82d"/>
<path d="m369.67 294.6c-0.0374-2.7113-0.0908-5.4224-0.106-8.1339-9e-3 -1.6175 0.1736-3.309-2.0569-3.665 2.4839-1.6391 3.1406-0.0314 3.1455 1.9729 0.0081 3.2954 0.4381 6.6631-0.9826 9.826z" fill="#3c783f"/>
<path d="m413.99 307.91q0.0582-3.3332 0.1166-6.6662a6.4007 6.4007 0 0 1-0.1166 6.6662z" fill="#f4d523"/>
<path d="m413.95 314.7q0.0636-2.8669 0.1272-5.7336a4.6289 4.6289 0 0 1-0.1272 5.7336z" fill="#f4d523"/>
<path d="M415.859,474.7785a7.4059,7.4059,0,0,0-4.951,1.02q-1.3922-.1213-2.7845-.2432c-3.767-.9448-7.6734.32-11.4344-.72-2.5378-.9853-6.0413,1.83-7.8573-1.9964q20.2449.0048,40.49.01-.0184.9954-.037,1.99A44.0031,44.0031,0,0,1,415.859,474.7785Z" fill="#fed618"/>
<path d="m331.7 471.78c3.4093-1.21 6.79-0.795 10.184-0.0913a13.188 13.188 0 0 1-10.184 0.0913z" fill="#f5d321"/>
<path d="m352.81 471.48c-2.7144 1.665-4.2422 1.5068-6.1566 0.6945 1.6022-2.0009 3.2815-1.1507 6.1566-0.6945z" fill="#f5d321"/>
<path d="m396.69 474.83c3.7968 0.4714 7.7187-1.0416 11.434 0.7206q-5.6842 0.16-11.367 0.3219-0.0318-0.5206-0.0675-1.0425z" fill="#a5c76c"/>
<path d="M647.1448,434.9971c.7464-1.4783-1.1657-4.0455,2-4.5652,2.983-.49,5.229.1231,6.0651,4.25,2.1831-4.9411,4.7449-6.0107,8.5235-2.7839.8335.7117.71-.9607,1.073-1.5025,3.0841-2.5041,6.2026-3.246,9.3913-.2185,1.4938.5458,1.5534-1.4519,2.6868-1.5435,2.3665-.6328,4.6634-.7171,6.77.792.795.2213.5346,2.0409,1.9729,1.2647,1.2815-2.2336,3.192-2.6769,5.5055-2.0114,1.4512.3557,2.5681,4.3122,4.4088.3963a1.7632,1.7632,0,0,1,1.8885.2979c4.1023.355,4.4713,3.9022,5.7236,6.6941a4.58,4.58,0,0,1-3.5831,1.067c-16.55.013-33.0991.05-49.6487-.0177a5.271,5.271,0,0,1-2.3393-.4787A1.2107,1.2107,0,0,1,647.1448,434.9971Z" fill="#313b3a"/>
<path d="M676.4435,429.5725c-.724.9842.6682,3.518-2.1655,2.9575-.2661-2.8408-1.6917-3.9793-4.6332-3.6584-1.6265.1774-3.4413,1.0341-5.0243-.317l.03-2.1434c.2506-.195.5112-.5139.7827-.5143,4.8237-.0084,8.1221-1.8946,8.8219-7.05l1.8275-.9776c1.7012,1.472,1.1768,3.5527,1.4954,5.3968a4.7523,4.7523,0,0,0,.3425,1.235c3.2949,1.7252,4.7224.58,4.71-2.9694-.0056-1.572-.0694-3.1972,1.0983-4.5a2.01,2.01,0,0,1,2.21,1.09c1.4972,1.57.9191,3.691,1.486,5.4982,2.0476,3.2024,5.3474.9269,7.9191,1.8057a4.1173,4.1173,0,0,1,1.9167.9309q.084,1.5084.1686,3.0169-.9836.1139-1.9682.2274c-1.5418.4292-2.916-.2684-4.338-.6436-3.0628-.5038-5.2536.19-5.2875,3.8484-.077.8432-.4575,1.6567-1.3626,1.21-1.3786-.68-.6865-2.0857-.7364-3.2133C681.8208,427.3334,679.0214,429.11,676.4435,429.5725Z" fill="#f4d21c"/>
<path d="m647.14 435q0.0407 0.5533 0.0815 1.1069a0.7723 0.7723 0 0 1 0.393 0.9344 3.9131 3.9131 0 0 1-1.3966 0.97h-12.794c1.5025-2.5952 2.1155-4.9858 4.2023-6.5772 2.5586-1.9512 5.703-1.2175 6.8427 1.7889 0.5129 1.3525 1.0102 2.3322 2.6712 1.777z" fill="#313b38"/>
<path d="m681.84 413.22c-2.2139 0.81-4.3911 1.1421-6.417-0.4933a9.0168 9.0168 0 0 1-0.1378-7.18 14.114 14.114 0 0 1 6.6819-0.1448 7.5355 7.5355 0 0 1-0.1271 7.8181z" fill="#484d37"/>
<path d="M647.311,437.191q-.0423-.5424-.0846-1.086,27.9634-.0189,55.9269-.0371c.5954.3543.5354.7373.0474,1.1382-9.4016.9187-18.827.2067-28.24.3975-4.6371.0941-9.2777.0178-13.9156.0163C656.4718,437.36,651.8637,438.16,647.311,437.191Z" fill="#524a0a"/>
<path d="m685.88 424.26q0.03-3.0719 0.0593-6.1434c1.541-1.7517 3.6334-0.8677 5.4823-1.1475 1.2618 0.9824 1.223 2.4884 1.5036 3.8457 0.3689 1.7844 1.4359 4.21-0.9095 4.91-1.9113 0.5699-4.7489 1.6433-6.1357-1.4648z" fill="#414531"/>
<path d="m676.41 424.66-0.3292-6.7879c1.878-1.347 3.945-0.7255 5.967-0.5728 1.2744 2.4087 1.5577 5.1035-0.0219 7.1885-1.366 1.8029-3.688 1.3998-5.6159 0.1722z" fill="#374039"/>
<path d="M657.0173,413.034c-.058-1.5914-.0639-3.1867-.1868-4.7731-.1679-2.1669.9482-2.6885,2.8919-2.7014,1.974-.013,3.0341.5863,2.91,2.71-.0931,1.5881-.0885,3.1819-.1274,4.7732A3.881,3.881,0,0,1,657.0173,413.034Z" fill="#2f393b"/>
<path d="m666.57 393.84c3.744-0.6217 5.8355 0.4391 5.6975 4.7626-0.1614 5.0509-3.5778 2.3176-5.7145 2.6824-1.8805-2.4859-1.7752-4.9674 0.017-7.445z" fill="#313a3a"/>
<path d="m653.92 426.31-4.7359 0.1482c-1.9261-2.89-1.0663-5.8083-0.0908-8.7282 5.3672-0.5824 5.401-0.582 5.3379 4.4523-0.0172 1.3795 0.4366 2.8514-0.5112 4.1277z" fill="#41452c"/>
<path d="m666.59 405.63c5.33-0.1233 5.7668 0.4542 5.5754 7.3753-1.822 1.5327-3.978 1.8436-5.4793 0.0477-1.8575-2.2218-1.6147-4.9233-0.0961-7.423z" fill="#2d3941"/>
<path d="m660.75 437.28 42.448-0.0758c-0.8208 1.0465-1.9923 0.8545-3.0947 0.8518q-19.708-0.0489-39.416-0.1137 0.0312-0.331 0.0625-0.6623z" fill="#c7bb60"/>
<path d="m662.8 424.63a3.5438 3.5438 0 0 1-4.9814 0.8132c-1.9591-1.604-0.7788-4.3284-0.7489-6.598a3.7432 3.7432 0 0 1 5.4177 0.0461l0.2994-0.1066a4.6012 4.6012 0 0 1 0.0132 5.8453z" fill="#303938"/>
<path d="M674.2554,418.8466c.0068,7.99.0068,7.99-9.6052,7.5658q-.0608-.9093-.1228-1.8163a4.9906,4.9906,0,0,1,.01-5.745q.0521-.9093.1045-1.8185a8.159,8.159,0,0,1,9.5315.0279Z" fill="#d6c96a"/>
<path d="m685.88 424.26c1.463 2.1631 3.6349 1.9563 5.5208 1.1529 2.0567-0.8762 0.4534-2.809 0.5356-4.2419a22.438 22.438 0 0 0-0.5148-4.2019c2.8341 0.8243 2.6589 4.3236 4.9806 5.6034-0.7338 1.1893 0.4528 2.69-0.6211 3.8245q-3.5676 0.089-7.1352 0.178c-1.6018 0.0403-2.866-0.322-2.7659-2.315z" fill="#eacf38"/>
<path d="m667.52 389.3c1.6456-1.7125 1.9-4.6986 4.9513-4.66 0.5485 7e-3 1.7676 2.1723 1.4941 2.6225-1.3491 2.221-3.294 3.6208-6.4454 2.0375z" fill="#484b30"/>
<path d="m674.17 417.06q-4.7663-0.0151-9.532-0.0291a1.74 1.74 0 0 1 1.8748-2.0545 4.7791 4.7791 0 0 1 5.745-0.0229 1.78 1.78 0 0 1 1.9122 2.1065z" fill="#f4d21c"/>
<path d="m678.13 394.59c0.7677 0.9548 1.6068 1.8622 2.2829 2.878 0.669 1.0048 1.9307 2.144 1.3706 3.2619-0.7225 1.442-2.4146 0.6263-3.7135 0.62-1.6612-2.2684-1.7526-4.5227 0.06-6.7599z" fill="#3c402a"/>
<path d="m661.74 397.44c1.1016-1.1164 0.4107-3.65 2.9008-3.6687a8.0478 8.0478 0 0 1 0.0748 7.6427l-2.1786-0.0664c-1.3819-1.0748-1.8432-2.3374-0.797-3.9076z" fill="#f5d318"/>
<path d="m686.54 408.15c1.3452 1.5778 3.5077 2.6041 2.8246 5.038-0.0681 0.2429-1.2 0.4572-1.6762 0.271-2.7646-1.0807-1.5138-3.3489-1.1484-5.309z" fill="#5f5e30"/>
<path d="M683.7287,417.0312c.0472,1.4208.1355,2.8417.1344,4.2624-.0042,5.772-1.7246,6.709-7.5119,4.1192a3.3144,3.3144,0,0,1,1.8725-.2856c3.2992.5138,4.7465-.7272,4.2575-4.1646a8.577,8.577,0,0,1,.1935-3.8078Z" fill="#b5ae67"/>
<path d="m649.24 418.22q-0.0258 4.1228-0.0514 8.2454l-1.8267 0.0433a2.4931 2.4931 0 0 1-0.1309-3.6945c0.4915-1.601-0.0823-3.4183 0.9949-4.9q0.7596-0.6842 1.0141 0.3058z" fill="#3b3b11"/>
<path d="m649.24 418.22-1.0137-0.3063c4.5083-2.2605 6.7177-1.2853 6.6618 3.1265-0.0223 1.7585 0.9446 3.8259-0.9651 5.2792a27.156 27.156 0 0 1-0.0545-4.2554c0.5455-3.9017-1.3039-4.7105-4.6285-3.844z" fill="#e7d562"/>
<path d="m664.62 428.55c1.8946-0.0261 3.8049 0.0931 5.68-0.1108 3.1876-0.3465 4.3484 1.07 3.9767 4.0849-2.1839-5.039-6.1566-2.1311-9.4733-2.1322q-0.0896-0.9225-0.1834-1.8419z" fill="#ead559"/>
<path d="m678.13 394.59q-0.03 3.38-0.06 6.76l-1.8634-0.0321a6.7977 6.7977 0 0 1 0.0135-7.4719c0.7827-0.126 1.5581-0.2342 1.9099 0.744z" fill="#2a3847"/>
<path d="M682.6747,417.1548c.0883.6335.231,1.2649.2567,1.901.2735,6.7471.2684,6.7473-6.5806,6.3567a.79.79,0,0,1,.0613-.7563c6.893,1.3863,5.3748-3.6677,5.6365-7.36A.6005.6005,0,0,1,682.6747,417.1548Z" fill="#433d02"/>
<path d="M660.752,437.2819q-.0158.3336-.0624.6633-7.2341.0306-14.4675.0631.5442-.4089,1.0881-.8173Z" fill="#b9b475"/>
<path d="M666.5859,405.6328a9.9938,9.9938,0,0,1-.0311,1.89c-.9717,4.7547,1.1227,6.33,5.6065,5.4846a1.55,1.55,0,0,1,.12.9328,8.3828,8.3828,0,0,1-5.8454.1809l-.974-1.0692c-.464-2.552-.9072-5.1031.2789-7.5945A1.9637,1.9637,0,0,1,666.5859,405.6328Z" fill="#746401"/>
<path d="m661.74 397.44q0.3981 1.9548 0.7966 3.9085c-1.0873 0.47-2.5937 1.8846-3.2789 0.4983-1.0291-2.0819 1.1044-3.2145 2.4823-4.4068z" fill="#736b27"/>
<path d="m656.94 417.03-0.0207-2.1672a5.1988 5.1988 0 0 1 5.7-0.0146l-3e-3 2.1862a5.2043 5.2043 0 0 1-5.6763-0.0044z" fill="#f4d21c"/>
<path d="M664.5376,418.8511q-.0045,2.8728-.01,5.7453-.8658.0177-1.73.0363l-.0132-5.8452Z" fill="#f4d21c"/>
<path d="m656.25 427.89c2.7181-1.6629 4.2462-1.4925 6.1624-0.6938-1.607 1.9941-3.2853 1.1443-6.1624 0.6938z" fill="#f4d21c"/>
<path d="M647.2264,422.8119q.0654,1.8473.1309,3.6945l-2.8211-.908c-.6623-.6732-.7892-1.3333.0483-1.97Z" fill="#fed90c"/>
<path d="m644.58 423.63q-0.0242 0.9846-0.0483 1.97c-0.8535 1.4695-2.0477 1.09-3.7571 0.4724 1.4809-0.8801 1.3568-3.3176 3.8054-2.4424z" fill="#524d15"/>
<path d="m649.9 413.07c0.4834-0.8964 0.7449-2.0164 2.0751-2.06 1.9881-0.1707 1.72 1.1991 1.6606 2.4283a1.5286 1.5286 0 0 1-1.0053 0.9805c-1.0637-0.1367-2.6004 0.6809-2.7304-1.3488z" fill="#29394a"/>
<path d="M681.8448,413.2172q.0635-3.9093.127-7.8185a1.9086,1.9086,0,0,1,.8817.0289c.9306,2.5237.6313,5.08.2019,7.6394Z" fill="#423b01"/>
<path d="m683.06 413.07q-0.1014-3.82-0.2025-7.64c1.6351 2.5056 1.2859 5.0629 0.2025 7.64z" fill="#e1d47a"/>
<path d="m675.29 405.54q0.0711 3.5936 0.14 7.1838c-1.9411-2.3606-1.66-4.7603-0.14-7.1838z" fill="#ead558"/>
<path d="m665.74 405.46q-0.1394 3.7968-0.2787 7.5939c-1.222-2.5792-1.5691-5.1268 0.2787-7.5939z" fill="#e7d564"/>
<path d="M664.7135,401.4148q-.0376-3.8214-.0751-7.6427a4.7969,4.7969,0,0,1,.8695.0449,13.811,13.811,0,0,1,.1615,7.4551Z" fill="#cdc478"/>
<path d="M665.67,401.2721q-.08-3.7279-.1612-7.4555.5289.0129,1.0588.0248-.008,3.7225-.0166,7.4449l-.4417.065Z" fill="#4a4100"/>
<path d="M676.2206,393.8457q-.0068,3.7359-.0136,7.4718l-.4549.0855-.4614-.04a11.8643,11.8643,0,0,1-.1008-7.5692Z" fill="#534500"/>
<path d="m675.19 393.79q0.051 3.7854 0.1015 7.57a6.8471 6.8471 0 0 1-0.1015-7.57z" fill="#dfd170"/>
<path d="M653.9533,409.2146c1.1828,2.1629,2.3592,4.3248-.9153,5.7821q-.5062-.3225-.3156-.6057c.1218-.1818.243-.2732.3652-.2732l-.0836-.1147C654.27,412.5951,652.6719,410.62,653.9533,409.2146Z" fill="#edd64c"/>
<path d="M695.78,426.401c-.3463-1.3644-1.3474-2.8352.6214-3.8238.2119,1.276,1.5426,2.2979.86,3.7783Q696.52,426.3784,695.78,426.401Z" fill="#62602f"/>
<path d="M656.9353,417.0294q2.8388.0015,5.677.0038a4.4643,4.4643,0,0,1-.0738.8639,8.0884,8.0884,0,0,1-5.5074.03A4.1525,4.1525,0,0,1,656.9353,417.0294Z" fill="#cfc986"/>
<path d="M662.615,414.8476q-2.85.0079-5.7006.0153a4.0438,4.0438,0,0,1,.058-.8633,7.9518,7.9518,0,0,1,5.574-.0332A4.6138,4.6138,0,0,1,662.615,414.8476Z" fill="#cdc47c"/>
<path d="m653.95 409.21c-0.3768 1.5842 0.9338 3.5028-0.9491 4.7885-0.1074-1.0768 0.3786-2.3569-1.0248-2.99q0.9865-0.899 1.9739-1.7985z" fill="#9b8506"/>
<path d="M662.5464,413.9664q-2.7876.016-5.5746.0326.0234-.4819.0455-.965l5.4873.0088A1.2579,1.2579,0,0,1,662.5464,413.9664Z" fill="#443b00"/>
<path d="M657.0311,417.9274q2.7543-.0145,5.5081-.03-.0278.4977-.0542.9965l-5.4177-.0463A1.1617,1.1617,0,0,1,657.0311,417.9274Z" fill="#433d00"/>
<path d="m666.44 414.12q2.9226-0.09 5.8454-0.1809-0.0093 0.5068-0.019 1.0135-2.8731 0.0112-5.7453 0.0228-0.0565-0.4261-0.0811-0.8554z" fill="#e7d564"/>
<path d="m653.09 414.12a4.7555 4.7555 0 0 0-0.05 0.8787c-1.1811-0.4185-3.6835 1.3141-3.1336-1.9238 0.7278 1.3645 1.9706 1.1592 3.1836 1.0451z" fill="#d5b920"/>
<path d="m548.87 384.38a18.471 18.471 0 0 1 2.7656-8.9888c1.0988-1.66 2.6079-2.9762 4.7378-2.6566 2.4064 0.3613 3.4012 2.3106 3.7487 4.4336 0.7209 4.4042-0.3847 8.5578-2.3122 12.482-1.1111 2.2625-2.7862 4.0937-5.6264 3.373-2.5913-0.6575-3.137-2.91-3.3044-5.24-0.0575-0.7945-0.0091-1.5957-0.0091-3.4037z" fill="#313b39"/>
<path d="M301.37,380.3267a15.1966,15.1966,0,0,1-1.92-.0131c-1.6972-.2178-4.4518.8679-4.8906-.6534-.7634-2.6464-.4251-5.6781-.1794-8.5164.106-1.223,10.9981-1.5772,13.7929-.5927,2.98,1.0494,2.9915,3.4153,2.7122,5.9025s-1.9262,3.604-4.2327,3.7784c-1.7513.1324-3.5206.0262-5.282.0262Z" fill="#323c3a"/>
<path d="m391.68 389.54c2.0063-6.6126 3.9858-13.137 6.356-20.95 2.5853 7.6036 4.79 14.089 7.1231 20.95z" fill="#333d3c"/>
<path d="M128.4786,434.29l.1338,1.6865c-.9352,1.0886-2.214,1.156-3.5023,1.1545-16.8879-.02-33.7761.1275-50.6638-.0717a5.0736,5.0736,0,0,1-1.385-.3465,1.1389,1.1389,0,0,1-.5308-1.5846c.7791-1.519-.8528-4.1059,2.1022-4.6685,2.9293-.5578,5.2549.0446,6.1946,3.801,2.2552-4.8088,4.851-5.8567,8.2218-1.9777.7051.8114,1.084.8017,1.681-.17,2.25-3.6617,5.4837-2.4538,8.6184-1.6134.7479.5533,1.4827.79,2.1713-.09l1.1179-.9689a6.1844,6.1844,0,0,1,5.2393.072c1.8216,1.0162.7981,3.262,1.8976,4.5662,3.22.2481.9817-4.7758,4.9309-4.5637,3.4577.1858,3.3067,2.834,4.8144,4.5822,1.9506-1.1755.9184-3.1663,1.4177-4.6493,2.0547-.5779,4.176-1.4575,5.5118,1.2181A6.3091,6.3091,0,0,0,128.4786,434.29Z" fill="#333d3a"/>
<path d="m72.53 435.13 0.0307 0.9646a1.4932 1.4932 0 0 1 0.5079 1.1216 1.05 1.05 0 0 1-0.8838 0.7822l-1.5292 0.2228c-1.9106-0.0654-3.821-0.1542-5.7323-0.1895-1.7507-0.0324-3.5025-0.0069-5.6-0.0069a12.129 12.129 0 0 1 3.3512-5.9229c2.9593-2.835 5.9434-2.3457 7.5155 1.3666 0.4806 1.1351 0.8727 2.0664 2.34 1.6615z" fill="#353e38"/>
<path d="m90.902 393.96c2.3167 0.5257 6.01-2.5854 6.62 2.372 0.2031 1.6506 1.0433 4.1425-0.5306 4.8713-1.7706 0.82-4.3636 1.1864-6.0594-1.0174a8.463 8.463 0 0 1-0.03-6.2259z" fill="#353d34"/>
<path d="M92.03,405.3847c6.4012.0578,6.4272.0995,5.3563,8.5983a6.5008,6.5008,0,0,1-5.2826.0117l-.1067-.0361A12.8894,12.8894,0,0,1,92.03,405.3847Z" fill="#353e35"/>
<path d="m82.492 413.09q-0.1856-1.946-0.3712-3.8918c0.178-4.6938 2.8819-4.1764 5.9591-2.8887a14.706 14.706 0 0 1 0.0959 6.7867 4.79 4.79 0 0 1-5.6838-0.0062z" fill="#333d3a"/>
<path d="m100.58 393.96c5.273-0.6526 4.98 4.2645 7.7343 7.2888-3.069 0.2688-5.347 0.6124-7.6576-0.1569a10.036 10.036 0 0 1-0.0767-7.1319z" fill="#3c422d"/>
<path d="m78.316 426.31-3.7873 0.1585c-1.3585-1.646-0.9875-3.5992-0.8895-5.4653 0.0945-1.8 0.9932-2.9965 2.9811-2.9111a2.5292 2.5292 0 0 1 2.6 2.7681c0.0484 1.8606 0.5148 3.8214-0.9043 5.4498z" fill="#2d393e"/>
<path d="m101.41 407.29c-0.2664-0.7451-1.383-1.721 0.4064-1.9758a10.81 10.81 0 0 1 6.4425 0.8579 10.094 10.094 0 0 1-0.0677 6.7149l-0.9451 0.3448c-2.4846-1.451-4.0076-3.8464-5.8361-5.9418z" fill="#3a3a15"/>
<path d="M116.8844,417.0188q.0585.68.1171,1.3608c.981,2.239,1.6155,4.5349-.3808,6.5061a2.4042,2.4042,0,0,1-3.0817.0958c-2.2027-1.5957-1.25-3.9645-1.2856-6.07a2.7837,2.7837,0,0,1,.7446-1.6922l1.979-.3681Z" fill="#394136"/>
<path d="m101.41 407.29a10.169 10.169 0 0 1 5.837 5.9417c-6.0384 1.2735-6.2216 1.0869-5.837-5.9417z" fill="#4c5034"/>
<path d="m92.36 389.42c2.8428-1.5746 2.406-5.1114 5.2414-5.0113 1.4338 0.0506 2.8378 2.9153 2.3575 3.5424-1.4867 1.9408-3.9354 2.3826-7.5989 1.4689z" fill="#43452a"/>
<path d="M78.3165,426.3071c.0141-1.434.059-2.8686.0338-4.3019-.0249-1.4138.1976-3.0971-2.0005-3.0222-2.1929.0747-1.8066,1.8161-1.8532,3.1813-.0488,1.4318.0168,2.8674.0325,4.3013l-.981.0178c-.8965-2.5369-.4393-5.1276-.3061-7.7054a2.565,2.565,0,0,0,.4221-.8456c6.6756-1.2519,7.28-.3322,5.58,8.4972l-.4726.0037Z" fill="#534801"/>
<path d="M79.2446,426.43a19.24,19.24,0,0,1,.1112-2.7964c.8525-4.68-.9788-6.6117-5.6917-5.7008q-.51-.4447-1.0183-.8881c.3189-.0216.6367-.0563.9552-.0658,6.7171-.2017,6.7183-.201,6.6888,6.6235-.0041.9567-.027,1.9133-.0416,2.8694Q79.7462,426.45,79.2446,426.43Z" fill="#e0d26f"/>
<path d="m87.74 399.77c0.2745 1.5254-0.651 2.0245-1.7854 2.2979-0.9262 0.2233-1.4492-0.18-1.5588-1.1476-0.1935-1.7068 1.4275-1.9389 2.3163-2.4274 1.1219-0.6168 0.8254 0.7717 1.0279 1.2771z" fill="#3c3d17"/>
<path d="m69.652 422.54c0.7372 2.0163 1.3212 3.4239-0.752 3.9538-0.6481 0.1656-1.8767 0.3747-1.947-0.6685-0.1235-1.8304 1.8392-1.7783 2.699-3.2853z" fill="#48440e"/>
<path d="m78.51 414.06q-0.944 0.3848-1.8883 0.7692c-2.2433-1.9812 0.122-3.2035 0.7744-4.7076 1.8872 0.884 2.0421 2.2579 1.1139 3.9384z" fill="#353c31"/>
<path d="m112.9 408.23q0.8417 1.8933 1.6831 3.7868c-0.3817 1.3906-1.2162 1.755-2.4992 1.1026l7e-3 -0.0774c-0.1795-1.6795-1.6833-3.5817 0.8091-4.812z" fill="#4f4607"/>
<path d="m92.03 405.38a20.139 20.139 0 0 0-0.0336 8.5738 7.1561 7.1561 0 0 1 0.0336-8.5738z" fill="#ddc32c"/>
<path d="M87.9093,412.9922q.0854-3.3417.1708-6.6835a7.9309,7.9309,0,0,1-.0238,7.8975q-.2077-.1574-.416-.3145A.783.783,0,0,1,87.9093,412.9922Z" fill="#ddc32c"/>
<path d="m73.242 418.78q0.1535 3.8532 0.3064 7.7059c-1.6668-2.5068-1.183-5.0986-0.3064-7.7059z" fill="#d8cd75"/>
<path d="M107.877,429.5129q-2.6211-.0357-5.2409-.0717-.5273-.4654-1.0567-.93c2.1275.02,4.2542.0353,6.3806.07.0929.0015.2772.2074.2582.2628A4.6648,4.6648,0,0,1,107.877,429.5129Z" fill="#e6d565"/>
<path d="m90.902 393.96q0.0148 3.1159 0.03 6.2289a4.8446 4.8446 0 0 1-0.03-6.2289z" fill="#e5d569"/>
<path d="m100.58 393.96q0.0409 3.57 0.0793 7.1357c-1.8205-2.3613-1.6067-4.7413-0.0793-7.1357z" fill="#e4d56c"/>
<path d="m112.08 413.12a1.9676 1.9676 0 0 0 2.4982-1.1025c2.22 0.7056 0.7226 1.9028 0.39 2.9457a2.8991 2.8991 0 0 1-2.8882-1.8432z" fill="#dec42f"/>
<path d="M78.51,414.0558a7.3939,7.3939,0,0,0-1.114-3.9384,1.7511,1.7511,0,0,1,1.9176-.8635,5.4326,5.4326,0,0,1-.03,4.8373l-.3905.0587Z" fill="#6b5d06"/>
<path d="m112.9 408.23c-1.5261 1.3928-0.5094 3.2132-0.809 4.8121-1.81-1.6443-0.6325-3.753-0.8761-5.6395 0.7256-0.0568 1.4155-0.0432 1.6851 0.8274z" fill="#bbb160"/>
<path d="M108.1941,412.8884q.034-3.3566.0679-6.714.3948.21.8031.3947.0076,3.1089.0157,6.2172A2.3666,2.3666,0,0,1,108.1941,412.8884Z" fill="#4c5034"/>
<path d="M92.1032,413.9948q2.6432-.0072,5.2845-.0131c.0556.3181.1131.6348.17.9512q-2.82.0046-5.6377.01Q92.0121,414.4686,92.1032,413.9948Z" fill="#e2d471"/>
<path d="m87.897 414.92c-1.8357-0.3441-3.9686 0.9084-5.5083-1.0254a8.3017 8.3017 0 0 1 5.4958 0.1094l0.1715 0.199a6.8687 6.8687 0 0 1-0.159 0.717z" fill="#d1c87b"/>
<path d="m101.52 430.41c-0.074 1 0.3808 2.51-1.252 2.39-1.0446-0.0771-0.9683-1.37-0.9193-2.3q1.0855-0.0451 2.1713-0.09z" fill="#fad720"/>
<path d="m79.284 414.09q0.0147-2.4194 0.0294-4.8379a4.598 4.598 0 0 1 0.9518-0.0593c-0.501 1.5977 1.2005 3.636-0.9812 4.8972z" fill="#e5d568"/>
<path d="m377.4 343.73q-0.0062-8.7887-0.0121-17.578a37.474 37.474 0 0 1 0.0121 17.578z" fill="#bada7c"/>
<path d="m442.68 427.67-17.047 0.0362c3.4429-2.3624 7.3066-0.8179 10.965-1.143 2.0478-0.182 4.1285 0.0055 6.1941 0.0269q-0.0565 0.5405-0.1118 1.0799z" fill="#bccc58"/>
<path d="m108.26 422.73a2.8579 2.8579 0 0 0 0.0061 0.884c-1.0968 3.228-3.5994 1.7775-4.9121 0.855-1.786-1.2551-1.8556-3.6912-0.9212-5.6966 0.8357-1.7933 2.7658-1.7026 4.2245-1.1989 2.6014 0.8983 2.3565 3.0283 1.6027 5.1565z" fill="#2e393d"/>
<path d="m82.304 425.16 0.32-6.4438a5.149 5.149 0 0 1 5.62-0.0766 5.5317 5.5317 0 0 1 0.3726 5.6278c-1.3177 1.9-3.4453 1.0043-5.1751 1.4914a0.7511 0.7511 0 0 1-1.1375-0.5988z" fill="#374038"/>
<path d="M108.2573,422.7282c-.2539-1.7737.4793-4.0266-2.1527-4.67a2.6215,2.6215,0,0,0-2.9967.8974,3.6306,3.6306,0,0,0,.2923,4.4389c1.4336,1.9073,3.1712,1.6727,4.8632.2181,1.9709,2.3726-.5078,2.5338-1.5289,2.3805-1.7716-.2661-4.6014,1.0195-4.9622-2.2039a63.5178,63.5178,0,0,1-.08-6.7186l-.0063.012c.96-.0276,1.92-.0827,2.8788-.08C109.3707,417.0172,109.78,417.6579,108.2573,422.7282Z" fill="#545329"/>
<path d="M82.3045,425.1578l.9969.2522c1.4581-.848,3.33.4377,4.6911-.9105l-.1148-5.6016a2.0024,2.0024,0,0,1-.4593-.9679,1.6836,1.6836,0,0,1,.4715-.9534l3.9893-.0621a1.6735,1.6735,0,0,1,.2038,1.244,14.5358,14.5358,0,0,1-.6636,1.8523c-.4533,2.1563-.0823,4.494-1.4176,6.4533C87.4281,426.0753,84.4747,427.9242,82.3045,425.1578Z" fill="#ebce32"/>
<path d="M91.7643,417.6685a4.6943,4.6943,0,0,1,.1147-.7541q3.8162.0342,7.6316.0692l-.0191-.0191q.0307,1.6613.0623,3.3215c.12,6.8293-.7495,7.4427-7.7479,5.4669.1238-.1845.2475-.369.3689-.5557a4.2138,4.2138,0,0,1,2.2414-.7554c1.84-.1016,2.9919-.7062,2.9162-2.876-.0678-1.9427-1.155-2.424-2.7654-2.5229a6.2043,6.2043,0,0,1-1.8662-.4277A2.0486,2.0486,0,0,1,91.7643,417.6685Z" fill="#cec475"/>
<path d="M112.998,417.2194a3.3684,3.3684,0,0,0,.0694.9488c.7823,2.0831-1.9113,6.0995,2.046,6.0949,3.2979-.0039,1.1236-3.8779,1.8889-5.881.2724.1687.5457.34.8189.5112.517,2.4946,1.7579,5.0908-1.0008,7.1261-5.8-.0025-6.4431-1.2773-4.5007-8.9246A.7268.7268,0,0,1,112.998,417.2194Z" fill="#453e02"/>
<path d="m112.32 417.09a30.278 30.278 0 0 1-0.2491 3.7467c-0.7616 4.0651 1.2136 5.3009 4.879 4.9093l-0.0375 0.637c-6.1792 0.2922-7.7182-2.8221-4.5924-9.293z" fill="#b9b169"/>
<path d="m121.14 422.2c0.9434 1.1729 2.1566 2.0463 1.9142 3.5661-0.096 0.6022-1.0364 0.771-1.5487 0.3452-1.27-1.0553-0.9719-2.3734-0.3655-3.9113z" fill="#6e6728"/>
<path d="m116.91 426.39q0.0221-0.3185 0.0377-0.637c1.9234-2.0787 0.3021-4.6078 0.8714-6.8581 1.1429 2.6741 2.7755 5.4073-0.9091 7.4951z" fill="#ddd072"/>
<path d="M90.8114,418.8838q.4778-.6081.9542-1.2158l.0607.3982a3.64,3.64,0,0,1,.8466,1.16,9.2528,9.2528,0,0,1,.021,5.0176,4.4268,4.4268,0,0,1-.8258,1.1826l-.0615.3262q-.4431-.1509-.8955-.2657A10.831,10.831,0,0,1,90.8114,418.8838Z" fill="#6c5900"/>
<path d="m90.811 418.88q0.05 3.3019 0.1 6.6038-0.4555 0.4889-0.91 0.9774c0.2372-2.5312-0.9386-5.2124 0.81-7.5812z" fill="#e6d564"/>
<path d="m126.45 430.67c-1.6136-1.4235-3.5973-1.168-5.513-1.2169 1.6277-1.868 3.7342-0.6318 5.6125-0.8679q-0.0501 1.0437-0.0995 2.0848z" fill="#e5d367"/>
<path d="m87.908 417.85q-0.015 0.5214-0.03 1.0433-2.627-0.0894-5.2536-0.1817a0.8509 0.8509 0 0 1-0.1834-0.644c1.7785-1.1748 3.6174-0.8309 5.467-0.2176z" fill="#423c00"/>
<path d="m87.908 417.85q-2.7347 0.11-5.4681 0.2184c1.4667-2.1134 3.6308-0.7512 5.4509-1.0963a2.0393 2.0393 0 0 1 0.0172 0.8779z" fill="#d0c983"/>
<path d="M87.8844,414.0057q-2.7488-.0552-5.4966-.11a.95.95,0,0,1,.1043-.8072q2.7087-.0469,5.4172-.096Z" fill="#494001"/>
<path d="m128.52 437.21a4.765 4.765 0 0 1-0.0547 0.8381q-20.246-0.07-40.491-0.1384a0.8923 0.8923 0 0 1 0.9331-1.1921c11.969-0.068 23.938-0.0214 35.908-0.0129 1.2421 9e-4 2.5669-0.3573 3.7049 0.5053z" fill="#c5b95e"/>
<path d="M87.9682,437.1794q.0161.3639.0081.7269-7.8925.0434-15.7882.09c.16-.2522.3267-.5031.4959-.752A45.4913,45.4913,0,0,1,87.9682,437.1794Z" fill="#bcb675"/>
<path d="M87.9682,437.1794q-7.6429.0322-15.2851.0645-.06-.5744-.1217-1.15,28.0258-.0579,56.0515-.1155c.745.4651.5386.8617-.0911,1.227Z" fill="#534b0c"/>
<path d="m477.54 470.9h3.85a1.7915 1.7915 0 0 1-2.1605 1.8536c-1.1728-0.0748-1.5743-0.8278-1.6895-1.8536z" fill="#f2d832"/>
<path d="m465.92 474.59-12.634 0.1834-0.4061 0.0031-0.3767-0.1462c2.753-2.5808 10.601-2.6044 13.417-0.0403z" fill="#f9d41c"/>
<path d="M478.2342,427.94c-2.478,1.1232-5.0736.3221-7.6121.4654,2.1332-1.395,4.5793-.94,6.91-1.1681Z" fill="#1b663d"/>
<path d="m415.86 474.78q6.7131 0.0291 13.426 0.059-1.098 0.5135-2.1967 1.0264-5.6175-0.07-11.232-0.141a3.9159 3.9159 0 0 1 0.0025-0.9444z" fill="#cfdf6c"/>
<path d="m450 474.84c-3.4737 1.7314-7.2139 0.4657-10.796 0.961a4.3061 4.3061 0 0 1-0.4558-0.092c-0.4324-0.1343-0.8069-0.7611-0.4005-0.7741 3.8812-0.1251 7.7676-0.0866 11.653-0.0949z" fill="#c5da6f"/>
<path d="m511.42 539.39c0.094 7.039-6.5506 13.513-14.016 13.655a11.54 11.54 0 0 1-11.759-11.372c0.044-6.796 7.1352-13.481 14.38-13.556a11.531 11.531 0 0 1 11.395 11.273z" fill="#fefefe"/>
<path d="m285.54 537.96a4.57 4.57 0 0 1-6.2093 4.3515c-4.2954-1.84-7.6173-5.2053-11.362-7.9035-1.8785-1.3537-0.1889-2.69 0.7052-3.5105 1.493-1.37 1.9767-5.3112 4.4772-3.8467 4.2034 2.4617 8.42 5.2314 11.596 9.1292a6.193 6.193 0 0 1 0.7921 1.78z" fill="#fcfcfc"/>
<path d="m391.35 315.59c-2.135 2.223-4.8134 0.3962-7.1692 0.9619q0.3855-0.4955 0.7678-0.99a11.188 11.188 0 0 1 6.4014 0.0281z" fill="#b8d470"/>
<path d="m391.35 315.59-6.401-0.0284c2.1758-1.5913 4.6107-0.6478 6.9427-0.7083a2.1789 2.1789 0 0 1-0.5417 0.7367z" fill="#516801"/>
<path d="m419.78 312.74q-0.0642-14.421-0.1291-28.841c0.5533-1.9068 1.48-2.3939 1.8372-0.0751a50.592 50.592 0 0 1 0.1208 7.5917c0.0057 5.8627 0.0276 11.726-0.0164 17.588-0.0112 1.4807 0.546 3.3477-1.8125 3.7365z" fill="#146748"/>
<path d="M691.5538,428.5211c1.3741.1005,2.9549-.549,3.9076,1.0782-.1645,1.5316.3354,3.2352-1.1981,4.483-2.0654-.79-1.3855-3.39-2.9261-4.5025A.6765.6765,0,0,1,691.5538,428.5211Z" fill="#eacf38"/>
<path d="m691.55 428.52q-0.1062 0.53-0.2146 1.0593c-2.35 0.1938-5.1565-0.3959-5.5035 3.2216-0.8474-5.1008 2.673-4.3737 5.7181-4.2809z" fill="#e6d45f"/>
<path d="m676.44 429.57c2.7263-1.3481 5.4783-2.8482 7.2924 1.2281-2.1888-1.8434-4.8459-0.9084-7.2924-1.2281z" fill="#e5d363"/>
<path d="m669.49 425.62c-3.2313 0.6162-4.1644-0.8223-4.0212-3.9293 0.1176-2.5522 0.2891-4.1364 3.5372-4.1931 3.4834-0.0607 4.3009 1.4125 4.3871 4.5329 0.0838 3.0351-1.0591 4.0937-3.9031 3.5895z" fill="#514a13"/>
<path d="m87.992 424.5c-1.1963 2.2-3.0293 1.1158-4.6916 0.91 1.3443-1.4368 3.1591-0.4456 4.6916-0.91z" fill="#403b01"/>
<path d="M91.8681,425.4268a5.2029,5.2029,0,0,1-.0129-.8355,3.7074,3.7074,0,0,1,1.657-.9588c.6106-.1565,1.2345-.2695,1.8379-.4444,1.2653-.9858,1.2582-1.9668.0022-2.9422-.5955-.1627-1.1951-.2914-1.7942-.4315a3.4582,3.4582,0,0,1-1.5956-.958q-.0587-.3969-.1363-.79c6.4617-.8646,7.0181-.5387,6.9686,4.1162C98.7323,428.0516,94.42,424.8628,91.8681,425.4268Z" fill="#463d00"/>
<path d="M93.8119,424.5634q-.9784.0143-1.9567.0281.0528-2.8675.1065-5.7349l1.861.0224A4.1913,4.1913,0,0,1,93.8119,424.5634Z" fill="#28384f"/>
<path d="m669.61 424.58c-1.88 0.1777-3.1417-0.3066-3.0957-2.5358 0.0358-1.7282 0.1145-3.1929 2.4471-3.2314 2.0575-0.0341 3.39 0.39 3.3511 2.8533-0.0307 1.9312-0.5441 3.1256-2.7025 2.9139z" fill="#2d393c"/>
<path d="M93.8118,424.5634q.0049-2.8428.01-5.6849.9209-.0063,1.8407-.0136a4.53,4.53,0,0,1,.0272,5.6932Z" fill="#4a4e33"/>
<path d="m95.69 424.56q-0.0131-2.847-0.0266-5.6936c2.7488 2.1272 2.7558 3.5796 0.0266 5.6936z" fill="#28384f"/>
</svg>
