<?xml version="1.0" encoding="UTF-8"?>
<svg viewBox="0 0 233 3455" xmlns="http://www.w3.org/2000/svg">
<g style="isolation:isolate">
<path d="m0.2991 822.52a56.153 56.153 0 0 0-0.51 7.51l0.0147 45.468h-0.0233v-45.48a56.222 56.222 0 0 1 0.5083-7.4977z" fill="#a0a0a0"/>
<polygon points="0.321 2349.9 -0.219 2349.9 -0.219 965.62 -0.163 965.62" fill="#a0a0a0"/>
<polygon points="-0.209 822.51 -0.219 822.51 45.975 568.42 45.987 568.36 45.987 568.43" fill="#929393"/>
<path d="M.2888,822.5216H-.2106l.0014-.0117H.29Z" fill="#a0a0a0" opacity=".5" style="mix-blend-mode:multiply"/>
<path d="M22.5487,821.9114l.01,0-.0014.0121.0191,53.5758H-.1959l-.0147-45.4679a56.1526,56.1526,0,0,1,.51-7.51h-.01L.29,822.51Z" fill="#a0a0a0"/>
<path d="m57.853 578.7c0 3.7251-5.4387 35.142-11.866 73.475-7.51 44.846-16.431 99.125-19.645 129.64-1.4112 13.302-2.7046 26.633-3.7829 40.087h-0.01l-22.259 0.5989h-0.4992l46.196-254.08v-242.58a60.196 60.196 0 0 0 6.9913 5.776c-0.7454 61.692 4.8745 190.98 4.8745 247.08z" fill="#929393"/>
<path d="m57.853 578.7c0 3.7251-5.4387 35.142-11.866 73.475-7.51 44.846-16.431 99.125-19.645 129.64-1.4112 13.302-2.7046 26.633-3.7829 40.087h-0.01l-22.259 0.5989h-0.4992l46.196-254.08v-242.58a60.196 60.196 0 0 0 6.9913 5.776c-0.7454 61.692 4.8745 190.98 4.8745 247.08z" fill="#232b2a" opacity=".5" style="mix-blend-mode:multiply"/>
<path d="m66.562 338.62c1.3788 0.478 2.7738 0.8721 4.1762 1.2345 50.041 12.93 114.3-47.066 145.51-137.12 32.083-92.58 17.084-181.84-33.5-199.37-50.586-17.53-117.6 43.309-149.68 135.89-27.201 78.484-20.548 154.57 12.925 186.6a60.196 60.196 0 0 0 6.9913 5.776 54.669 54.669 0 0 0 13.583 6.9957zm-21.21-195.11c29.635-85.511 90.815-141.96 136.65-126.07s58.965 98.084 29.329 183.6c-29.634 85.511-90.812 141.96-136.64 126.07-45.837-15.884-58.968-98.083-29.335-183.6z" fill="#232b2a" opacity=".5" style="mix-blend-mode:multiply"/>
<path d="m0.4434 2699.9a56.167 56.167 0 0 0 0.51 7.51 56.135 56.135 0 0 1-0.51-7.51z" fill="#a0a0a0"/>
<rect x="87.406" y="893.1" width="26.517" height="22.029" fill="#2f3938"/>
<polygon points="65.541 2564.3 23.163 2564.3 22.608 965.62 65.541 965.62" fill="#2f3938"/>
<path d="m87.406 839.15a11.264 11.264 0 0 0-21.865 3.6069v32.741h-42.964l-0.0191-53.576 0.0014-0.0121 90.373-2.3754a54.996 54.996 0 0 1 0.9914 10.484v45.48h-26.517z" fill="#2f3938"/>
<rect x="22.586" y="893.1" width="42.955" height="22.029" fill="#2f3938"/>
<rect x="87.406" y="2614.8" width="27.182" height="22.028" fill="#2f3938"/>
<path d="m23.194 2654.4h42.347v36.347a11.264 11.264 0 0 0 21.865-3.6032v-32.744h27.182v45.478a54.978 54.978 0 0 1-0.9929 10.484l-90.383-2.3731z" fill="#2f3938"/>
<polygon points="23.188 2636.8 23.179 2614.8 65.541 2614.8 65.541 2636.8" fill="#2f3938"/>
<polygon points="87.406 965.62 113.92 965.62 113.92 1180 114.59 1180 114.59 2564.3 87.406 2564.3" fill="#2f3938"/>
<rect x="87.406" y="875.5" width="26.517" height="17.603" fill="#f3d527"/>
<rect x="22.58" y="875.5" width="42.961" height="17.603" fill="#f3d527"/>
<rect x="87.406" y="915.13" width="26.517" height="50.484" fill="#f3d527"/>
<polygon points="65.541 915.13 65.541 965.62 22.608 965.62 22.59 915.13" fill="#f3d527"/>
<rect x="87.406" y="2636.8" width="27.182" height="17.602" fill="#f3d527"/>
<rect x="23.191" y="2636.8" width="42.35" height="17.602" fill="#f3d527"/>
<rect x="87.406" y="2564.3" width="27.182" height="50.483" fill="#f3d527"/>
<polygon points="65.541 2614.8 23.179 2614.8 23.163 2564.3 65.541 2564.3" fill="#f3d527"/>
<rect x="65.541" y="893.1" width="21.865" height="22.029" fill="#232b2a"/>
<path d="m65.541 842.76a11.264 11.264 0 0 1 21.865-3.6069v36.348h-21.865z" fill="#232b2a"/>
<rect x="65.541" y="875.5" width="21.865" height="17.603" fill="#b6a01d"/>
<rect x="65.541" y="915.13" width="21.865" height="50.484" fill="#b6a01d"/>
<path d="m87.406 2687.2a11.264 11.264 0 0 1-21.865 3.6032v-36.347h21.865z" fill="#232b2a"/>
<rect x="65.541" y="965.62" width="21.865" height="1598.7" fill="#232b2a"/>
<rect x="65.541" y="2614.8" width="21.865" height="22.028" fill="#232b2a"/>
<rect x="65.541" y="2636.8" width="21.865" height="17.602" fill="#b6a01d"/>
<rect x="65.541" y="2564.3" width="21.865" height="50.483" fill="#b6a01d"/>
<path d="m26.342 781.82c3.2143-30.519 12.135-84.798 19.645-129.64 6.4271-38.333 11.866-69.75 11.866-73.475 0-56.101-5.62-185.39-4.8745-247.08a54.669 54.669 0 0 0 13.583 6.9957c1.3788 0.478 2.7738 0.8721 4.1762 1.2345v227.76l43.185 251.89-0.9914 0.0295-90.373 2.3754c1.0783-13.454 2.3717-26.785 3.7829-40.087z" fill="#232b2a"/>
<path d="m49.284 3219.6c1.7722-4.8958 4.5593-9.8325 4.4473-15.198-1.2226-58.896 4.7846-195.13 4.7846-253.14 0-8.108-25.542-146.48-31.52-203.11-1.4142-13.306-2.7046-26.644-3.7844-40.099l90.383 2.3731 0.9929 0.0291-43.197 251.96v257.18c-9.9125 21.358-26.193 46.709-17.331 69.539 7.5968 19.554 130.48 123.67 165.9 165.9-51.093-23.038-190.23-131.51-199.15-163.5 5.0763-19.196 15.59-39.921 26.734-67.377 0.5983-1.5018 1.2037-3.0327 1.7428-4.564z" fill="#232b2a"/>
<polygon points="0.443 2564.3 0.443 2614.8 0.443 2636.8 0.443 2654.4 0.443 2699.9 0.321 2349.9 0.443 2349.9" fill="#a0a0a0" opacity=".5" style="mix-blend-mode:multiply"/>
<rect x="-.1856" y="893.1" width="22.772" height="22.029" fill="#a0a0a0"/>
<polygon points="22.608 965.62 23.163 2564.3 0.443 2564.3 0.443 2349.9 0.321 2349.9 -0.163 965.62" fill="#a0a0a0"/>
<rect x="-.193" y="875.5" width="22.773" height="17.603" fill="#daeaea"/>
<rect x="-.1723" y="915.13" width="22.771" height="50.484" fill="#daeaea"/>
<polygon points="23.188 2636.8 0.443 2636.8 0.443 2614.8 23.179 2614.8" fill="#a0a0a0"/>
<path d="m23.194 2654.4 0.0177 53.589-22.258-0.6014a56.167 56.167 0 0 1-0.51-7.51v-45.478z" fill="#a0a0a0"/>
<path d="M22.5487,821.9114l.01,0-.0014.0121.0191,53.5758H-.1959l-.0147-45.4679a56.1526,56.1526,0,0,1,.51-7.51h-.01L.29,822.51Z" fill="#2f3938" opacity=".5" style="mix-blend-mode:multiply"/>
<rect x="-.1856" y="893.1" width="22.772" height="22.029" fill="#2f3938" opacity=".5" style="mix-blend-mode:multiply"/>
<polygon points="22.608 965.62 23.163 2564.3 0.443 2564.3 0.443 2349.9 0.321 2349.9 -0.163 965.62" fill="#2f3938" opacity=".5" style="mix-blend-mode:multiply"/>
<polygon points="23.188 2636.8 0.443 2636.8 0.443 2614.8 23.179 2614.8" fill="#2f3938" opacity=".5" style="mix-blend-mode:multiply"/>
<path d="m23.194 2654.4 0.0177 53.589-22.258-0.6014a56.167 56.167 0 0 1-0.51-7.51v-45.478z" fill="#2f3938" opacity=".5" style="mix-blend-mode:multiply"/>
<rect x=".4434" y="2636.8" width="22.748" height="17.602" fill="#daeaea"/>
<polygon points="0.443 2614.8 0.443 2564.3 23.163 2564.3 23.179 2614.8" fill="#daeaea"/>
<rect x="-.193" y="875.5" width="22.773" height="17.603" fill="#f3d527" opacity=".5" style="mix-blend-mode:multiply"/>
<rect x="-.1723" y="915.13" width="22.771" height="50.484" fill="#f3d527" opacity=".5" style="mix-blend-mode:multiply"/>
<rect x=".4434" y="2636.8" width="22.748" height="17.602" fill="#f3d527" opacity=".5" style="mix-blend-mode:multiply"/>
<polygon points="0.443 2614.8 0.443 2564.3 23.163 2564.3 23.179 2614.8" fill="#f3d527" opacity=".5" style="mix-blend-mode:multiply"/>
<path d="m26.996 2748.1c5.9778 56.623 31.52 195 31.52 203.11 0 58.005-6.0072 194.24-4.7846 253.14 0.112 5.3654-2.6751 10.302-4.4473 15.198-0.5391 1.5313-1.1445 3.0622-1.7426 4.564-11.144 27.457-21.658 48.181-26.734 67.377-0.0884-0.3315-0.18-0.66-0.2416-0.962-5.0748-24.632 20.998-77.377 26.072-87.35v-241.68l-46.195-254.09h0.51l22.258 0.6014c1.0795 13.455 2.3699 26.793 3.7841 40.099z" fill="#929393"/>
<path d="m26.996 2748.1c5.9778 56.623 31.52 195 31.52 203.11 0 58.005-6.0072 194.24-4.7846 253.14 0.112 5.3654-2.6751 10.302-4.4473 15.198-0.5391 1.5313-1.1445 3.0622-1.7426 4.564-11.144 27.457-21.658 48.181-26.734 67.377-0.0884-0.3315-0.18-0.66-0.2416-0.962-5.0748-24.632 20.998-77.377 26.072-87.35v-241.68l-46.195-254.09h0.51l22.258 0.6014c1.0795 13.455 2.3699 26.793 3.7841 40.099z" fill="#a0a0a0" opacity=".5" style="mix-blend-mode:multiply"/>
</g>
</svg>
