<?xml version="1.0" encoding="utf-8"?>
<!-- Generator: Adobe Illustrator 24.1.0, SVG Export Plug-In . SVG Version: 6.00 Build 0)  -->
<svg version="1.1" id="Capa_1" xmlns="http://www.w3.org/2000/svg" xmlns:xlink="http://www.w3.org/1999/xlink" x="0px" y="0px"
	 viewBox="0 0 233 3455" style="enable-background:new 0 0 233 3455;" xml:space="preserve">
<style type="text/css">
	.st0{fill:none;}
	.st1{fill:#FFFFFF;}
	.st2{opacity:0.8;fill:#809E9B;enable-background:new    ;}
	.st3{fill:#A0A0A0;}
	.st4{fill:#929393;}
	.st5{opacity:0.5;fill:#232B2A;enable-background:new    ;}
	.st6{fill:none;stroke:#A0A0A0;stroke-width:0;stroke-linecap:round;stroke-linejoin:round;}
	.st7{fill:#2F3938;}
	.st8{fill:#F3D527;}
	.st9{fill:#232B2A;}
	.st10{fill:#B6A01D;}
	.st11{opacity:0.5;fill:#A0A0A0;enable-background:new    ;}
	.st12{opacity:0.5;fill:#2F3938;enable-background:new    ;}
	.st13{fill:#DAEAEA;}
	.st14{opacity:0.5;fill:#F3D527;enable-background:new    ;}
</style>
<g>
	<rect x="65.5" y="2564.3" class="st0" width="21.9" height="0"/>
	<path class="st0" d="M53.7,3204.4C53.7,3204.4,53.7,3204.4,53.7,3204.4c0.1,5.3-2.7,10.2-4.4,15.1c-0.1,0.4-0.3,0.8-0.4,1.2
		c0.1-0.4,0.3-0.7,0.4-1.1C51.1,3214.7,53.9,3209.8,53.7,3204.4z"/>
	<path class="st0" d="M86.7,837.6c-1.1-2-2.6-3.5-4.5-4.5C84,834.1,85.6,835.7,86.7,837.6z"/>
	<rect x="65.5" y="2654.4" class="st0" width="21.9" height="0.1"/>
	<path class="st0" d="M58.5,2951.3c0,52.6-4.9,169.4-5,234.6C53.6,3120.6,58.5,3003.9,58.5,2951.3
		C58.5,2951.3,58.5,2951.3,58.5,2951.3z"/>
	<path class="st0" d="M0.5,2699.9v-45.5H0.4L0.5,2699.9c-0.1,2.5,0.1,5,0.4,7.5H1C0.7,2704.9,0.5,2702.4,0.5,2699.9z"/>
	<rect x="23.1" y="2636.8" class="st0" width="0.1" height="17.6"/>
	<path class="st0" d="M57.9,578.7c0-48.3-4.2-151-4.9-217.9h0C53.7,427.7,57.9,530.4,57.9,578.7z"/>
	<path class="st0" d="M65.5,842.8c0-0.3,0-0.6,0.1-1C65.5,842.2,65.5,842.5,65.5,842.8z"/>
	<path class="st0" d="M86.7,837.7c0.1,0.2,0.2,0.4,0.3,0.6C86.9,838.1,86.8,837.9,86.7,837.7z"/>
	<path class="st0" d="M80.6,832.4C80.6,832.4,80.7,832.4,80.6,832.4C80.7,832.4,80.6,832.4,80.6,832.4z"/>
	<path class="st0" d="M81.4,832.7c0.1,0.1,0.3,0.1,0.4,0.2C81.7,832.8,81.6,832.8,81.4,832.7z"/>
	<path class="st0" d="M65.7,841.2c0-0.1,0-0.2,0-0.2C65.7,841.1,65.7,841.1,65.7,841.2z"/>
	<path class="st1" d="M60.9,336.2c0.3,0.2,0.7,0.3,1,0.5C61.5,336.5,61.2,336.4,60.9,336.2z"/>
	<path class="st1" d="M53,360.8L53,360.8c-0.1-10.7-0.1-20.6,0-29.1c0,0,0,0,0,0C52.9,340.2,52.9,350.1,53,360.8z"/>
	<path class="st2" d="M74.7,327.1c45.8,15.9,107-40.6,136.6-126.1C241,115.5,227.8,33.3,182,17.4C136.2,1.5,75,58,45.4,143.5
		C15.7,229,28.9,311.2,74.7,327.1z"/>
	<path class="st2" d="M74.7,292.1c45.8,15.9,107-40.6,136.6-126.1C241,80.5,214.5,29.8,182,17.4C136.7,0.1,75,58,45.4,143.5
		C15.7,229,28.9,276.2,74.7,292.1z"/>
	<path class="st1" d="M63.8,337.5c0.9,0.4,1.9,0.7,2.8,1.1C65.6,338.3,64.7,337.9,63.8,337.5z"/>
	<polygon class="st3" points="-0.2,2349.9 0.3,2349.9 -0.2,965.6 	"/>
	<path class="st4" d="M22.5,821.9l0.1,0c1-13.4,2.3-26.8,3.7-40.1c3.2-29.5,11.6-81.4,19-125.4c0.2-1.4,0.5-2.8,0.7-4.2
		c6.4-38.3,11.9-69.8,11.9-73.5c0-48.3-4.2-151-4.9-217.9c-0.1-10.7-0.1-20.6,0-29.1c-2.5-1.8-4.8-3.7-7-5.8v34.9v207.6L-0.2,822.5
		h0.5L22.5,821.9L22.5,821.9z"/>
	<path class="st5" d="M22.5,821.9l0.1,0c1-13.4,2.3-26.8,3.7-40.1c3.2-29.5,11.6-81.4,19-125.4c0.2-1.4,0.5-2.8,0.7-4.2
		c6.4-38.3,11.9-69.8,11.9-73.5c0-48.3-4.2-151-4.9-217.9c-0.1-10.7-0.1-20.6,0-29.1c-2.5-1.8-4.8-3.7-7-5.8v34.9v207.6L-0.2,822.5
		h0.5L22.5,821.9L22.5,821.9z"/>
	<path class="st6" d="M0.9,2707.4c-0.3-2.5-0.5-5-0.5-7.5"/>
	<rect x="87.4" y="893.1" class="st7" width="26.5" height="22"/>
	<polygon class="st7" points="65.5,2564.3 65.5,965.6 22.6,965.6 23.2,2564.3 65.5,2564.3 	"/>
	<path class="st7" d="M22.6,821.9l-0.1,0v0v53.6h0.1h42.9v-32.7l0,0c0,0,0,0,0,0c0-0.3,0-0.6,0.1-1c0-0.2,0.1-0.4,0.1-0.6
		c0-0.1,0-0.2,0-0.2c1-5.3,5.6-9.4,11.3-9.3c1.3,0,2.5,0.3,3.6,0.7c0,0,0,0,0.1,0c0.3,0.1,0.5,0.2,0.8,0.3c0.1,0.1,0.3,0.1,0.4,0.2
		c0.1,0.1,0.2,0.1,0.3,0.2c1.9,1,3.4,2.5,4.5,4.5c0,0,0,0.1,0.1,0.1c0.1,0.2,0.2,0.4,0.3,0.6c0.1,0.3,0.3,0.6,0.4,0.9v36.3h26.5V830
		c0-3.5-0.3-7-1-10.5L22.6,821.9C22.6,821.9,22.6,821.9,22.6,821.9z"/>
	<rect x="22.6" y="893.1" class="st7" width="42.9" height="22"/>
	<rect x="87.4" y="2614.8" class="st7" width="27.2" height="22"/>
	<path class="st7" d="M87.4,2654.5v32.6v0.1c-0.1,6.2-5.2,11.2-11.5,11.1c-4.7-0.1-8.8-3.1-10.4-7.5v-0.1v-36.2v-0.1H23.2v53.6
		l0.1,0c0,0,0,0,0,0l90.3,2.4c0.7-3.5,1-7,1-10.5v-45.5L87.4,2654.5L87.4,2654.5z"/>
	<rect x="23.2" y="2614.8" class="st7" width="42.3" height="22"/>
	<polygon class="st7" points="87.4,2564.3 87.4,2564.3 114.6,2564.3 114.6,1180 113.9,1180 113.9,965.6 87.4,965.6 	"/>
	<polygon class="st8" points="87.4,875.5 87.4,893.1 113.9,893.1 113.9,875.5 113.9,875.5 87.4,875.5 	"/>
	<polygon class="st8" points="22.6,893.1 65.5,893.1 65.5,875.5 65.5,875.5 22.6,875.5 	"/>
	<rect x="87.4" y="915.1" class="st8" width="26.5" height="50.5"/>
	<rect x="22.6" y="915.1" class="st8" width="42.9" height="50.5"/>
	<rect x="87.4" y="2636.8" class="st8" width="27.2" height="17.6"/>
	<polygon class="st8" points="65.5,2636.8 23.2,2636.8 23.2,2654.4 23.2,2654.4 65.5,2654.4 65.5,2654.4 	"/>
	<polygon class="st8" points="87.4,2614.8 114.6,2614.8 114.6,2564.3 114.6,2564.3 87.4,2564.3 	"/>
	<rect x="23.2" y="2564.3" class="st8" width="42.3" height="50.5"/>
	<polygon class="st9" points="65.5,893.1 65.5,915.1 65.6,915.1 87.4,915.1 87.4,893.1 65.6,893.1 	"/>
	<path class="st9" d="M87.4,875.5v-36.3c-0.1-0.3-0.2-0.6-0.4-0.9c-0.1-0.2-0.2-0.4-0.3-0.6c0,0,0-0.1-0.1-0.1
		c-1.1-1.9-2.6-3.5-4.5-4.5c-0.1-0.1-0.2-0.1-0.3-0.2c-0.1-0.1-0.2-0.1-0.4-0.2c-0.2-0.1-0.5-0.2-0.8-0.3c0,0,0,0-0.1,0
		c-1.1-0.4-2.4-0.7-3.6-0.7c-5.7-0.1-10.4,4-11.3,9.3c0,0.1,0,0.2,0,0.2c0,0.2-0.1,0.4-0.1,0.6c0,0.3-0.1,0.6-0.1,1c0,0,0,0,0,0l0,0
		v32.7h0.1H87.4z"/>
	<polygon class="st10" points="65.5,893.1 65.6,893.1 87.4,893.1 87.4,875.5 87.4,875.5 65.6,875.5 65.5,875.5 65.5,875.5 	"/>
	<polygon class="st10" points="65.5,915.1 65.5,965.6 87.4,965.6 87.4,915.1 65.6,915.1 	"/>
	<path class="st9" d="M65.5,2690.7v0.1c1.6,4.4,5.7,7.4,10.4,7.5c6.3,0.1,11.4-4.9,11.5-11.1v-0.1v-32.6H65.5V2690.7z"/>
	<rect x="65.5" y="965.6" class="st9" width="21.9" height="1598.7"/>
	<rect x="65.5" y="2614.8" class="st9" width="21.9" height="22"/>
	<polygon class="st10" points="65.5,2654.4 65.5,2654.4 87.4,2654.4 87.4,2636.8 65.5,2636.8 	"/>
	<rect x="65.5" y="2564.3" class="st10" width="21.9" height="50.5"/>
	<path class="st9" d="M70.8,339.8c50,12.9,114.3-47.1,145.5-137.1c32.1-92.6,17.1-181.8-33.5-199.4c-50.6-17.5-117.7,43.4-149.7,136
		C5.9,217.7,12.5,293.8,46,325.9c2.2,2.1,4.5,4,7,5.8c0,0,0,0,0,0c-0.1,8.5-0.1,18.4,0,29.1c0.7,67,4.9,169.6,4.9,217.9
		c0,3.7-5.5,35.2-11.9,73.5c-0.2,1.4-0.5,2.8-0.7,4.2c-7.3,43.9-15.8,95.8-19,125.4c-1.4,13.3-2.7,26.7-3.7,40.1c0,0,0,0,0,0
		l90.3-2.4l0.1,0h1L70.8,567.6V360.8V339.8z M45.4,143.5C75,58,136.2,1.5,182,17.4c45.8,15.9,59,98.1,29.3,183.6
		c-29.6,85.5-90.8,142-136.6,126.1C28.9,311.2,15.7,229,45.4,143.5z"/>
	<path class="st9" d="M58.5,2951.2C58.5,2951.2,58.5,2951.3,58.5,2951.2C58.5,2951.3,58.5,2951.3,58.5,2951.2
		c0,52.7-4.9,169.4-5,234.7c0,6.7,0,12.9,0.2,18.4c0,0,0,0,0,0.1c0,0,0,0,0,0c0.2,5.4-2.6,10.3-4.4,15.2c-0.1,0.4-0.3,0.7-0.4,1.1
		c-0.3,0.8-0.6,1.6-0.9,2.3c-0.1,0.4-0.3,0.8-0.4,1.2c-11.1,27.5-21.6,48.2-26.7,67.4c8.9,32,148,140.5,199.1,163.5
		c-35.4-42.2-158.3-146.3-165.9-165.9c-8.9-22.8,7.4-48.1,17.3-69.5v-257.2l43.2-252h-1l-90.3-2.4c1,13.5,2.3,26.7,3.7,40
		C33,2804.7,58.5,2943.1,58.5,2951.2z"/>
	<polygon class="st11" points="0.4,2654.4 0.4,2636.8 0.4,2614.8 0.4,2564.3 0.4,2349.9 0.3,2349.9 0.4,2699.9 0.4,2654.4 	"/>
	<path class="st3" d="M22.5,821.9l-22.2,0.6c-0.3,2.5-0.5,5-0.5,7.5v45.5h22.7V821.9z"/>
	<path class="st12" d="M22.5,821.9l-22.2,0.6c-0.3,2.5-0.5,5-0.5,7.5v45.5h22.7V821.9z"/>
	<polygon class="st4" points="22.5,821.9 22.5,821.9 0.3,822.5 22.5,821.9 	"/>
	<polygon class="st5" points="22.5,821.9 22.5,821.9 0.3,822.5 22.5,821.9 	"/>
	<polygon class="st12" points="22.5,821.9 22.5,821.9 0.3,822.5 22.5,821.9 	"/>
	<rect x="-0.2" y="893.1" class="st3" width="22.8" height="22"/>
	<rect x="-0.2" y="893.1" class="st12" width="22.8" height="22"/>
	<polygon class="st3" points="0.4,2564.3 23.2,2564.3 22.6,965.6 -0.2,965.6 0.3,2349.9 0.4,2349.9 	"/>
	<polygon class="st12" points="0.4,2564.3 23.2,2564.3 22.6,965.6 -0.2,965.6 0.3,2349.9 0.4,2349.9 	"/>
	<polygon class="st3" points="23.2,2636.8 23.2,2614.8 0.4,2614.8 0.4,2636.8 23.1,2636.8 	"/>
	<polygon class="st12" points="23.2,2636.8 23.2,2614.8 0.4,2614.8 0.4,2636.8 23.1,2636.8 	"/>
	<path class="st3" d="M23.1,2654.4L23.1,2654.4l-22.6,0v45.5c0,2.5,0.2,5,0.5,7.5l22.2,0.6v-53.6v0H23.1z"/>
	<path class="st12" d="M23.1,2654.4L23.1,2654.4l-22.6,0v45.5c0,2.5,0.2,5,0.5,7.5l22.2,0.6v-53.6v0H23.1z"/>
	<polygon class="st13" points="22.6,875.5 22.5,875.5 -0.2,875.5 -0.2,893.1 22.6,893.1 	"/>
	<polygon class="st14" points="22.6,875.5 22.5,875.5 -0.2,875.5 -0.2,893.1 22.6,893.1 	"/>
	<rect x="-0.2" y="915.1" class="st13" width="22.8" height="50.5"/>
	<rect x="-0.2" y="915.1" class="st14" width="22.8" height="50.5"/>
	<polygon class="st13" points="23.1,2654.4 23.1,2636.8 0.4,2636.8 0.4,2654.4 0.4,2654.4 0.5,2654.4 23.1,2654.4 	"/>
	<polygon class="st14" points="23.1,2654.4 23.1,2636.8 0.4,2636.8 0.4,2654.4 0.4,2654.4 0.5,2654.4 23.1,2654.4 	"/>
	<rect x="0.4" y="2564.3" class="st13" width="22.8" height="50.5"/>
	<rect x="0.4" y="2564.3" class="st14" width="22.8" height="50.5"/>
	<path class="st4" d="M23.2,2708L1,2707.4H0.9H0.4l46.4,254v241.7c-5.1,10-31.2,62.8-26.1,87.4c0,0.3,0.1,0.7,0.2,1
		c5-19.2,15.6-39.9,26.7-67.4c0.1-0.4,0.3-0.7,0.4-1.1c0.3-0.8,0.6-1.6,0.9-2.3c0.1-0.4,0.3-0.8,0.4-1.2c1.7-4.9,4.5-9.8,4.4-15.1
		c0,0,0,0,0-0.1c-0.1-5.5-0.2-11.7-0.2-18.4c0-65.2,5-182,5-234.6c0,0,0-0.1,0-0.1c0-8.1-25.5-146.5-31.5-203.1
		c-1.4-13.3-2.7-26.5-3.7-40c0,0,0-0.1,0-0.1C23.3,2708,23.3,2708,23.2,2708L23.2,2708z"/>
	<path class="st11" d="M23.2,2708L1,2707.4H0.9H0.4l46.4,254v241.7c-5.1,10-31.2,62.8-26.1,87.4c0,0.3,0.1,0.7,0.2,1
		c5-19.2,15.6-39.9,26.7-67.4c0.1-0.4,0.3-0.7,0.4-1.1c0.3-0.8,0.6-1.6,0.9-2.3c0.1-0.4,0.3-0.8,0.4-1.2c1.7-4.9,4.5-9.8,4.4-15.1
		c0,0,0,0,0-0.1c-0.1-5.5-0.2-11.7-0.2-18.4c0-65.2,5-182,5-234.6c0,0,0-0.1,0-0.1c0-8.1-25.5-146.5-31.5-203.1
		c-1.4-13.3-2.7-26.5-3.7-40c0,0,0-0.1,0-0.1C23.3,2708,23.3,2708,23.2,2708L23.2,2708z"/>
</g>
</svg>
