<?xml version="1.0" encoding="utf-8"?>
<!-- Generator: Adobe Illustrator 24.1.0, SVG Export Plug-In . SVG Version: 6.00 Build 0)  -->
<svg version="1.1" id="Capa_1" xmlns="http://www.w3.org/2000/svg" xmlns:xlink="http://www.w3.org/1999/xlink" x="0px" y="0px"
	 viewBox="0 0 233 3455" style="enable-background:new 0 0 233 3455;" xml:space="preserve">
<style type="text/css">
	.st0{fill:#A0A0A0;}
	.st1{fill:#929393;}
	.st2{opacity:0.5;fill:#A0A0A0;enable-background:new    ;}
	.st3{opacity:0.5;fill:#232B2A;enable-background:new    ;}
	.st4{fill:#232B2A;}
	.st5{fill:#2F3938;}
	.st6{fill:#F3D527;}
	.st7{fill:#B6A01D;}
	.st8{fill:#DAEAEA;}
	.st9{opacity:0.5;fill:#2F3938;enable-background:new    ;}
	.st10{opacity:0.5;fill:#F3D527;enable-background:new    ;}
</style>
<g>
	<path class="st0" d="M0.3,822.5c-0.3,2.5-0.5,5-0.5,7.5l0,45.5h0V830C-0.2,827.5,0,825,0.3,822.5L0.3,822.5z"/>
	<polygon class="st0" points="0.3,2349.9 -0.2,2349.9 -0.2,965.6 -0.2,965.6 	"/>
	<polygon class="st1" points="-0.2,822.5 -0.2,822.5 46,568.4 46,568.4 46,568.4 	"/>
	<path class="st2" d="M0.3,822.5h-0.5l0,0L0.3,822.5L0.3,822.5z"/>
	<path class="st0" d="M22.5,821.9L22.5,821.9L22.5,821.9l0,53.6H-0.2l0-45.5c0-2.5,0.2-5,0.5-7.5h0l0,0L22.5,821.9z"/>
	<path class="st1" d="M57.9,578.7c0,3.7-5.4,35.1-11.9,73.5c-7.5,44.8-16.4,99.1-19.6,129.6c-1.4,13.3-2.7,26.6-3.8,40.1h0
		l-22.3,0.6h-0.5L46,568.4V325.8c2.2,2.1,4.5,4,7,5.8C52.2,393.3,57.9,522.6,57.9,578.7L57.9,578.7z"/>
	<path class="st3" d="M57.9,578.7c0,3.7-5.4,35.1-11.9,73.5c-7.5,44.8-16.4,99.1-19.6,129.6c-1.4,13.3-2.7,26.6-3.8,40.1h0
		l-22.3,0.6h-0.5L46,568.4V325.8c2.2,2.1,4.5,4,7,5.8C52.2,393.3,57.9,522.6,57.9,578.7L57.9,578.7z"/>
	<path class="st4" d="M66.6,338.6c1.4,0.5,2.8,0.9,4.2,1.2c50,12.9,114.3-47.1,145.5-137.1c32.1-92.6,17.1-181.8-33.5-199.4
		C132.2-14.2,65.1,46.7,33.1,139.3C5.9,217.7,12.5,293.8,46,325.9c2.2,2.1,4.5,4,7,5.8C57.2,334.6,61.7,336.9,66.6,338.6L66.6,338.6
		z M45.4,143.5C75,58,136.2,1.5,182,17.4s59,98.1,29.3,183.6c-29.6,85.5-90.8,142-136.6,126.1C28.9,311.2,15.7,229,45.4,143.5
		L45.4,143.5z"/>
	<path class="st0" d="M0.4,2699.9c0,2.5,0.2,5,0.5,7.5C0.6,2704.9,0.4,2702.4,0.4,2699.9z"/>
	<rect x="87.4" y="893.1" class="st5" width="26.5" height="22"/>
	<polygon class="st5" points="65.5,2564.3 23.2,2564.3 22.6,965.6 65.5,965.6 	"/>
	<path class="st5" d="M87.4,839.2c-2.1-5.9-8.5-8.9-14.4-6.8c-4.4,1.6-7.4,5.7-7.5,10.4v32.7h-43l0-53.6l0,0l90.4-2.4
		c0.7,3.5,1,7,1,10.5v45.5H87.4L87.4,839.2z"/>
	<rect x="22.6" y="893.1" class="st5" width="43" height="22"/>
	<rect x="87.4" y="2614.8" class="st5" width="27.2" height="22"/>
	<path class="st5" d="M23.2,2654.4h42.3v36.3c2.1,5.9,8.5,8.9,14.4,6.8c4.4-1.6,7.4-5.7,7.5-10.4v-32.7h27.2v45.5
		c0,3.5-0.3,7-1,10.5l-90.4-2.4L23.2,2654.4z"/>
	<polygon class="st5" points="23.2,2636.8 23.2,2614.8 65.5,2614.8 65.5,2636.8 	"/>
	<polygon class="st5" points="87.4,965.6 113.9,965.6 113.9,1180 114.6,1180 114.6,2564.3 87.4,2564.3 	"/>
	<rect x="87.4" y="875.5" class="st6" width="26.5" height="17.6"/>
	<rect x="22.6" y="875.5" class="st6" width="43" height="17.6"/>
	<rect x="87.4" y="915.1" class="st6" width="26.5" height="50.5"/>
	<polygon class="st6" points="65.5,915.1 65.5,965.6 22.6,965.6 22.6,915.1 	"/>
	<rect x="87.4" y="2636.8" class="st6" width="27.2" height="17.6"/>
	<rect x="23.2" y="2636.8" class="st6" width="42.3" height="17.6"/>
	<rect x="87.4" y="2564.3" class="st6" width="27.2" height="50.5"/>
	<polygon class="st6" points="65.5,2614.8 23.2,2614.8 23.2,2564.3 65.5,2564.3 	"/>
	<rect x="65.5" y="893.1" class="st4" width="21.9" height="22"/>
	<path class="st4" d="M65.5,842.8c0.1-6.2,5.2-11.2,11.5-11.1c4.7,0.1,8.8,3.1,10.4,7.5v36.3H65.5V842.8z"/>
	<rect x="65.5" y="875.5" class="st7" width="21.9" height="17.6"/>
	<rect x="65.5" y="915.1" class="st7" width="21.9" height="50.5"/>
	<path class="st4" d="M87.4,2687.2c-0.1,6.2-5.2,11.2-11.5,11.1c-4.7-0.1-8.8-3.1-10.4-7.5v-36.3h21.9V2687.2z"/>
	<rect x="65.5" y="965.6" class="st4" width="21.9" height="1598.7"/>
	<rect x="65.5" y="2614.8" class="st4" width="21.9" height="22"/>
	<rect x="65.5" y="2636.8" class="st7" width="21.9" height="17.6"/>
	<rect x="65.5" y="2564.3" class="st7" width="21.9" height="50.5"/>
	<path class="st4" d="M26.3,781.8C29.6,751.3,38.5,697,46,652.2c6.4-38.3,11.9-69.8,11.9-73.5c0-56.1-5.6-185.4-4.9-247.1
		c4.2,3,8.8,5.3,13.6,7c1.4,0.5,2.8,0.9,4.2,1.2v227.8l43.2,251.9l-1,0l-90.4,2.4C23.6,808.5,24.9,795.1,26.3,781.8L26.3,781.8z"/>
	<path class="st4" d="M49.3,3219.6c1.8-4.9,4.6-9.8,4.4-15.2c-1.2-58.9,4.8-195.1,4.8-253.1c0-8.1-25.5-146.5-31.5-203.1
		c-1.4-13.3-2.7-26.6-3.8-40.1l90.4,2.4l1,0l-43.2,252v257.2c-9.9,21.4-26.2,46.7-17.3,69.5c7.6,19.6,130.5,123.7,165.9,165.9
		c-51.1-23-190.2-131.5-199.1-163.5c5.1-19.2,15.6-39.9,26.7-67.4C48.1,3222.7,48.7,3221.1,49.3,3219.6L49.3,3219.6z"/>
	<polygon class="st2" points="0.4,2564.3 0.4,2614.8 0.4,2636.8 0.4,2654.4 0.4,2699.9 0.3,2349.9 0.4,2349.9 	"/>
	<rect x="-0.2" y="893.1" class="st0" width="22.8" height="22"/>
	<polygon class="st0" points="22.6,965.6 23.2,2564.3 0.4,2564.3 0.4,2349.9 0.3,2349.9 -0.2,965.6 	"/>
	<rect x="-0.2" y="875.5" class="st8" width="22.8" height="17.6"/>
	<rect x="-0.2" y="915.1" class="st8" width="22.8" height="50.5"/>
	<polygon class="st0" points="23.2,2636.8 0.4,2636.8 0.4,2614.8 23.2,2614.8 	"/>
	<path class="st0" d="M23.2,2654.4l0,53.6L1,2707.4c-0.3-2.5-0.5-5-0.5-7.5v-45.5L23.2,2654.4z"/>
	<path class="st9" d="M22.5,821.9L22.5,821.9L22.5,821.9l0,53.6H-0.2l0-45.5c0-2.5,0.2-5,0.5-7.5h0l0,0L22.5,821.9z"/>
	<rect x="-0.2" y="893.1" class="st9" width="22.8" height="22"/>
	<polygon class="st9" points="22.6,965.6 23.2,2564.3 0.4,2564.3 0.4,2349.9 0.3,2349.9 -0.2,965.6 	"/>
	<polygon class="st9" points="23.2,2636.8 0.4,2636.8 0.4,2614.8 23.2,2614.8 	"/>
	<path class="st9" d="M23.2,2654.4l0,53.6L1,2707.4c-0.3-2.5-0.5-5-0.5-7.5v-45.5L23.2,2654.4z"/>
	<rect x="0.4" y="2636.8" class="st8" width="22.7" height="17.6"/>
	<polygon class="st8" points="0.4,2614.8 0.4,2564.3 23.2,2564.3 23.2,2614.8 	"/>
	<rect x="-0.2" y="875.5" class="st10" width="22.8" height="17.6"/>
	<rect x="-0.2" y="915.1" class="st10" width="22.8" height="50.5"/>
	<rect x="0.4" y="2636.8" class="st10" width="22.7" height="17.6"/>
	<polygon class="st10" points="0.4,2614.8 0.4,2564.3 23.2,2564.3 23.2,2614.8 	"/>
	<path class="st1" d="M27,2748.1c6,56.6,31.5,195,31.5,203.1c0,58-6,194.2-4.8,253.1c0.1,5.4-2.7,10.3-4.4,15.2
		c-0.5,1.5-1.1,3.1-1.7,4.6c-11.1,27.5-21.7,48.2-26.7,67.4c-0.1-0.3-0.2-0.7-0.2-1c-5.1-24.6,21-77.4,26.1-87.4v-241.7L0.4,2707.4
		H1l22.3,0.6C24.3,2721.5,25.6,2734.8,27,2748.1L27,2748.1z"/>
	<path class="st2" d="M27,2748.1c6,56.6,31.5,195,31.5,203.1c0,58-6,194.2-4.8,253.1c0.1,5.4-2.7,10.3-4.4,15.2
		c-0.5,1.5-1.1,3.1-1.7,4.6c-11.1,27.5-21.7,48.2-26.7,67.4c-0.1-0.3-0.2-0.7-0.2-1c-5.1-24.6,21-77.4,26.1-87.4v-241.7L0.4,2707.4
		H1l22.3,0.6C24.3,2721.5,25.6,2734.8,27,2748.1L27,2748.1z"/>
</g>
</svg>
