<svg width="16" height="16" viewBox="0 0 16 16" fill="none" xmlns="http://www.w3.org/2000/svg">
<path fill-rule="evenodd" clip-rule="evenodd" d="M12.4621 3.80861C12.4377 3.74964 12.4015 3.69439 12.3536 3.64645C12.3056 3.59851 12.2504 3.56234 12.1914 3.53794C12.1324 3.51349 12.0678 3.5 12 3.5H11.9999H4C3.72386 3.5 3.5 3.72386 3.5 4C3.5 4.27614 3.72386 4.5 4 4.5H10.7929L3.64645 11.6464C3.45118 11.8417 3.45118 12.1583 3.64645 12.3536C3.84171 12.5488 4.15829 12.5488 4.35355 12.3536L11.5 5.20711V12C11.5 12.2761 11.7239 12.5 12 12.5C12.2761 12.5 12.5 12.2761 12.5 12V4.00049V4C12.5 3.999 12.5 3.998 12.5 3.997C12.4996 3.9303 12.4861 3.86669 12.4621 3.80861Z" fill="#051724"/>
</svg>
