<svg xmlns="http://www.w3.org/2000/svg" width="507.5588" height="423.7129" viewBox="0 0 507.5588 423.7129"><path fill="#FFFFFF" d="M42.555,0A42.7855,42.7855,0,0,0,0,42.809v254.04a42.7391,42.7391,0,0,0,42.555,42.758h143.59l-42.246,66.598-49.34.0078a8.75,8.75,0,1,0,0,17.5h318.44a8.75,8.75,0,0,0,0-17.5h-49.406l-42.195-66.598h143.54a42.798,42.798,0,0,0,42.621-42.758V42.8169A42.8392,42.8392,0,0,0,464.9378.0079Zm0,17.5h422.38a24.9941,24.9941,0,0,1,25.121,25.309v254.04a24.9533,24.9533,0,0,1-25.121,25.258l-262.88.0039H42.56a24.8956,24.8956,0,0,1-25.055-25.258V42.8129A24.9382,24.9382,0,0,1,42.56,17.5039Zm120.72,65.301a8.75,8.75,0,0,0-6.2539,14.9219l16.371,16.441-16.371,16.441v-.0039a8.7493,8.7493,0,0,0,12.4064,12.34l16.305-16.371,16.305,16.371a8.7493,8.7493,0,0,0,12.4063-12.34l-16.371-16.441,16.371-16.441v.0039a8.7491,8.7491,0,1,0-12.4062-12.34l-16.305,16.387-16.32-16.387a8.7516,8.7516,0,0,0-6.1367-2.582Zm136.04,0a8.7506,8.7506,0,0,0-6.2695,14.9219l16.371,16.441-16.371,16.441v-.0039a8.7493,8.7493,0,0,0,12.4064,12.34l16.305-16.371,16.32,16.371a8.7437,8.7437,0,0,0,12.3907-12.34l-16.355-16.441,16.371-16.441v.0039a8.7491,8.7491,0,1,0-12.4062-12.34l-16.32,16.391-16.305-16.391a8.7516,8.7516,0,0,0-6.1367-2.582Zm-45.527,119.36c-29.906,0-57.836,15.559-74.41,41.223a8.7522,8.7522,0,1,0,14.7148,9.4805c13.48-20.875,35.844-33.258,59.695-33.258s46.199,12.383,59.676,33.258h.0039a8.7292,8.7292,0,1,0,14.66-9.48c-16.574-25.664-44.434-41.223-74.34-41.223Zm-46.895,137.45h93.773l42.195,66.598-178.21.0039Z"/></svg>