<svg width="16" height="16" viewBox="0 0 16 16" fill="none" xmlns="http://www.w3.org/2000/svg">
<path d="M4.11486 2.64686C5.14722 1.59104 6.54498 1 8 1C9.45502 1 10.8528 1.59104 11.8851 2.64686C12.9179 3.70306 13.5 5.13793 13.5 6.63636C13.5 8.82594 12.1125 10.9212 10.6332 12.5182C9.90311 13.3063 9.17142 13.9509 8.62176 14.3985C8.36922 14.6042 8.15593 14.7676 8 14.8836C7.84407 14.7676 7.63078 14.6042 7.37824 14.3985C6.82858 13.9509 6.09689 13.3063 5.36681 12.5182C3.88753 10.9212 2.5 8.82594 2.5 6.63636C2.5 5.13793 3.08213 3.70306 4.11486 2.64686ZM7.71804 15.9129C7.7182 15.913 7.71833 15.9131 8 15.5L7.71833 15.9131C7.88824 16.029 8.11176 16.029 8.28167 15.9131L8 15.5C8.28167 15.9131 8.2818 15.913 8.28196 15.9129L8.28238 15.9126L8.28364 15.9118L8.28779 15.9089L8.30247 15.8988C8.31504 15.89 8.33314 15.8774 8.35639 15.8609C8.40289 15.828 8.47004 15.7797 8.55488 15.7171C8.72451 15.5918 8.96518 15.4085 9.25324 15.1739C9.82858 14.7054 10.5969 14.0289 11.3668 13.1977C12.8875 11.556 14.5 9.21951 14.5 6.63636C14.5 4.87987 13.8178 3.19312 12.6001 1.94774C11.3821 0.70198 9.72758 0 8 0C6.27242 0 4.61793 0.70198 3.39986 1.94774C2.18215 3.19312 1.5 4.87987 1.5 6.63636C1.5 9.21951 3.11247 11.556 4.63319 13.1977C5.40311 14.0289 6.17142 14.7054 6.74676 15.1739C7.03482 15.4085 7.27549 15.5918 7.44512 15.7171C7.52996 15.7797 7.59711 15.828 7.64361 15.8609C7.66686 15.8774 7.68496 15.89 7.69753 15.8988L7.71221 15.9089L7.71636 15.9118L7.71762 15.9126L7.71804 15.9129ZM6.5 6.66675C6.5 5.83832 7.17157 5.16675 8 5.16675C8.82843 5.16675 9.5 5.83832 9.5 6.66675C9.5 7.49518 8.82843 8.16675 8 8.16675C7.17157 8.16675 6.5 7.49518 6.5 6.66675ZM8 4.16675C6.61929 4.16675 5.5 5.28604 5.5 6.66675C5.5 8.04746 6.61929 9.16675 8 9.16675C9.38071 9.16675 10.5 8.04746 10.5 6.66675C10.5 5.28604 9.38071 4.16675 8 4.16675Z" fill="#051724"/>
</svg>
