<svg width="16" height="16" viewBox="0 0 16 16" fill="none" xmlns="http://www.w3.org/2000/svg">
<path d="M15.8536 0.146461C15.9913 0.284167 16.0365 0.489299 15.9694 0.672142L10.4694 15.6721C10.3998 15.8621 10.2224 15.9914 10.0202 15.9996C9.81803 16.0078 9.63083 15.8933 9.54602 15.7095L6.62322 9.3768L0.290473 6.45399C0.106728 6.36919 -0.00777804 6.18198 0.00041203 5.97978C0.0086021 5.77757 0.137873 5.60024 0.327875 5.53058L15.3279 0.0305761C15.5107 -0.0364661 15.7158 0.00875472 15.8536 0.146461ZM7.60008 9.10704L9.94703 14.1921L14.2498 2.45737L7.60008 9.10704ZM13.5426 1.75026L1.80794 6.05299L6.89298 8.39993L13.5426 1.75026Z" fill="#051724"/>
</svg>
